<?xml version="1.0" standalone="no"?>
<!DOCTYPE svg PUBLIC "-//W3C//DTD SVG 1.1//EN" "http://www.w3.org/Graphics/SVG/1.1/DTD/svg11.dtd" >
<svg xmlns="http://www.w3.org/2000/svg" xmlns:xlink="http://www.w3.org/1999/xlink" version="1.1">
<metadata>
Created by FontForge 20160405 at Thu Jul 12 05:01:37 2018
 By www-data
TrueType font: Copyright (c) 1991, 1994 ParaGraph. Technical realization by TeamAXis Corp. Hinted with AXisType ToolKit: Copyright (c) 1992, 1994 by Dmitry Komissarov. Avant Garde Gothic is a registered trade mark of International Typeface Corporation.
</metadata>
<defs>
<font id="AvantGardeCTT-Italic" horiz-adv-x="554" >
  <font-face 
    font-family="AvantGardeCTT"
    font-weight="400"
    font-style="italic"
    font-stretch="normal"
    units-per-em="1000"
    panose-1="0 0 0 0 0 0 0 0 0 0"
    ascent="800"
    descent="-200"
    x-height="547"
    cap-height="740"
    bbox="-155 -214 1149 980"
    underline-thickness="50"
    underline-position="-175"
    slope="-11"
    unicode-range="U+0020-2122"
  />
<missing-glyph horiz-adv-x="980" 
d="M61 0v980h858v-980h-858zM858 61v858h-736v-858h736z" />
    <glyph glyph-name=".notdef" horiz-adv-x="980" 
d="M61 0v980h858v-980h-858zM858 61v858h-736v-858h736z" />
    <glyph glyph-name=".null" horiz-adv-x="0" 
 />
    <glyph glyph-name="nonmarkingreturn" horiz-adv-x="233" 
 />
    <glyph glyph-name="space" unicode=" " horiz-adv-x="233" 
 />
    <glyph glyph-name="exclam" unicode="!" horiz-adv-x="295" 
d="M282 740l-106 -547h-74l106 547h74zM162 126l-24 -126h-74l24 126h74z" />
    <glyph glyph-name="quotedbl" unicode="&#x22;" horiz-adv-x="309" 
d="M331 740l-44 -226h-52l44 226h52zM220 740l-44 -226h-52l44 226h52z" />
    <glyph glyph-name="numbersign" unicode="#" 
d="M559 489l-16 -58h-151l-36 -123h150l-17 -58h-151l-73 -250h-43l74 250h-90l-74 -250h-42l74 250h-149l16 58h150l36 123h-149l16 58h151l73 251h42l-72 -251h89l74 251h41l-73 -251h150zM349 431h-90l-36 -123h91z" />
    <glyph glyph-name="dollar" unicode="$" 
d="M531 575v-12q0 -6 -2 -20h-70l2 24q0 26 -8 43t-21 28.5t-34 19t-49 7.5q-32 0 -50.5 -8t-34.5 -23q-35 -33 -35 -91q0 -50 35 -85q20 -20 65 -44q66 -35 95 -64q49 -50 49 -124q0 -52 -21 -93q-17 -33 -45 -57q-23 -20 -56 -33.5t-75 -13.5l-25 -129h-65l25 129
q-22 2 -42 10q-38 15 -64 44q-18 20 -29 49t-11 64l2 31h70q-1 -7 -1.5 -16t-0.5 -14q0 -20 6.5 -39t24 -37t42 -25t51.5 -7q33 0 57 8t42 23t29.5 38t11.5 58q0 59 -45 97q-13 11 -32 22t-29 17q-83 47 -110.5 89t-27.5 98q0 50 20 89q14 27 37.5 48t49.5 33q35 16 74 16
l24 125h65l-24 -125q22 -3 43.5 -12.5t42.5 -31t32.5 -46.5t11.5 -60z" />
    <glyph glyph-name="percent" unicode="%" horiz-adv-x="775" 
d="M422 598q0 -46 -15 -80.5t-41 -60t-61 -40t-79 -14.5q-36 0 -64 11.5t-50 34.5t-31 51t-9 58q0 46 15 80.5t42.5 61t60 40t74.5 13.5q39 0 67.5 -12t50.5 -34.5t31 -50.5t9 -58zM665 740l-436 -740h-72l436 740h72zM750 182q0 -46 -15 -80.5t-41 -60t-61 -40t-79 -14.5
q-36 0 -64 11.5t-50 34.5t-31 51t-9 58q0 46 15 80.5t42.5 61t60 40t74.5 13.5q39 0 67.5 -12t50.5 -34.5t31 -50.5t9 -58zM352 593q0 23 -7 39.5t-18 28t-27.5 19t-41.5 7.5q-23 0 -43.5 -7.5t-39.5 -27.5q-14 -14 -22 -34q-11 -25 -11 -55q0 -23 7 -39.5t18 -28t27.5 -19
t41.5 -7.5q23 0 43.5 7.5t39.5 27.5q14 14 23.5 36.5t9.5 52.5zM680 177q0 23 -7 39.5t-18 28t-27.5 19t-41.5 7.5q-23 0 -43.5 -7.5t-39.5 -27.5q-14 -14 -22 -34q-11 -25 -11 -55q0 -23 7 -39.5t18 -28t27.5 -19t41.5 -7.5q23 0 43.5 7.5t39.5 27.5q14 14 23.5 36.5
t9.5 52.5z" />
    <glyph glyph-name="ampersand" unicode="&#x26;" horiz-adv-x="757" 
d="M730 480l-184 -263l150 -182l-61 -48l-136 165l-33 -43q-45 -58 -96 -88q-59 -34 -131 -34q-87 0 -140 54t-53 137q0 107 82 178q57 49 145 76q-28 31 -44 64q-19 40 -19 82q0 79 53.5 127t137.5 48q70 0 111.5 -38.5t41.5 -103.5t-45 -120t-122 -83l113 -140l147 212h83
zM480 605q0 37 -23 59t-64 22q-49 0 -79 -29t-30 -73q0 -33 16 -62q9 -17 37 -51l9 -11q51 16 87 48q47 42 47 97zM454 205l-143 174l-38 -14q-80 -30 -117 -81q-31 -43 -31 -99q0 -60 34.5 -95.5t86.5 -35.5q50 0 91.5 26.5t80.5 77.5z" />
    <glyph glyph-name="quotesingle" unicode="'" horiz-adv-x="198" 
d="M218 740l-44 -226h-50l44 226h50z" />
    <glyph glyph-name="parenleft" unicode="(" horiz-adv-x="369" 
d="M429 740l-14 -68q-78 -40 -135.5 -97.5t-95.5 -131.5q-28 -55 -41.5 -110.5t-13.5 -108.5q0 -46 7.5 -85.5t24.5 -77.5q21 -45 55 -79q25 -25 57 -43l-13 -65q-57 24 -99 65q-30 29 -53 68q-26 44 -39.5 96.5t-13.5 105.5q0 69 17 136.5t55 133.5q52 91 134 161
q77 66 168 100z" />
    <glyph glyph-name="parenright" unicode=")" horiz-adv-x="369" 
d="M330 405q0 -69 -17 -136.5t-55 -133.5q-52 -91 -134 -161q-77 -66 -168 -100l14 68q78 40 135.5 97.5t95.5 131.5q28 55 41.5 110.5t13.5 108.5q0 46 -7.5 85.5t-24.5 77.5q-21 45 -55 79q-25 25 -57 43l13 65q57 -24 99 -65q30 -29 54.5 -70.5t38 -94t13.5 -105.5z" />
    <glyph glyph-name="asterisk" unicode="*" horiz-adv-x="425" 
d="M431 633l-10 -51h-100l36 -88l-51 -28l-37 90l-69 -90l-43 28l71 88h-103l10 51h103l-36 90l53 28l34 -90l72 90l41 -28l-71 -90h100z" />
    <glyph glyph-name="plus" unicode="+" horiz-adv-x="606" 
d="M566 265h-214v-216h-76v216h-214v76h214v213h76v-213h214v-76z" />
    <glyph glyph-name="comma" unicode="," horiz-adv-x="277" 
d="M180 126l-126 -193h-74l126 193h74z" />
    <glyph glyph-name="hyphen" unicode="-" horiz-adv-x="332" 
d="M317 334l-13 -67h-271l13 67h271z" />
    <glyph glyph-name="period" unicode="." horiz-adv-x="277" 
d="M151 126l-24 -126h-74l24 126h74z" />
    <glyph glyph-name="slash" unicode="/" horiz-adv-x="437" 
d="M493 740l-460 -868h-70l458 868h72z" />
    <glyph glyph-name="zero" unicode="0" 
d="M573 560q0 -22 -0.5 -41.5t-5.5 -45.5l-48 -248q-21 -116 -92 -177t-185 -61q-96 0 -155.5 51.5t-59.5 139.5q0 21 0.5 41t5.5 46l48 248q23 119 92.5 179.5t184.5 60.5q97 0 156 -51t59 -142zM499 551q0 29 -10 54q-32 80 -140 80q-65 0 -108 -27q-66 -42 -86 -145
l-48 -248q-4 -19 -5 -37t-1 -41q0 -28 10 -53q32 -80 140 -80q65 0 108 27q66 42 86 144l48 248q4 20 5 37.5t1 40.5z" />
    <glyph glyph-name="one" unicode="1" 
d="M502 740l-144 -740h-74l120 616l-233 -246l-48 50l305 320h74z" />
    <glyph glyph-name="two" unicode="2" 
d="M559 547q0 -85 -60 -153q-21 -24 -119 -103l-277 -224h363l-13 -67h-469l13 66l338 275q89 73 102 87q48 53 48 117q0 65 -37 104q-21 22 -46.5 29.5t-57.5 7.5q-42 0 -76 -14.5t-64 -53.5q-20 -26 -31.5 -56t-11.5 -60h-74q0 41 17 85t47.5 80t72.5 57q57 29 130 29
q46 0 82.5 -13t63.5 -37.5t43 -66t16 -89.5z" />
    <glyph glyph-name="three" unicode="3" 
d="M517 596q0 -68 -38 -115q-33 -41 -88 -58q40 -14 66 -42q47 -50 47 -138q0 -54 -13 -93q-17 -51 -60 -92q-33 -31 -78 -49q-54 -22 -118 -22q-40 0 -77 11t-69.5 40t-47 68.5t-14.5 74.5v23.5t2 26.5h74q-1 -8 -1.5 -16.5t-0.5 -14.5v-10q0 -30 10.5 -56t34.5 -47
q16 -13 42 -23t60 -10q41 0 75 14.5t59 40.5q19 19 30 42q18 37 18 82q0 42 -14.5 75.5t-38 51t-47.5 23t-50 5.5h-33l13 67h29q41 0 66.5 9t45.5 26q16 13 27 34q15 28 15 60q0 29 -9.5 48t-24.5 32t-34.5 17.5t-40.5 4.5q-31 0 -58 -12q-21 -9 -38 -27q-34 -34 -41 -90
h-74q4 40 19 72t40 58t60 43q48 23 108 23q35 0 63 -8.5t54 -31.5t38 -52.5t12 -64.5z" />
    <glyph glyph-name="four" unicode="4" 
d="M554 740l-105 -538h77l-13 -67h-77l-26 -135h-74l26 135h-374l15 75l457 530h94zM460 637l-371 -435h286z" />
    <glyph glyph-name="five" unicode="5" 
d="M561 740l-13 -67h-284l-79 -206q22 14 46 22q41 14 88 14q50 0 92 -17t73 -57q22 -28 35.5 -71t13.5 -97q0 -114 -78 -192q-38 -38 -87 -58q-58 -24 -130 -24q-49 0 -86 13q-46 16 -80 54q-24 27 -38.5 61t-14.5 75v19.5t2 22.5h74q-2 -10 -2 -21v-17q0 -52 38 -93
q25 -27 54.5 -37t61.5 -10q50 0 89.5 16.5t66.5 46t41.5 65.5t14.5 76q0 43 -11 75t-31 55q-23 26 -52.5 37t-62.5 11q-49 0 -93.5 -20t-74.5 -62l-55 21l138 365h344z" />
    <glyph glyph-name="six" unicode="6" 
d="M543 268q0 -61 -18 -110t-61 -91t-95.5 -61t-114.5 -19t-104 18q-34 14 -65 45q-36 35 -50 77.5t-14 92.5q0 57 20.5 109.5t69.5 108.5l264 302h88l-218 -246q18 4 32.5 6t33.5 2q62 0 104 -18q35 -15 68 -48.5t48 -83.5q12 -39 12 -84zM469 260q0 82 -48 130
q-19 20 -47 31q-34 14 -80 14q-44 0 -78 -13t-66 -48q-26 -29 -39 -60q-16 -39 -16 -87q0 -43 14 -78q10 -25 28 -46q26 -28 61 -40q27 -9 61 -9q46 0 82 12.5t69 45.5q29 28 44 64t15 84z" />
    <glyph glyph-name="seven" unicode="7" 
d="M583 740l-13 -67l-429 -673h-84l433 673h-346l13 67h426z" />
    <glyph glyph-name="eight" unicode="8" 
d="M531 579q0 -58 -32.5 -104t-89.5 -70q48 -23 73.5 -67t25.5 -99t-17.5 -101t-49 -78.5t-75.5 -50.5q-53 -22 -121 -22q-48 0 -83.5 13t-62.5 36q-31 26 -48 62q-20 42 -20 98q0 81 47 143t127 82q-39 25 -56 65q-12 28 -12 58q0 43 12.5 80t47 71.5t72 46t87.5 11.5
q49 0 76.5 -12t49 -33.5t33.5 -48.5q16 -35 16 -80zM457 570q0 31 -9 53t-19 33q-13 14 -33.5 22t-52.5 8t-52.5 -8t-38 -23t-29.5 -42t-12 -59q0 -21 5 -40.5t20 -37.5t36 -26t43 -8q39 0 69 14q21 10 37 27t26 38.5t10 48.5zM435 236q0 32 -9.5 54.5t-27.5 42.5
q-22 23 -50 32.5t-60 9.5q-33 0 -65.5 -10t-59 -33.5t-40.5 -50.5q-18 -34 -18 -78q0 -71 43 -112q22 -21 49.5 -29t56.5 -8q46 0 79.5 15.5t55.5 38.5t34 56t12 72z" />
    <glyph glyph-name="nine" unicode="9" 
d="M583 519q0 -70 -32 -134q-20 -41 -58 -84l-263 -301h-88l217 245q-18 -4 -32.5 -6t-33.5 -2q-62 0 -100.5 16.5t-69.5 48.5q-35 35 -48.5 79.5t-13.5 89.5q0 63 20.5 113.5t61 91t93 59t114.5 18.5q48 0 82 -10q52 -15 89 -53q27 -27 44.5 -71t17.5 -100zM509 512
q0 42 -10 71t-30 52q-25 29 -63 42q-27 9 -61 9q-54 0 -95 -18q-34 -15 -59 -41t-40.5 -64.5t-15.5 -83.5q0 -40 12.5 -73.5t35.5 -56.5q19 -20 50 -32.5t77 -12.5q44 0 78 13t66 48q26 29 40.5 64t14.5 83z" />
    <glyph glyph-name="colon" unicode=":" horiz-adv-x="277" 
d="M226 510l-24 -126h-74l24 126h74zM151 126l-24 -126h-74l24 126h74z" />
    <glyph glyph-name="semicolon" unicode=";" horiz-adv-x="277" 
d="M254 510l-24 -126h-74l24 126h74zM180 126l-126 -193h-74l126 193h74z" />
    <glyph glyph-name="less" unicode="&#x3c;" horiz-adv-x="606" 
d="M568 37l-509 232v64l509 232v-73l-414 -191l414 -191v-73z" />
    <glyph glyph-name="equal" unicode="=" horiz-adv-x="606" 
d="M566 361h-504v75h504v-75zM566 166h-504v75h504v-75z" />
    <glyph glyph-name="greater" unicode="&#x3e;" horiz-adv-x="606" 
d="M568 269l-509 -232v73l414 191l-414 191v73l509 -232v-64z" />
    <glyph glyph-name="question" unicode="?" horiz-adv-x="591" 
d="M566 563q0 -80 -43 -135q-24 -31 -85 -73q-70 -49 -94 -83t-32 -79h-74q8 69 49 119q29 36 89.5 77.5t81.5 67.5q34 42 34 102q0 25 -6 44q-9 28 -30 47.5t-46.5 27.5t-49.5 8q-45 0 -79 -14q-27 -11 -51.5 -34.5t-38.5 -53.5q-17 -36 -17 -74h-74q0 53 26 104
q22 44 58 76q41 37 94 52q38 11 86 11t78 -9q42 -13 74 -46q27 -28 38.5 -61.5t11.5 -73.5zM298 126l-24 -126h-74l24 126h74z" />
    <glyph glyph-name="at" unicode="@" horiz-adv-x="867" 
d="M816 429q0 -50 -11.5 -93t-39.5 -87t-71 -72t-88 -28q-30 0 -54 18t-24 49q-23 -33 -58.5 -50t-70.5 -17q-72 0 -121 45q-55 51 -55 141q0 49 12 94.5t38 81.5q34 48 78 67.5t94 19.5q39 0 65 -10q43 -16 63 -57l10 47h64l-63 -319l-4 -34q0 -30 36 -30q61 0 108 78
q19 32 30 73.5t11 80.5q0 121 -81 198q-86 82 -233 82q-154 0 -245 -98q-85 -91 -85 -232q0 -149 94.5 -246.5t239.5 -97.5q54 0 104 12q73 17 141 59l24 -39q-69 -44 -145 -63q-60 -15 -126 -15q-170 0 -276.5 105.5t-106.5 278.5q0 164 98 269q105 113 286 113
q173 0 271 -96q91 -89 91 -228zM549 418q0 43 -12 71q-24 57 -87 57q-33 0 -59 -12q-39 -19 -65 -63q-16 -28 -24.5 -65t-8.5 -71q0 -68 35 -104q30 -30 76 -30q29 0 56 16q32 19 54 58q35 60 35 143z" />
    <glyph glyph-name="A" unicode="A" horiz-adv-x="740" 
d="M679 0h-80l-58 248h-341l-155 -248h-84l463 740h82zM525 315l-77 339l-206 -339h283z" />
    <glyph glyph-name="B" unicode="B" horiz-adv-x="574" 
d="M564 572q0 -62 -34.5 -111t-95.5 -70q52 -20 77.5 -60t25.5 -97q0 -64 -27 -111t-75 -77q-42 -26 -93.5 -36t-106.5 -10h-211l144 740h183q51 0 86.5 -6.5t65.5 -29.5q25 -19 41 -49q20 -38 20 -83zM490 566q0 26 -10 47t-27 35q-24 19 -59.5 22t-55.5 3h-109l-49 -250
h119q35 0 65.5 5t56.5 19q35 20 52 51.5t17 67.5zM463 228q0 30 -9 53q-12 31 -42 51q-22 15 -51.5 19.5t-66.5 4.5h-127l-56 -289h137q44 0 68 4q45 7 76.5 27.5t48.5 48.5q22 35 22 81z" />
    <glyph glyph-name="C" unicode="C" horiz-adv-x="813" 
d="M812 551h-84q-34 80 -116 113q-55 22 -126 22q-74 0 -127 -18q-66 -22 -119 -75t-78.5 -120.5t-25.5 -141.5q0 -61 20 -112q17 -44 49.5 -79t77.5 -57q61 -29 142 -29q83 0 148 32q74 36 115 107h88q-44 -90 -121 -141q-58 -39 -135 -55q-48 -10 -96 -10q-86 0 -145 19
q-79 25 -136 89q-43 48 -62 105t-19 124q0 98 34 179t94 139q69 66 157 92q65 19 156 19q120 0 198.5 -51t110.5 -151z" />
    <glyph glyph-name="D" unicode="D" horiz-adv-x="744" 
d="M722 428q0 -104 -39.5 -189.5t-105.5 -141.5t-153 -79q-67 -18 -162 -18h-238l144 740h203q72 0 120 -10q80 -17 134 -62q42 -36 66 -87q31 -66 31 -153zM648 424q0 70 -22 118q-18 39 -54 70q-43 37 -103 51q-44 10 -111 10h-129l-118 -606h164q87 0 158 27q56 21 99 59
q55 48 85.5 120t30.5 151z" />
    <glyph glyph-name="E" unicode="E" horiz-adv-x="536" 
d="M574 740l-13 -67h-332l-52 -267h321l-13 -67h-321l-53 -272h332l-13 -67h-406l144 740h406z" />
    <glyph glyph-name="F" unicode="F" horiz-adv-x="485" 
d="M543 740l-13 -67h-301l-52 -268h290l-13 -67h-290l-66 -338h-74l144 740h375z" />
    <glyph glyph-name="G" unicode="G" horiz-adv-x="872" 
d="M852 341q-10 -69 -40 -133t-80 -112t-119 -76q-83 -33 -184 -33q-83 0 -143 19q-82 26 -141 89q-45 48 -64 104.5t-19 120.5q0 110 43 199q34 70 92 123q72 66 168 92q69 19 162 19q129 0 210.5 -52.5t114.5 -156.5h-84q-36 84 -122 119q-57 23 -136 23q-75 0 -133 -18
q-74 -23 -131 -76q-47 -43 -74 -98q-36 -73 -36 -163q0 -52 15.5 -101t54 -89t96 -63.5t134.5 -23.5q79 0 144 25q51 20 91 54q29 26 50 56q26 38 39 85h-419l13 67h498z" />
    <glyph glyph-name="H" unicode="H" horiz-adv-x="683" 
d="M699 740l-144 -740h-74l67 347h-383l-67 -347h-74l144 740h74l-64 -326h383l64 326h74z" />
    <glyph glyph-name="I" unicode="I" horiz-adv-x="226" 
d="M242 740l-144 -740h-74l144 740h74z" />
    <glyph glyph-name="J" unicode="J" horiz-adv-x="482" 
d="M498 740l-101 -518q-12 -61 -20 -85q-14 -44 -41 -76q-35 -42 -87 -60q-40 -14 -89 -14q-41 0 -70 10q-38 13 -63 44q-16 20 -25.5 47.5t-9.5 60.5l1 26h74l-1 -23q0 -44 26 -71t74 -27q37 0 64.5 13t46 35t30.5 57q8 22 16 63l101 518h74z" />
    <glyph glyph-name="K" unicode="K" horiz-adv-x="591" 
d="M686 740l-369 -369l226 -371h-92l-193 320l-121 -118l-39 -202h-74l144 740h74l-83 -428l431 428h96z" />
    <glyph glyph-name="L" unicode="L" horiz-adv-x="462" 
d="M417 67l-13 -67h-380l144 740h74l-131 -673h306z" />
    <glyph glyph-name="M" unicode="M" horiz-adv-x="919" 
d="M935 740l-144 -740h-74l128 657l-407 -657h-62l-150 657l-128 -657h-74l144 740h115l146 -628l391 628h115z" />
    <glyph glyph-name="N" unicode="N" horiz-adv-x="740" 
d="M756 740l-144 -740h-74l-314 650l-126 -650h-74l144 740h96l298 -614l120 614h74z" />
    <glyph glyph-name="O" unicode="O" horiz-adv-x="869" 
d="M847 412q0 -97 -35 -177t-98 -138q-70 -65 -162 -91q-66 -19 -148 -19q-79 0 -138 21q-71 25 -122 84q-37 41 -58 98q-24 64 -24 136q0 89 35.5 172.5t104.5 145.5q64 58 141.5 83.5t163.5 25.5q79 0 135 -20q70 -25 123 -86q46 -53 66 -118q16 -52 16 -117zM773 412
q0 62 -21 113q-16 40 -47 75q-39 44 -88 65t-118 21q-83 0 -155 -34q-53 -25 -96 -66q-54 -52 -83 -121t-29 -139q0 -56 17.5 -102t51.5 -85q42 -47 91.5 -66t117.5 -19q73 0 130 21q64 24 120 78q109 106 109 259z" />
    <glyph glyph-name="P" unicode="P" horiz-adv-x="592" 
d="M616 541q0 -70 -28 -121q-22 -40 -65.5 -71t-109.5 -44q-40 -8 -87 -8h-170l-58 -297h-74l144 740h222q48 0 77 -6q50 -11 86 -40.5t51 -73.5q12 -35 12 -79zM542 539q0 35 -11 60t-30 42q-22 20 -52 26t-69 6h-151l-60 -309h169q87 0 140 39q29 22 46.5 56.5t17.5 79.5z
" />
    <glyph glyph-name="Q" unicode="Q" horiz-adv-x="871" 
d="M849 412q0 -105 -43 -193q-34 -69 -94 -124q41 -41 109 -41l-13 -67q-50 0 -88.5 15t-69.5 47q-53 -32 -110 -47t-135 -15q-80 0 -139 21q-71 25 -122 84q-37 41 -58 98q-24 64 -24 136q0 89 35.5 172.5t104.5 145.5q64 58 141.5 83.5t164.5 25.5q79 0 135 -20
q70 -25 124 -86q46 -52 66 -119q16 -53 16 -116zM775 412q0 62 -21 113q-16 40 -47 75q-76 86 -207 86q-79 0 -146 -29q-59 -25 -106 -71q-55 -52 -83.5 -122.5t-28.5 -137.5q0 -11 0.5 -17.5t3.5 -28.5q37 12 81 19t92 7q81 0 151 -26q104 -38 195 -133q57 49 88 124
q28 68 28 141zM600 102q-78 82 -172 115q-62 22 -132 22q-39 0 -70.5 -5t-68.5 -18q28 -70 82 -111q68 -51 176 -51q59 0 101.5 12t83.5 36z" />
    <glyph glyph-name="R" unicode="R" horiz-adv-x="607" 
d="M626 528q0 -68 -31 -122q-26 -46 -69 -76q-78 -55 -171 -55l154 -275h-86l-186 335h59q57 0 93 7q53 10 90 37q31 21 50 57q23 42 23 94q0 38 -11.5 63t-30.5 42q-26 23 -61 30.5t-77 7.5h-143l-131 -673h-74l144 740h217q73 0 113.5 -14t68.5 -39.5t43.5 -66t15.5 -92.5
z" />
    <glyph glyph-name="S" unicode="S" horiz-adv-x="498" 
d="M519 578l-2 -25h-74l2 27q0 22 -6 42t-24 37t-40 22t-47 5q-26 0 -50.5 -5t-46.5 -22q-47 -36 -47 -95q0 -57 43 -99q24 -23 78 -52q79 -41 109 -72q52 -54 52 -141q0 -48 -14 -84q-17 -44 -59 -77q-38 -29 -90 -42q-41 -10 -85 -10t-74 8q-41 11 -71 36q-62 53 -62 153
l2 23h74l-2 -28q0 -30 8.5 -52t30.5 -41.5t46.5 -25.5t53.5 -6q74 0 119 34q49 38 49 104q0 74 -58 119q-13 10 -31.5 20.5t-37.5 19.5q-69 35 -103 71q-52 55 -52 136q0 43 12.5 75t46 63t74 44t88.5 13q41 0 78 -9.5t64 -35.5q18 -17 30 -45q16 -38 16 -85z" />
    <glyph glyph-name="T" unicode="T" horiz-adv-x="426" 
d="M513 740l-13 -67h-169l-131 -673h-74l131 673h-169l13 67h412z" />
    <glyph glyph-name="U" unicode="U" horiz-adv-x="655" 
d="M671 740l-88 -450q-14 -77 -30 -120q-27 -75 -72 -117q-38 -35 -93 -52q-46 -14 -102 -14q-101 0 -157.5 59.5t-56.5 160.5q0 38 8 83l88 450h74l-88 -450q-4 -22 -6 -40.5t-2 -41.5q0 -70 37.5 -112t110.5 -42q43 0 73 10q42 14 73 49q26 29 44 80q13 38 25 97l88 450
h74z" />
    <glyph glyph-name="V" unicode="V" horiz-adv-x="702" 
d="M785 740l-449 -740h-70l-161 740h80l134 -644l382 644h84z" />
    <glyph glyph-name="W" unicode="W" horiz-adv-x="960" 
d="M1044 740l-354 -740h-97l-45 606l-281 -606h-97l-66 740h80l56 -639l295 639h74l53 -639l298 639h84z" />
    <glyph glyph-name="X" unicode="X" horiz-adv-x="609" 
d="M673 740l-303 -364l187 -376h-88l-151 314l-262 -314h-92l321 381l-172 359h86l138 -296l244 296h92z" />
    <glyph glyph-name="Y" unicode="Y" horiz-adv-x="592" 
d="M680 740l-347 -493l-48 -247h-74l48 247l-159 493h80l131 -414l285 414h84z" />
    <glyph glyph-name="Z" unicode="Z" horiz-adv-x="480" 
d="M557 740l-13 -67l-476 -606h369l-13 -67h-457l13 67l476 606h-347l13 67h435z" />
    <glyph glyph-name="bracketleft" unicode="[" horiz-adv-x="351" 
d="M406 740l-15 -78q-25 -6 -45.5 -17t-43.5 -32q-35 -33 -55 -77q-16 -35 -26 -86l-54 -277q-3 -17 -6 -40.5t-3 -40.5q0 -30 6.5 -54.5t23.5 -44.5q24 -29 65 -43l-15 -76q-35 10 -63.5 29.5t-48.5 44.5q-42 54 -42 133q0 24 1.5 35.5t7.5 44.5l56 289q13 67 32 108
q26 57 78 104q36 32 84 55q33 16 63 23z" />
    <glyph glyph-name="backslash" unicode="\" horiz-adv-x="605" 
d="M413 0h-70l-166 740h71z" />
    <glyph glyph-name="bracketright" unicode="]" horiz-adv-x="351" 
d="M286 533q0 -24 -1.5 -35.5t-7.5 -44.5l-56 -289q-13 -67 -32 -108q-26 -57 -78 -104q-36 -32 -84 -55q-33 -16 -63 -23l15 78q25 6 45.5 17t43.5 32q35 33 55 77q16 35 26 86l54 277q3 17 6 40.5t3 40.5q0 30 -6.5 54.5t-23.5 44.5q-24 29 -65 43l15 76q35 -10 66 -31
q26 -18 46 -43q42 -54 42 -133z" />
    <glyph glyph-name="asciicircum" unicode="^" horiz-adv-x="604" 
d="M586 180h-64l-220 484l-220 -484h-64l255 560h58z" />
    <glyph glyph-name="underscore" unicode="_" horiz-adv-x="500" 
d="M500 -125h-500v58h500v-58z" />
    <glyph glyph-name="grave" unicode="`" horiz-adv-x="378" 
d="M384 671l-43 -58l-177 106l43 60z" />
    <glyph glyph-name="a" unicode="a" horiz-adv-x="683" 
d="M676 547l-105 -547h-70l13 66q-32 -35 -74 -54q-54 -25 -131 -25q-54 0 -95 12t-80.5 44.5t-61.5 77.5q-27 54 -27 125q0 83 34 149q27 53 75 93q41 34 96.5 53t123.5 19q55 0 102 -19q75 -30 107 -104l23 110h70zM552 299q0 91 -52.5 142.5t-139.5 51.5
q-104 0 -172.5 -68.5t-68.5 -176.5q0 -84 51.5 -139t143.5 -55q106 0 172 69t66 176z" />
    <glyph glyph-name="b" unicode="b" horiz-adv-x="682" 
d="M633 297q0 -63 -17 -113q-24 -70 -82 -122q-47 -42 -106 -60q-48 -15 -107 -15q-62 0 -110 20q-71 30 -106 101l-22 -108h-70l143 740h74l-49 -255q27 31 65 49q55 26 132 26q50 0 90 -12t77 -43q47 -39 69 -95q19 -49 19 -113zM559 295q0 88 -52 143t-140 55
q-100 0 -164.5 -67.5t-64.5 -171.5q0 -96 52 -148t137 -52q104 0 168 68t64 173z" />
    <glyph glyph-name="c" unicode="c" horiz-adv-x="647" 
d="M615 381h-80q-14 52 -61 82t-114 30q-50 0 -93.5 -16.5t-78.5 -52.5q-31 -32 -50 -79t-19 -100q0 -52 19 -91q14 -29 41 -53q23 -20 57.5 -33.5t83.5 -13.5q63 0 115.5 28t77.5 78h82q-29 -68 -85 -111q-81 -62 -206 -62q-52 0 -92 12q-52 16 -91 52q-33 30 -52 71
q-24 51 -24 117q0 78 29 143q25 57 71 98q50 46 115 65q51 15 111 15q117 0 182 -63q47 -45 62 -116z" />
    <glyph glyph-name="d" unicode="d" horiz-adv-x="685" 
d="M719 740l-144 -740h-70l13 66q-32 -33 -67 -50q-60 -29 -146 -29q-50 0 -83 9q-47 13 -87.5 46.5t-62.5 78.5q-27 54 -27 125q0 83 34 149q27 53 76.5 94t109.5 58q46 13 101 13q59 0 105 -17q73 -27 115 -97l59 294h74zM556 297q0 93 -53.5 144.5t-142.5 51.5
q-105 0 -173 -68t-68 -173q0 -88 52 -143t143 -55q107 0 174.5 68.5t67.5 174.5z" />
    <glyph glyph-name="e" unicode="e" horiz-adv-x="650" 
d="M601 301v-33q-3 -15 -4 -21h-483q0 -93 55 -146q27 -26 66 -38q30 -9 65 -9q43 0 78.5 12.5t61 32t42.5 41.5q13 17 22 38h80q-31 -80 -94 -129q-44 -35 -101 -50q-45 -12 -94 -12q-51 0 -88 12q-54 17 -96 63q-66 72 -66 177q0 71 25.5 136t74.5 109q36 32 85 52
q60 24 134 24q50 0 89 -13q50 -17 85 -56q30 -33 46.5 -80.5t16.5 -109.5zM522 314q0 33 -10.5 64t-29.5 55q-26 33 -58.5 46.5t-74.5 13.5q-51 0 -89 -15t-68 -43q-19 -18 -34 -41q-24 -37 -33 -80h397z" />
    <glyph glyph-name="f" unicode="f" horiz-adv-x="314" 
d="M402 740l-13 -67h-15q-70 0 -105 -46q-22 -29 -29 -69l-2 -11h126l-13 -67h-126l-93 -480h-74l93 480h-95l13 67h95l2 11q16 89 71.5 135.5t149.5 46.5h15z" />
    <glyph glyph-name="g" unicode="g" horiz-adv-x="673" 
d="M666 547l-96 -485q-11 -55 -29 -97q-24 -56 -65 -96q-46 -45 -108 -66q-51 -17 -112 -17q-97 0 -163.5 54.5t-81.5 146.5h74q13 -57 52 -92q47 -42 126 -42q52 0 92 15t77 53q26 27 44.5 64.5t25.5 76.5q-34 -34 -81 -54.5t-116 -20.5q-54 0 -94.5 12t-78.5 44.5
t-60 77.5q-27 55 -27 128q0 81 35 148q28 53 73 91q49 41 110 59q45 13 97 13q99 0 158 -49q35 -29 55 -74l23 110h70zM542 297q0 92 -51 144t-136 52q-103 0 -169.5 -68.5t-66.5 -174.5q0 -85 50.5 -140.5t140.5 -55.5q103 0 167.5 68.5t64.5 174.5z" />
    <glyph glyph-name="h" unicode="h" horiz-adv-x="610" 
d="M560 365q0 -41 -7 -77l-56 -288h-74l56 288q7 32 7 69q0 60 -30 96q-33 40 -96 40q-44 0 -79 -13.5t-62 -37.5q-39 -34 -57 -81q-9 -22 -21 -84l-54 -277h-74l144 740h74l-51 -260q34 33 71 52q55 28 119 28q39 0 73 -11t62 -38q24 -23 37 -53q18 -41 18 -93z" />
    <glyph glyph-name="i" unicode="i" horiz-adv-x="200" 
d="M231 740l-25 -126h-74l25 126h74zM193 547l-106 -547h-74l106 547h74z" />
    <glyph glyph-name="j" unicode="j" horiz-adv-x="203" 
d="M234 740l-25 -126h-74l25 126h74zM196 547l-98 -505q-12 -62 -24 -95q-22 -62 -59 -95q-24 -21 -56 -33.5t-79 -12.5l-35 2l13 71l26 -1q26 0 49 9.5t39 25t28.5 44.5t23.5 85l98 505h74z" />
    <glyph glyph-name="k" unicode="k" horiz-adv-x="502" 
d="M537 547l-263 -274l173 -273h-93l-136 218l-111 -114l-20 -104h-74l144 740h74l-101 -520l312 327h95z" />
    <glyph glyph-name="l" unicode="l" horiz-adv-x="200" 
d="M231 740l-144 -740h-74l144 740h74z" />
    <glyph glyph-name="m" unicode="m" horiz-adv-x="938" 
d="M888 381q0 -32 -8 -69l-61 -312h-74l61 313q3 17 5.5 33t2.5 33q0 54 -30 84t-86 30q-40 0 -69 -13t-55.5 -40.5t-41.5 -64.5q-10 -25 -18 -62l-61 -313h-74l61 313q4 18 6 33.5t2 34.5q0 51 -31 81.5t-85 30.5q-40 0 -69 -13t-55.5 -40.5t-41.5 -64.5q-10 -25 -18 -62
l-61 -313h-74l106 547h70l-10 -55q33 33 73.5 50.5t93.5 17.5q32 0 60 -8t52 -29q18 -16 29 -34.5t14 -33.5q13 19 26 33q20 20 47 36q32 19 65 27.5t69 8.5q38 0 69.5 -10.5t56 -33t39.5 -55t15 -80.5z" />
    <glyph glyph-name="n" unicode="n" horiz-adv-x="610" 
d="M560 357q0 -37 -7 -69l-56 -288h-74l56 288q7 32 7 69q0 60 -30 96q-33 40 -96 40q-44 0 -79 -13.5t-62 -37.5q-39 -34 -57 -81q-9 -22 -21 -84l-54 -277h-74l106 547h70l-13 -67q80 80 192 80q38 0 66 -8q41 -12 71 -41q23 -23 37 -56q18 -43 18 -98z" />
    <glyph glyph-name="o" unicode="o" horiz-adv-x="655" 
d="M606 308q0 -79 -28 -143q-23 -53 -66 -95q-86 -83 -223 -83q-46 0 -83 11q-53 16 -91 53q-31 30 -49 73q-21 50 -21 115q0 77 30 143q26 58 72 100.5t99 60t115 17.5q44 0 82 -11q56 -16 96 -54.5t56 -95.5q11 -38 11 -91zM532 298q0 51 -13.5 87t-34.5 59
q-26 28 -61 38.5t-66 10.5q-52 0 -93.5 -17t-72.5 -48q-72 -72 -72 -179q0 -96 46 -145q27 -29 67 -41q29 -9 61 -9q56 0 98.5 17.5t72 47t49 76t19.5 103.5z" />
    <glyph glyph-name="p" unicode="p" horiz-adv-x="682" 
d="M633 297q0 -63 -17 -113q-24 -70 -82 -122q-47 -42 -106 -60q-48 -15 -107 -15q-89 0 -148 41q-41 28 -65 73l-58 -293h-74l143 739h70l-13 -66q31 36 70 54q53 25 130 25q53 0 92 -12t77 -43q47 -39 69 -95q19 -49 19 -113zM559 295q0 88 -52 143t-140 55
q-99 0 -164 -68t-65 -175q0 -93 51.5 -144.5t137.5 -51.5q104 0 168 68t64 173z" />
    <glyph glyph-name="q" unicode="q" horiz-adv-x="682" 
d="M675 547l-143 -739h-74l48 250q-42 -41 -99 -58q-43 -13 -102 -13q-53 0 -93 12t-79 44.5t-61 77.5q-27 55 -27 129q0 80 35 147q28 53 75 92t108 57q47 14 101 14q78 0 134.5 -31t83.5 -92l23 110h70zM551 297q0 93 -52.5 144.5t-138.5 51.5q-105 0 -173 -68t-68 -173
q0 -88 52 -143t143 -55q105 0 171 69t66 174z" />
    <glyph glyph-name="r" unicode="r" horiz-adv-x="301" 
d="M350 559l-15 -74q-39 0 -73 -11.5t-61 -36.5q-22 -21 -34 -48q-8 -18 -14 -48l-66 -341h-74l106 547h70l-9 -50q34 32 78.5 47t91.5 15z" />
    <glyph glyph-name="s" unicode="s" horiz-adv-x="388" 
d="M381 432l-2 -21h-74l2 19q0 40 -32 55q-17 8 -43 8q-45 0 -68 -26t-23 -63t31 -60q16 -12 64 -31.5t72 -42.5q41 -39 41 -103q0 -47 -17.5 -82t-45.5 -58q-24 -19 -55.5 -29.5t-69.5 -10.5q-45 0 -76.5 14t-49.5 35q-34 39 -34 102l2 23h74l-2 -19q0 -37 20 -60
q24 -28 72 -28q51 0 79.5 29.5t28.5 73.5t-37 71q-11 8 -27.5 15.5t-25.5 11.5q-68 29 -95 67q-23 32 -23 78q0 35 14 66.5t44 55.5q47 38 117 38q37 0 62.5 -9.5t42.5 -25.5q34 -32 34 -93z" />
    <glyph glyph-name="t" unicode="t" horiz-adv-x="339" 
d="M383 547l-13 -67h-127l-93 -480h-74l93 480h-115l13 67h115l38 193h74l-38 -193h127z" />
    <glyph glyph-name="u" unicode="u" horiz-adv-x="608" 
d="M601 547l-106 -547h-70l13 67q-33 -33 -69 -51q-57 -29 -126 -29q-40 0 -68 9q-36 12 -65.5 41t-43.5 74q-10 33 -10 75q0 38 7 73l56 288h74l-56 -288q-7 -32 -7 -69q0 -60 31.5 -98t93.5 -38q82 0 140 51q39 34 57 81q9 22 21 84l54 277h74z" />
    <glyph glyph-name="v" unicode="v" 
d="M602 547l-334 -547h-80l-124 547h91l89 -449l271 449h87z" />
    <glyph glyph-name="w" unicode="w" horiz-adv-x="831" 
d="M880 547l-287 -547h-85l-56 443l-229 -443h-85l-75 547h80l58 -454l232 454h76l62 -454l225 454h84z" />
    <glyph glyph-name="x" unicode="x" horiz-adv-x="480" 
d="M528 547l-240 -275l138 -272h-87l-108 221l-182 -221h-91l241 284l-135 263h87l106 -213l180 213h91z" />
    <glyph glyph-name="y" unicode="y" horiz-adv-x="536" 
d="M585 547l-445 -739h-87l136 221l-127 518h91l96 -425l249 425h87z" />
    <glyph glyph-name="z" unicode="z" horiz-adv-x="425" 
d="M453 547l-13 -67l-370 -413h309l-13 -67h-403l13 67l372 413h-287l13 67h379z" />
    <glyph glyph-name="braceleft" unicode="{" horiz-adv-x="351" 
d="M386 740l-12 -60h-10q-14 0 -30.5 -5t-28.5 -14.5t-18.5 -26.5t-11.5 -43l-31 -156q-6 -31 -13 -49q-11 -27 -31 -46q-28 -26 -70 -32q37 -8 53.5 -27.5t16.5 -55.5q0 -19 -5 -46l-31 -156q-4 -16 -4.5 -20t-0.5 -17q0 -20 9 -32q15 -20 51 -20h10l-12 -60h-31
q-22 0 -42.5 5.5t-35.5 20.5q-9 8 -16 24.5t-7 41.5q0 9 2 20l4 22l31 160q4 20 4 44q0 32 -26 52q-10 8 -19 10.5t-19 2.5l11 60q21 0 38.5 9.5t31.5 25t21.5 35t11.5 39.5l32 160q12 55 22 72.5t37 35.5q16 11 37.5 18.5t50.5 7.5h31z" />
    <glyph glyph-name="bar" unicode="|" horiz-adv-x="672" 
d="M368 0h-64v740h64v-740z" />
    <glyph glyph-name="braceright" unicode="}" horiz-adv-x="351" 
d="M310 337l-11 -60q-21 0 -38.5 -9.5t-31.5 -25t-21.5 -35t-11.5 -39.5l-32 -160q-12 -55 -22 -72.5t-37 -35.5q-16 -11 -37.5 -18.5t-50.5 -7.5h-31l12 60h10q14 0 30.5 5t26.5 13q14 11 22 32q5 13 10 39l31 156q6 31 13 49q11 27 31 46q28 26 70 32q-37 8 -53.5 27.5
t-16.5 55.5q0 19 5 46l31 156q4 16 4.5 20t0.5 17q0 20 -9 32q-15 20 -51 20h-10l12 60h31q22 0 42.5 -5.5t35.5 -20.5q9 -8 16 -24.5t7 -41.5q0 -9 -2 -20l-4 -22l-31 -160q-4 -20 -4 -44q0 -32 26 -52q10 -8 19 -10.5t19 -2.5z" />
    <glyph glyph-name="asciitilde" unicode="~" horiz-adv-x="606" 
d="M566 344q-56 -111 -142 -111q-26 0 -57 11q-19 7 -74 32q-34 15 -53.5 20.5t-34.5 5.5q-28 0 -52 -19q-31 -24 -50 -71l-41 48q56 118 143 118q15 0 33.5 -3.5t48.5 -16.5l62 -28q50 -22 76 -22q35 0 65 32q18 19 34 51z" />
    <glyph glyph-name="c128" horiz-adv-x="700" 
d="M668 242q0 -69 -30 -121q-22 -39 -60 -67q-31 -23 -69 -36q-51 -18 -113 -18h-95l13 67h89q35 0 63 7q40 10 69 34q25 20 41.5 52t16.5 78q0 29 -6 48q-10 33 -37 56q-22 19 -50.5 26t-62.5 7h-172l-73 -375h-74l131 673h-160l13 67h474l-13 -67h-240l-45 -231h164
q72 0 109 -14t64 -42.5t40 -65.5t13 -78z" />
    <glyph glyph-name="c129" horiz-adv-x="460" 
d="M529 894l-215 -114l-31 56l215 116zM547 740l-13 -67h-305l-131 -673h-74l144 740h379z" />
    <glyph glyph-name="c141" horiz-adv-x="600" 
d="M579 894l-215 -114l-31 56l215 116zM674 740l-362 -361l222 -379h-92l-219 379l355 361h96zM242 740l-144 -740h-74l144 740h74z" />
    <glyph glyph-name="c142" horiz-adv-x="720" 
d="M662 278q0 -29 -6 -59l-42 -219h-74l42 219q3 15 4.5 27.5t1.5 23.5q0 31 -9.5 50.5t-23.5 30.5t-35 16q-32 8 -89 8h-166l-73 -375h-74l131 673h-160l13 67h474l-13 -67h-240l-45 -231h166q62 0 98.5 -9t60.5 -25.5t39 -43.5q20 -36 20 -86z" />
    <glyph glyph-name="c143" horiz-adv-x="680" 
d="M696 740l-144 -740h-227l-37 -192h-74l37 192h-227l144 740h74l-131 -673h380l131 673h74z" />
    <glyph glyph-name="c144" horiz-adv-x="610" 
d="M552 319q0 -37 -7 -71l-40 -206q-18 -92 -51 -140q-65 -94 -199 -94l13 71q81 0 123 59q27 37 40 104l40 206q7 32 7 69q0 60 -30 96q-33 40 -96 40q-44 0 -79 -13.5t-62 -37.5q-39 -34 -57 -81q-9 -22 -21 -84l-46 -237h-74l119 612h-100l13 67h100l12 61h74l-12 -61
h286l-13 -67h-286l-34 -172q34 33 71 52q55 28 119 28q39 0 73 -11t62 -38q24 -24 37 -55q18 -42 18 -97z" />
    <glyph glyph-name="c157" horiz-adv-x="500" 
d="M495 727l-215 -114l-31 56l215 116zM534 547l-268 -270l179 -277h-91l-176 277l261 270h95zM193 547l-106 -547h-74l106 547h74z" />
    <glyph glyph-name="c158" horiz-adv-x="610" 
d="M552 319q0 -37 -7 -71l-48 -248h-74l48 248q7 32 7 69q0 60 -30 96q-33 40 -96 40q-44 0 -79 -13.5t-62 -37.5q-39 -34 -57 -81q-9 -22 -21 -84l-46 -237h-74l119 612h-100l13 67h100l12 61h74l-12 -61h286l-13 -67h-286l-34 -172q34 33 71 52q55 28 119 28q39 0 73 -11
t62 -38q24 -24 37 -55q18 -42 18 -97z" />
    <glyph glyph-name="nonbreakingspace" unicode="&#xa0;" horiz-adv-x="500" 
 />
    <glyph glyph-name="exclamdown" unicode="&#xa1;" horiz-adv-x="620" 
d="M604 920q-15 -68 -69.5 -104t-129.5 -36q-84 0 -125 42q-36 37 -36 98h67q-4 -37 22 -59t75 -22t84 20.5t45 60.5h67zM708 740l-460 -740h-84l120 188l-184 552h88l150 -467l286 467h84z" />
    <glyph glyph-name="cent" unicode="&#xa2;" horiz-adv-x="536" 
d="M498 740q-15 -57 -58.5 -91.5t-104.5 -34.5q-60 0 -100.5 33t-40.5 93h63q0 -34 22 -51.5t57 -17.5q75 0 99 69h63zM585 547l-445 -739h-87l136 221l-127 518h91l96 -425l249 425h87z" />
    <glyph glyph-name="sterling" unicode="&#xa3;" horiz-adv-x="482" 
d="M498 740l-101 -518q-12 -61 -20 -85q-14 -44 -41 -76q-35 -42 -87 -60q-40 -14 -89 -14q-41 0 -70 10q-38 13 -63 44q-16 20 -25.5 47.5t-9.5 60.5l1 26h74l-1 -23q0 -44 26 -71t74 -27q37 0 64.5 13t46 35t30.5 57q8 22 16 63l101 518h74z" />
    <glyph glyph-name="currency" unicode="&#xa4;" 
d="M538 295q0 -34 -9 -65q-12 -40 -39 -78l43 -42l-52 -53l-44 43q-35 -26 -76 -38t-79 -12q-40 0 -75.5 12.5t-69.5 37.5l-44 -43l-52 53l43 42q-28 39 -40 83q-8 30 -8 65q0 38 7 66q11 45 41 85l-43 43l52 53l44 -43q27 20 55 31q45 18 99 18q34 0 70.5 -10.5t75.5 -38.5
l44 43l52 -53l-43 -43q28 -37 38 -75.5t10 -80.5zM473 303q0 76 -52.5 129.5t-129.5 53.5q-80 0 -135 -54t-55 -132q0 -76 53.5 -130.5t130.5 -54.5q78 0 133 55t55 133z" />
    <glyph glyph-name="yen" unicode="&#xa5;" horiz-adv-x="460" 
d="M568 861l-36 -188h-303l-131 -673h-74l144 740h303l23 121h74z" />
    <glyph glyph-name="brokenbar" unicode="&#xa6;" horiz-adv-x="672" 
d="M368 444h-64v296h64v-296zM368 0h-64v296h64v-296z" />
    <glyph glyph-name="section" unicode="&#xa7;" horiz-adv-x="615" 
d="M554 638v-19q0 -7 -1 -11h-70l1 16q0 22 -17 39q-27 26 -87 26q-74 0 -104 -41q-19 -26 -19 -58q0 -33 23 -58q15 -16 44 -32l114 -63q39 -21 62 -47q34 -38 34 -89q0 -44 -22 -81q-27 -46 -84 -81q20 -19 29 -40t9 -52q0 -37 -13.5 -67.5t-33.5 -52.5q-35 -38 -86 -54
q-38 -12 -86 -12q-74 0 -126 41q-56 44 -56 125v15.5t4 22.5h70q-4 -15 -4 -33q0 -47 32.5 -77t92.5 -30q62 0 97 34.5t35 77.5q0 38 -28 65q-14 13 -55 38l-133 79q-70 41 -70 119q0 45 25 82q31 46 90 71q-14 15 -24 35q-14 29 -14 60q0 41 18.5 75.5t49.5 55.5
q22 15 56.5 25.5t85.5 10.5q77 0 121 -35q40 -32 40 -80zM460 292q0 29 -19 51q-13 16 -36 28l-148 83q-36 -15 -56.5 -44.5t-20.5 -65.5q0 -26 12 -44t34 -30l160 -92q35 18 54.5 49t19.5 65z" />
    <glyph glyph-name="dieresis" unicode="&#xa8;" horiz-adv-x="536" 
d="M532 906l-24 -126h-74l24 126h74zM358 906l-24 -126h-74l24 126h74zM574 740l-13 -67h-332l-52 -267h321l-13 -67h-321l-53 -272h332l-13 -67h-406l144 740h406z" />
    <glyph glyph-name="copyright" unicode="&#xa9;" horiz-adv-x="747" 
d="M766 370q0 -159 -111 -271t-270 -112t-271 112t-112 271q0 158 112.5 270.5t270.5 112.5q159 0 270 -112t111 -271zM720 370q0 141 -97 239t-238 98t-239 -98t-98 -239t98 -239t239 -98q140 0 237.5 98.5t97.5 238.5zM583 270q-40 -72 -110 -101q-41 -17 -85 -17
q-98 0 -161.5 60.5t-63.5 160.5q0 95 63 157t159 62q71 0 121 -31t75 -86h-55q-27 43 -71 60q-29 11 -70 11q-85 0 -132 -58q-40 -49 -40 -115q0 -77 49 -126t126 -49q44 0 80 18.5t60 53.5h55z" />
    <glyph glyph-name="ordfeminine" unicode="&#xaa;" horiz-adv-x="813" 
d="M812 551h-84q-34 80 -116 113q-55 22 -126 22q-74 0 -127 -18q-66 -22 -120 -76q-29 -29 -51 -66q-34 -56 -44 -120h435l-13 -67h-430q0 -66 21 -120q18 -46 49.5 -80t76.5 -56q61 -29 142 -29q83 0 148 32q74 36 115 107h88q-44 -90 -121 -141q-58 -39 -135 -55
q-48 -10 -97 -10q-84 0 -143 19q-80 26 -137 89q-43 48 -62 105t-19 124q0 98 34 179t94 139q69 66 157 92q64 19 152 19q89 0 155 -27q118 -48 158 -175z" />
    <glyph glyph-name="guillemotleft" unicode="&#xab;" horiz-adv-x="425" 
d="M423 469l-133 -172l64 -172l-60 -24l-74 200l151 199zM248 469l-133 -172l64 -172l-60 -24l-74 200l151 199z" />
    <glyph glyph-name="logicalnot" unicode="&#xac;" horiz-adv-x="606" 
d="M563 166h-76v194h-428v76h504v-270z" />
    <glyph glyph-name="minus" unicode="&#xad;" horiz-adv-x="332" 
d="M317 334l-13 -67h-271l13 67h271z" />
    <glyph glyph-name="registered" unicode="&#xae;" horiz-adv-x="747" 
d="M766 370q0 -159 -111 -271t-270 -112t-271 112t-112 271q0 158 112.5 270.5t270.5 112.5q159 0 270 -112t111 -271zM720 370q0 141 -97 239t-238 98t-239 -98t-98 -239t98 -239t239 -98q140 0 237.5 98.5t97.5 238.5zM556 444q0 -52 -36.5 -89.5t-91.5 -37.5l122 -161
h-60l-150 201h39q72 0 104 30q23 22 23 59q0 40 -24 62q-31 29 -103 29h-76v-381h-50v427h133q95 0 138 -48q32 -36 32 -91z" />
    <glyph glyph-name="macron" unicode="&#xaf;" horiz-adv-x="240" 
d="M343 906l-24 -126h-74l24 126h74zM223 906l-24 -126h-74l24 126h74zM251 740l-144 -740h-74l144 740h74z" />
    <glyph glyph-name="degree" unicode="&#xb0;" horiz-adv-x="400" 
d="M410 589q0 -62 -44 -106t-106 -44t-106 44t-44 106t44 106t106 44t106 -44t44 -106zM370 589q0 45 -32.5 77.5t-78.5 32.5q-45 0 -77 -32t-32 -78t32 -78t78 -32q45 0 77.5 31.5t32.5 78.5z" />
    <glyph glyph-name="plusminus" unicode="&#xb1;" horiz-adv-x="606" 
d="M566 316h-214v-164h-76v164h-214v76h214v162h76v-162h214v-76zM566 0h-504v76h504v-76z" />
    <glyph glyph-name="twosuperior" unicode="&#xb2;" horiz-adv-x="226" 
d="M242 740l-144 -740h-74l144 740h74z" />
    <glyph glyph-name="threesuperior" unicode="&#xb3;" horiz-adv-x="200" 
d="M231 740l-25 -126h-74l25 126h74zM193 547l-106 -547h-74l106 547h74z" />
    <glyph glyph-name="acute" unicode="&#xb4;" horiz-adv-x="360" 
d="M426 660l-35 -180h-211l-93 -480h-74l106 547h211l22 113h74z" />
    <glyph glyph-name="mu" unicode="&#xb5;" horiz-adv-x="608" 
d="M601 547l-106 -547h-70l15 75q-41 -52 -100 -73q-42 -15 -91 -15q-44 0 -77 14q-49 20 -71 68l-51 -261h-74l143 739h74l-57 -295q-2 -11 -4 -26.5t-2 -28.5q0 -31 7.5 -55.5t29.5 -46.5q36 -37 94 -37q68 0 126 46q37 30 58 70q17 32 25 78l57 295h74z" />
    <glyph glyph-name="paragraph" unicode="&#xb6;" horiz-adv-x="564" 
d="M586 740l-169 -866h-74l156 799h-114l-156 -799h-74l94 482q-64 0 -110.5 48.5t-46.5 121.5q0 56 24 101q21 40 59.5 67t87 36.5t92.5 9.5h231z" />
    <glyph glyph-name="periodcentered" unicode="&#xb7;" horiz-adv-x="277" 
d="M198 364l-24 -126h-74l24 126h74z" />
    <glyph glyph-name="periodcentered" unicode="&#x2219;" horiz-adv-x="277" 
d="M198 364l-24 -126h-74l24 126h74z" />
    <glyph glyph-name="cedilla" unicode="&#xb8;" horiz-adv-x="650" 
d="M515 740l-25 -126h-74l25 126h74zM368 740l-25 -126h-74l25 126h74zM601 301v-33q-3 -15 -4 -21h-483q0 -93 55 -146q27 -26 66 -38q30 -9 65 -9q43 0 78.5 12.5t61 32t42.5 41.5q13 17 22 38h80q-31 -80 -94 -129q-44 -35 -101 -50q-45 -12 -94 -12q-51 0 -88 12
q-54 17 -96 63q-66 72 -66 177q0 71 25.5 136t74.5 109q36 32 85 52q60 24 134 24q50 0 89 -13q50 -17 85 -56q30 -33 46.5 -80.5t16.5 -109.5zM522 314q0 33 -10.5 64t-29.5 55q-26 33 -58.5 46.5t-74.5 13.5q-51 0 -89 -15t-68 -43q-19 -18 -34 -41q-24 -37 -33 -80h397z
" />
    <glyph glyph-name="onesuperior" unicode="&#xb9;" horiz-adv-x="1060" 
d="M1096 610q0 -76 -48 -123t-123 -47q-61 0 -94.5 38.5t-33.5 91.5q0 67 41 115q47 55 130 55q64 0 98 -40q30 -35 30 -90zM1039 367l-13 -67h-272l13 67h272zM756 740l-144 -740h-74l-314 650l-126 -650h-74l144 740h96l298 -614l120 614h74zM1040 605q0 38 -21.5 60.5
t-60.5 22.5q-47 0 -76 -31t-29 -82q0 -38 21.5 -60.5t60.5 -22.5q45 0 75 31t30 82z" />
    <glyph glyph-name="ordmasculine" unicode="&#xba;" horiz-adv-x="647" 
d="M615 381h-80q-16 57 -66 84.5t-113 27.5q-84 0 -146.5 -48.5t-81.5 -130.5h318l-13 -67h-314q0 -87 56 -140t145 -53q63 0 115.5 28t77.5 78h82q-29 -68 -85 -111q-81 -62 -206 -62q-114 0 -184 63q-75 67 -75 185q0 131 77 221q89 104 247 104q119 0 184 -63
q48 -46 62 -116z" />
    <glyph glyph-name="guillemotright" unicode="&#xbb;" horiz-adv-x="425" 
d="M397 300l-151 -199l-52 31l133 172l-64 172l60 24zM222 300l-150 -199l-53 31l133 172l-64 172l60 24z" />
    <glyph glyph-name="onequarter" unicode="&#xbc;" horiz-adv-x="203" 
d="M234 740l-25 -126h-74l25 126h74zM196 547l-98 -505q-12 -62 -24 -95q-22 -62 -59 -95q-26 -23 -62.5 -34.5t-74.5 -11.5h-16q-12 2 -17 2l13 71q6 -1 21 -1q26 0 49.5 7t41.5 25t30.5 47t23.5 85l98 505h74z" />
    <glyph glyph-name="onehalf" unicode="&#xbd;" horiz-adv-x="498" 
d="M519 578l-2 -25h-74l2 27q0 22 -6 42t-24 37t-40 22t-47 5q-26 0 -50.5 -5t-46.5 -22q-47 -36 -47 -95q0 -57 43 -99q24 -23 78 -52q79 -41 109 -72q52 -54 52 -141q0 -48 -14 -84q-17 -44 -59 -77q-38 -29 -90 -42q-41 -10 -85 -10t-74 8q-41 11 -71 36q-62 53 -62 153
l2 23h74l-2 -28q0 -30 8.5 -52t30.5 -41.5t46.5 -25.5t53.5 -6q74 0 119 34q49 38 49 104q0 74 -58 119q-13 10 -31.5 20.5t-37.5 19.5q-69 35 -103 71q-52 55 -52 136q0 43 12.5 75t46 63t74 44t88.5 13q41 0 78 -9.5t64 -35.5q18 -17 30 -45q16 -38 16 -85z" />
    <glyph glyph-name="threequarters" unicode="&#xbe;" horiz-adv-x="388" 
d="M381 432l-2 -21h-74l2 19q0 40 -32 55q-17 8 -43 8q-45 0 -68 -26t-23 -63t31 -60q16 -12 64 -31.5t72 -42.5q41 -39 41 -103q0 -47 -17.5 -82t-45.5 -58q-24 -19 -55.5 -29.5t-69.5 -10.5q-45 0 -76.5 14t-49.5 35q-34 39 -34 102l2 23h74l-2 -19q0 -37 20 -60
q24 -28 72 -28q51 0 79.5 29.5t28.5 73.5t-37 71q-11 8 -27.5 15.5t-25.5 11.5q-68 29 -95 67q-23 32 -23 78q0 35 14 66.5t44 55.5q47 38 117 38q37 0 62.5 -9.5t42.5 -25.5q34 -32 34 -93z" />
    <glyph glyph-name="questiondown" unicode="&#xbf;" horiz-adv-x="260" 
d="M328 740l-25 -126h-74l25 126h74zM194 740l-25 -126h-74l25 126h74zM223 547l-106 -547h-74l106 547h74z" />
    <glyph glyph-name="Agrave" unicode="&#xc0;" horiz-adv-x="740" 
d="M679 0h-80l-58 248h-341l-155 -248h-84l463 740h82zM525 315l-77 339l-206 -339h283z" />
    <glyph glyph-name="Agrave" unicode="&#x410;" horiz-adv-x="740" 
d="M679 0h-80l-58 248h-341l-155 -248h-84l463 740h82zM525 315l-77 339l-206 -339h283z" />
    <glyph glyph-name="Aacute" unicode="&#xc1;" horiz-adv-x="580" 
d="M570 740l-13 -67h-328l-47 -239h140q70 0 108 -14t66 -41q22 -22 35 -51q17 -38 17 -86q0 -69 -30 -121q-23 -39 -60 -67q-31 -23 -69 -36q-51 -18 -113 -18h-252l144 740h402zM472 234q0 30 -6 49q-10 32 -37 53.5t-62.5 26t-50.5 4.5h-147l-58 -300h171q35 0 63 7
q40 10 68 33t43.5 53t15.5 74z" />
    <glyph glyph-name="Aacute" unicode="&#x411;" horiz-adv-x="580" 
d="M570 740l-13 -67h-328l-47 -239h140q70 0 108 -14t66 -41q22 -22 35 -51q17 -38 17 -86q0 -69 -30 -121q-23 -39 -60 -67q-31 -23 -69 -36q-51 -18 -113 -18h-252l144 740h402zM472 234q0 30 -6 49q-10 32 -37 53.5t-62.5 26t-50.5 4.5h-147l-58 -300h171q35 0 63 7
q40 10 68 33t43.5 53t15.5 74z" />
    <glyph glyph-name="Acircumflex" unicode="&#xc2;" horiz-adv-x="574" 
d="M564 572q0 -62 -34.5 -111t-95.5 -70q52 -20 77.5 -60t25.5 -97q0 -64 -27 -111t-75 -77q-42 -26 -93.5 -36t-106.5 -10h-211l144 740h183q51 0 86.5 -6.5t65.5 -29.5q25 -19 41 -49q20 -38 20 -83zM490 566q0 26 -10 47t-27 35q-24 19 -59.5 22t-55.5 3h-109l-49 -250
h119q35 0 65.5 5t56.5 19q35 20 52 51.5t17 67.5zM463 228q0 30 -9 53q-12 31 -42 51q-22 15 -51.5 19.5t-66.5 4.5h-127l-56 -289h137q44 0 68 4q45 7 76.5 27.5t48.5 48.5q22 35 22 81z" />
    <glyph glyph-name="Acircumflex" unicode="&#x412;" horiz-adv-x="574" 
d="M564 572q0 -62 -34.5 -111t-95.5 -70q52 -20 77.5 -60t25.5 -97q0 -64 -27 -111t-75 -77q-42 -26 -93.5 -36t-106.5 -10h-211l144 740h183q51 0 86.5 -6.5t65.5 -29.5q25 -19 41 -49q20 -38 20 -83zM490 566q0 26 -10 47t-27 35q-24 19 -59.5 22t-55.5 3h-109l-49 -250
h119q35 0 65.5 5t56.5 19q35 20 52 51.5t17 67.5zM463 228q0 30 -9 53q-12 31 -42 51q-22 15 -51.5 19.5t-66.5 4.5h-127l-56 -289h137q44 0 68 4q45 7 76.5 27.5t48.5 48.5q22 35 22 81z" />
    <glyph glyph-name="Atilde" unicode="&#xc3;" horiz-adv-x="460" 
d="M547 740l-13 -67h-305l-131 -673h-74l144 740h379z" />
    <glyph glyph-name="Atilde" unicode="&#x413;" horiz-adv-x="460" 
d="M547 740l-13 -67h-305l-131 -673h-74l144 740h379z" />
    <glyph glyph-name="Adieresis" unicode="&#xc4;" horiz-adv-x="780" 
d="M736 67l-40 -207h-74l27 140h-618l-27 -140h-74l40 207h67l405 673h82l145 -673h67zM589 67l-121 587l-343 -587h464z" />
    <glyph glyph-name="Adieresis" unicode="&#x414;" horiz-adv-x="780" 
d="M736 67l-40 -207h-74l27 140h-618l-27 -140h-74l40 207h67l405 673h82l145 -673h67zM589 67l-121 587l-343 -587h464z" />
    <glyph glyph-name="Aring" unicode="&#xc5;" horiz-adv-x="536" 
d="M574 740l-13 -67h-332l-52 -267h321l-13 -67h-321l-53 -272h332l-13 -67h-406l144 740h406z" />
    <glyph glyph-name="Aring" unicode="&#x415;" horiz-adv-x="536" 
d="M574 740l-13 -67h-332l-52 -267h321l-13 -67h-321l-53 -272h332l-13 -67h-406l144 740h406z" />
    <glyph glyph-name="AE" unicode="&#xc6;" horiz-adv-x="920" 
d="M989 740l-343 -354l219 -386h-92l-218 386l338 354h96zM592 740l-144 -740h-74l144 740h74zM417 386l-362 -386h-100l373 393l-208 347h92z" />
    <glyph glyph-name="AE" unicode="&#x416;" horiz-adv-x="920" 
d="M989 740l-343 -354l219 -386h-92l-218 386l338 354h96zM592 740l-144 -740h-74l144 740h74zM417 386l-362 -386h-100l373 393l-208 347h92z" />
    <glyph glyph-name="Ccedilla" unicode="&#xc7;" horiz-adv-x="540" 
d="M550 575q0 -45 -13 -78t-46 -63q-16 -15 -37 -26.5t-43 -19.5q20 -7 33.5 -17t29.5 -32.5t22.5 -48.5t6.5 -56q0 -54 -16 -97q-20 -53 -65 -91q-39 -33 -85.5 -46t-100.5 -13q-43 0 -73 7q-46 11 -81 39t-50 65.5t-15 82.5v18.5t4 26.5h74q-4 -19 -4 -41q0 -29 8.5 -52.5
t30 -43t51 -27.5t60.5 -8q38 0 64 7q37 10 65.5 34.5t43.5 57.5t15 75q0 34 -9 56.5t-25 38.5q-21 21 -45.5 27t-57.5 6h-54l13 67h54q29 0 54 6q35 9 62.5 30.5t41 51t13.5 61.5q0 24 -8 45t-23 36t-38 24t-58 9q-45 0 -78 -12q-25 -9 -50 -28.5t-39 -46t-17 -52.5h-74
q8 52 33 93q20 32 51 57q39 31 85 43.5t97 12.5q45 0 74 -8q48 -13 78 -48q20 -23 30.5 -53t10.5 -69z" />
    <glyph glyph-name="Ccedilla" unicode="&#x417;" horiz-adv-x="540" 
d="M550 575q0 -45 -13 -78t-46 -63q-16 -15 -37 -26.5t-43 -19.5q20 -7 33.5 -17t29.5 -32.5t22.5 -48.5t6.5 -56q0 -54 -16 -97q-20 -53 -65 -91q-39 -33 -85.5 -46t-100.5 -13q-43 0 -73 7q-46 11 -81 39t-50 65.5t-15 82.5v18.5t4 26.5h74q-4 -19 -4 -41q0 -29 8.5 -52.5
t30 -43t51 -27.5t60.5 -8q38 0 64 7q37 10 65.5 34.5t43.5 57.5t15 75q0 34 -9 56.5t-25 38.5q-21 21 -45.5 27t-57.5 6h-54l13 67h54q29 0 54 6q35 9 62.5 30.5t41 51t13.5 61.5q0 24 -8 45t-23 36t-38 24t-58 9q-45 0 -78 -12q-25 -9 -50 -28.5t-39 -46t-17 -52.5h-74
q8 52 33 93q20 32 51 57q39 31 85 43.5t97 12.5q45 0 74 -8q48 -13 78 -48q20 -23 30.5 -53t10.5 -69z" />
    <glyph glyph-name="Egrave" unicode="&#xc8;" horiz-adv-x="740" 
d="M756 740l-144 -740h-74l120 623l-556 -623h-78l144 740h74l-121 -623l557 623h78z" />
    <glyph glyph-name="Egrave" unicode="&#x418;" horiz-adv-x="740" 
d="M756 740l-144 -740h-74l120 623l-556 -623h-78l144 740h74l-121 -623l557 623h78z" />
    <glyph glyph-name="Eacute" unicode="&#xc9;" horiz-adv-x="740" 
d="M676 920q-15 -68 -69.5 -104t-129.5 -36q-84 0 -125 42q-36 37 -36 98h72q-3 -33 18.5 -55.5t73.5 -22.5q43 0 74 16q39 20 50 62h72zM756 740l-144 -740h-74l120 623l-556 -623h-78l144 740h74l-121 -623l557 623h78z" />
    <glyph glyph-name="Eacute" unicode="&#x419;" horiz-adv-x="740" 
d="M676 920q-15 -68 -69.5 -104t-129.5 -36q-84 0 -125 42q-36 37 -36 98h72q-3 -33 18.5 -55.5t73.5 -22.5q43 0 74 16q39 20 50 62h72zM756 740l-144 -740h-74l120 623l-556 -623h-78l144 740h74l-121 -623l557 623h78z" />
    <glyph glyph-name="Ecircumflex" unicode="&#xca;" horiz-adv-x="600" 
d="M674 740l-362 -361l222 -379h-92l-219 379l355 361h96zM242 740l-144 -740h-74l144 740h74z" />
    <glyph glyph-name="Ecircumflex" unicode="&#x41a;" horiz-adv-x="600" 
d="M674 740l-362 -361l222 -379h-92l-219 379l355 361h96zM242 740l-144 -740h-74l144 740h74z" />
    <glyph glyph-name="Edieresis" unicode="&#xcb;" horiz-adv-x="700" 
d="M641 0h-80l-134 640l-384 -640h-84l450 740h70z" />
    <glyph glyph-name="Edieresis" unicode="&#x41b;" horiz-adv-x="700" 
d="M641 0h-80l-134 640l-384 -640h-84l450 740h70z" />
    <glyph glyph-name="Igrave" unicode="&#xcc;" horiz-adv-x="919" 
d="M935 740l-144 -740h-74l128 657l-407 -657h-62l-150 657l-128 -657h-74l144 740h115l146 -628l391 628h115z" />
    <glyph glyph-name="Igrave" unicode="&#x41c;" horiz-adv-x="919" 
d="M935 740l-144 -740h-74l128 657l-407 -657h-62l-150 657l-128 -657h-74l144 740h115l146 -628l391 628h115z" />
    <glyph glyph-name="Iacute" unicode="&#xcd;" horiz-adv-x="683" 
d="M699 740l-144 -740h-74l67 347h-383l-67 -347h-74l144 740h74l-64 -326h383l64 326h74z" />
    <glyph glyph-name="Iacute" unicode="&#x41d;" horiz-adv-x="683" 
d="M699 740l-144 -740h-74l67 347h-383l-67 -347h-74l144 740h74l-64 -326h383l64 326h74z" />
    <glyph glyph-name="Icircumflex" unicode="&#xce;" horiz-adv-x="869" 
d="M847 412q0 -97 -35 -177t-98 -138q-70 -65 -162 -91q-66 -19 -148 -19q-79 0 -138 21q-71 25 -122 84q-37 41 -58 98q-24 64 -24 136q0 89 35.5 172.5t104.5 145.5q64 58 141.5 83.5t163.5 25.5q79 0 135 -20q70 -25 123 -86q46 -53 66 -118q16 -52 16 -117zM773 412
q0 62 -21 113q-16 40 -47 75q-39 44 -88 65t-118 21q-66 0 -123 -20q-70 -25 -126.5 -79t-85 -122.5t-28.5 -138.5q0 -53 16 -99t53 -88q41 -47 91.5 -66t117.5 -19q73 0 130 21q64 24 120 78q109 106 109 259z" />
    <glyph glyph-name="Icircumflex" unicode="&#x41e;" horiz-adv-x="869" 
d="M847 412q0 -97 -35 -177t-98 -138q-70 -65 -162 -91q-66 -19 -148 -19q-79 0 -138 21q-71 25 -122 84q-37 41 -58 98q-24 64 -24 136q0 89 35.5 172.5t104.5 145.5q64 58 141.5 83.5t163.5 25.5q79 0 135 -20q70 -25 123 -86q46 -53 66 -118q16 -52 16 -117zM773 412
q0 62 -21 113q-16 40 -47 75q-39 44 -88 65t-118 21q-66 0 -123 -20q-70 -25 -126.5 -79t-85 -122.5t-28.5 -138.5q0 -53 16 -99t53 -88q41 -47 91.5 -66t117.5 -19q73 0 130 21q64 24 120 78q109 106 109 259z" />
    <glyph glyph-name="Idieresis" unicode="&#xcf;" horiz-adv-x="680" 
d="M696 740l-144 -740h-74l131 673h-380l-131 -673h-74l144 740h528z" />
    <glyph glyph-name="Idieresis" unicode="&#x41f;" horiz-adv-x="680" 
d="M696 740l-144 -740h-74l131 673h-380l-131 -673h-74l144 740h528z" />
    <glyph glyph-name="Eth" unicode="&#xd0;" horiz-adv-x="592" 
d="M616 541q0 -70 -28 -121q-22 -40 -65.5 -71t-109.5 -44q-40 -8 -87 -8h-170l-58 -297h-74l144 740h222q48 0 77 -6q50 -11 86 -40.5t51 -73.5q12 -35 12 -79zM542 539q0 35 -11 60t-30 42q-22 20 -52 26t-69 6h-151l-60 -309h169q87 0 140 39q29 22 46.5 56.5t17.5 79.5z
" />
    <glyph glyph-name="Eth" unicode="&#x420;" horiz-adv-x="592" 
d="M616 541q0 -70 -28 -121q-22 -40 -65.5 -71t-109.5 -44q-40 -8 -87 -8h-170l-58 -297h-74l144 740h222q48 0 77 -6q50 -11 86 -40.5t51 -73.5q12 -35 12 -79zM542 539q0 35 -11 60t-30 42q-22 20 -52 26t-69 6h-151l-60 -309h169q87 0 140 39q29 22 46.5 56.5t17.5 79.5z
" />
    <glyph glyph-name="Ntilde" unicode="&#xd1;" horiz-adv-x="813" 
d="M812 551h-84q-34 80 -116 113q-55 22 -126 22q-74 0 -127 -18q-66 -22 -119 -75t-78.5 -120.5t-25.5 -141.5q0 -61 20 -112q17 -44 49.5 -79t77.5 -57q61 -29 142 -29q83 0 148 32q74 36 115 107h88q-44 -90 -121 -141q-58 -39 -135 -55q-48 -10 -96 -10q-86 0 -145 19
q-79 25 -136 89q-43 48 -62 105t-19 124q0 98 34 179t94 139q69 66 157 92q65 19 156 19q120 0 198.5 -51t110.5 -151z" />
    <glyph glyph-name="Ntilde" unicode="&#x421;" horiz-adv-x="813" 
d="M812 551h-84q-34 80 -116 113q-55 22 -126 22q-74 0 -127 -18q-66 -22 -119 -75t-78.5 -120.5t-25.5 -141.5q0 -61 20 -112q17 -44 49.5 -79t77.5 -57q61 -29 142 -29q83 0 148 32q74 36 115 107h88q-44 -90 -121 -141q-58 -39 -135 -55q-48 -10 -96 -10q-86 0 -145 19
q-79 25 -136 89q-43 48 -62 105t-19 124q0 98 34 179t94 139q69 66 157 92q65 19 156 19q120 0 198.5 -51t110.5 -151z" />
    <glyph glyph-name="Ograve" unicode="&#xd2;" horiz-adv-x="426" 
d="M513 740l-13 -67h-169l-131 -673h-74l131 673h-169l13 67h412z" />
    <glyph glyph-name="Ograve" unicode="&#x422;" horiz-adv-x="426" 
d="M513 740l-13 -67h-169l-131 -673h-74l131 673h-169l13 67h412z" />
    <glyph glyph-name="Oacute" unicode="&#xd3;" horiz-adv-x="620" 
d="M708 740l-460 -740h-84l120 188l-184 552h88l150 -467l286 467h84z" />
    <glyph glyph-name="Oacute" unicode="&#x423;" horiz-adv-x="620" 
d="M708 740l-460 -740h-84l120 188l-184 552h88l150 -467l286 467h84z" />
    <glyph glyph-name="Ocircumflex" unicode="&#xd4;" horiz-adv-x="820" 
d="M798 429q0 -113 -49 -195q-36 -59 -97 -101q-49 -33 -114 -49.5t-133 -16.5l-20 -104h-74l20 104q-54 0 -104 19.5t-85.5 52t-54.5 75.5q-25 56 -25 131q0 113 49 195q36 59 97 101q49 33 114 49.5t133 16.5l19 93h74l-19 -93q54 0 104 -19.5t85.5 -52t54.5 -75.5
q25 -56 25 -131zM724 429q0 51 -14.5 89t-41 64.5t-66.5 42t-85 15.5l-99 -506q56 0 107.5 14.5t90.5 43.5q49 38 78.5 100t29.5 137zM443 640q-56 0 -108.5 -14.5t-90.5 -43.5q-49 -37 -78.5 -100t-29.5 -137q0 -51 14.5 -89t42.5 -66q25 -25 65 -40.5t86 -15.5z" />
    <glyph glyph-name="Ocircumflex" unicode="&#x424;" horiz-adv-x="820" 
d="M798 429q0 -113 -49 -195q-36 -59 -97 -101q-49 -33 -114 -49.5t-133 -16.5l-20 -104h-74l20 104q-54 0 -104 19.5t-85.5 52t-54.5 75.5q-25 56 -25 131q0 113 49 195q36 59 97 101q49 33 114 49.5t133 16.5l19 93h74l-19 -93q54 0 104 -19.5t85.5 -52t54.5 -75.5
q25 -56 25 -131zM724 429q0 51 -14.5 89t-41 64.5t-66.5 42t-85 15.5l-99 -506q56 0 107.5 14.5t90.5 43.5q49 38 78.5 100t29.5 137zM443 640q-56 0 -108.5 -14.5t-90.5 -43.5q-49 -37 -78.5 -100t-29.5 -137q0 -51 14.5 -89t42.5 -66q25 -25 65 -40.5t86 -15.5z" />
    <glyph glyph-name="Otilde" unicode="&#xd5;" horiz-adv-x="609" 
d="M673 740l-303 -364l187 -376h-88l-151 314l-262 -314h-92l321 381l-172 359h86l138 -296l244 296h92z" />
    <glyph glyph-name="Otilde" unicode="&#x425;" horiz-adv-x="609" 
d="M673 740l-303 -364l187 -376h-88l-151 314l-262 -314h-92l321 381l-172 359h86l138 -296l244 296h92z" />
    <glyph glyph-name="Odieresis" unicode="&#xd6;" horiz-adv-x="720" 
d="M696 740l-131 -673h103l-40 -207h-74l27 140h-557l144 740h74l-131 -673h380l131 673h74z" />
    <glyph glyph-name="Odieresis" unicode="&#x426;" horiz-adv-x="720" 
d="M696 740l-131 -673h103l-40 -207h-74l27 140h-557l144 740h74l-131 -673h380l131 673h74z" />
    <glyph glyph-name="multiply" unicode="&#xd7;" horiz-adv-x="620" 
d="M636 740l-144 -740h-74l58 297h-163q-84 0 -133 21q-86 37 -86 135q0 14 1.5 30t5.5 37l42 220h74l-42 -220q-3 -16 -5 -30.5t-2 -28.5q0 -60 57 -83q34 -14 89 -14h175l73 376h74z" />
    <glyph glyph-name="multiply" unicode="&#x427;" horiz-adv-x="620" 
d="M636 740l-144 -740h-74l58 297h-163q-84 0 -133 21q-86 37 -86 135q0 14 1.5 30t5.5 37l42 220h74l-42 -220q-3 -16 -5 -30.5t-2 -28.5q0 -60 57 -83q34 -14 89 -14h175l73 376h74z" />
    <glyph glyph-name="Oslash" unicode="&#xd8;" horiz-adv-x="960" 
d="M976 740l-144 -740h-808l144 740h74l-131 -673h293l131 673h74l-131 -673h293l131 673h74z" />
    <glyph glyph-name="Oslash" unicode="&#x428;" horiz-adv-x="960" 
d="M976 740l-144 -740h-808l144 740h74l-131 -673h293l131 673h74l-131 -673h293l131 673h74z" />
    <glyph glyph-name="Ugrave" unicode="&#xd9;" horiz-adv-x="1000" 
d="M976 740l-131 -673h103l-40 -207h-74l27 140h-837l144 740h74l-131 -673h293l131 673h74l-131 -673h293l131 673h74z" />
    <glyph glyph-name="Ugrave" unicode="&#x429;" horiz-adv-x="1000" 
d="M976 740l-131 -673h103l-40 -207h-74l27 140h-837l144 740h74l-131 -673h293l131 673h74l-131 -673h293l131 673h74z" />
    <glyph glyph-name="Uacute" unicode="&#xda;" horiz-adv-x="680" 
d="M648 238q0 -67 -29 -117q-22 -39 -61 -67q-31 -23 -69 -36q-51 -18 -113 -18h-252l131 673h-167l13 67h241l-60 -306h140q70 0 108 -14t66 -41q22 -22 35 -52q17 -39 17 -89zM574 234q0 38 -11.5 61.5t-31.5 39t-48.5 24t-66.5 8.5h-147l-58 -300h171q46 0 77 11t56.5 31
t42 51t16.5 74z" />
    <glyph glyph-name="Uacute" unicode="&#x42a;" horiz-adv-x="680" 
d="M648 238q0 -67 -29 -117q-22 -39 -61 -67q-31 -23 -69 -36q-51 -18 -113 -18h-252l131 673h-167l13 67h241l-60 -306h140q70 0 108 -14t66 -41q22 -22 35 -52q17 -39 17 -89zM574 234q0 38 -11.5 61.5t-31.5 39t-48.5 24t-66.5 8.5h-147l-58 -300h171q46 0 77 11t56.5 31
t42 51t16.5 74z" />
    <glyph glyph-name="Ucircumflex" unicode="&#xdb;" horiz-adv-x="780" 
d="M796 740l-144 -740h-74l144 740h74zM548 238q0 -67 -29 -117q-22 -39 -61 -67q-31 -23 -69 -36q-51 -18 -113 -18h-252l144 740h74l-60 -306h140q70 0 108 -14t66 -41q22 -22 35 -52q17 -39 17 -89zM474 234q0 64 -40 97q-43 36 -122 36h-147l-58 -300h171
q89 0 142.5 45.5t53.5 121.5z" />
    <glyph glyph-name="Ucircumflex" unicode="&#x42b;" horiz-adv-x="780" 
d="M796 740l-144 -740h-74l144 740h74zM548 238q0 -67 -29 -117q-22 -39 -61 -67q-31 -23 -69 -36q-51 -18 -113 -18h-252l144 740h74l-60 -306h140q70 0 108 -14t66 -41q22 -22 35 -52q17 -39 17 -89zM474 234q0 64 -40 97q-43 36 -122 36h-147l-58 -300h171
q89 0 142.5 45.5t53.5 121.5z" />
    <glyph glyph-name="Udieresis" unicode="&#xdc;" horiz-adv-x="580" 
d="M548 238q0 -67 -29 -117q-22 -39 -61 -67q-31 -23 -69 -36q-51 -18 -113 -18h-252l144 740h74l-60 -306h140q70 0 108 -14t66 -41q22 -22 35 -52q17 -39 17 -89zM474 234q0 64 -39 97q-42 36 -119 36h-147l-58 -300h171q87 0 139.5 45.5t52.5 121.5z" />
    <glyph glyph-name="Udieresis" unicode="&#x42c;" horiz-adv-x="580" 
d="M548 238q0 -67 -29 -117q-22 -39 -61 -67q-31 -23 -69 -36q-51 -18 -113 -18h-252l144 740h74l-60 -306h140q70 0 108 -14t66 -41q22 -22 35 -52q17 -39 17 -89zM474 234q0 64 -39 97q-42 36 -119 36h-147l-58 -300h171q87 0 139.5 45.5t52.5 121.5z" />
    <glyph glyph-name="Yacute" unicode="&#xdd;" horiz-adv-x="813" 
d="M791 414q0 -98 -34 -178.5t-94 -138.5q-68 -65 -157 -91q-65 -19 -154 -19q-58 0 -106 12q-157 39 -205 194h88q32 -83 114 -117q53 -22 128 -22q69 0 123 18q67 22 120 75q36 36 61.5 83.5t36.5 108.5h-438l13 67h430q0 63 -19 111t-50 83q-43 47 -106 69
q-50 17 -108 17q-86 0 -157 -33.5t-112 -101.5h-88q50 97 138 148q94 54 219 54q80 0 140 -19q80 -26 136 -88q46 -51 66 -121q15 -52 15 -111z" />
    <glyph glyph-name="Yacute" unicode="&#x42d;" horiz-adv-x="813" 
d="M791 414q0 -98 -34 -178.5t-94 -138.5q-68 -65 -157 -91q-65 -19 -154 -19q-58 0 -106 12q-157 39 -205 194h88q32 -83 114 -117q53 -22 128 -22q69 0 123 18q67 22 120 75q36 36 61.5 83.5t36.5 108.5h-438l13 67h430q0 63 -19 111t-50 83q-43 47 -106 69
q-50 17 -108 17q-86 0 -157 -33.5t-112 -101.5h-88q50 97 138 148q94 54 219 54q80 0 140 -19q80 -26 136 -88q46 -51 66 -121q15 -52 15 -111z" />
    <glyph glyph-name="Thorn" unicode="&#xde;" horiz-adv-x="1080" 
d="M1058 416q0 -119 -50 -213q-31 -59 -82 -106q-69 -65 -160 -91q-65 -19 -145 -19q-79 0 -137 21q-70 25 -121 85q-81 95 -81 254h-117l-67 -347h-74l144 740h74l-64 -326h112q11 55 32 99q35 73 99 131t140 83.5t164 25.5q77 0 131 -20q69 -25 122 -87q46 -53 65 -118
q15 -50 15 -112zM984 408q0 60 -16.5 108t-47.5 84q-39 47 -91 66.5t-111 19.5q-80 0 -148 -29q-58 -25 -106 -71q-54 -52 -81 -120t-27 -140q0 -61 20 -112q16 -42 45 -75q40 -47 91 -66t114 -19q72 0 135.5 23t116 74.5t79.5 118t27 138.5z" />
    <glyph glyph-name="Thorn" unicode="&#x42e;" horiz-adv-x="1080" 
d="M1058 416q0 -119 -50 -213q-31 -59 -82 -106q-69 -65 -160 -91q-65 -19 -145 -19q-79 0 -137 21q-70 25 -121 85q-81 95 -81 254h-117l-67 -347h-74l144 740h74l-64 -326h112q11 55 32 99q35 73 99 131t140 83.5t164 25.5q77 0 131 -20q69 -25 122 -87q46 -53 65 -118
q15 -50 15 -112zM984 408q0 60 -16.5 108t-47.5 84q-39 47 -91 66.5t-111 19.5q-80 0 -148 -29q-58 -25 -106 -71q-54 -52 -81 -120t-27 -140q0 -61 20 -112q16 -42 45 -75q40 -47 91 -66t114 -19q72 0 135.5 23t116 74.5t79.5 118t27 138.5z" />
    <glyph glyph-name="germandbls" unicode="&#xdf;" horiz-adv-x="600" 
d="M616 740l-144 -740h-74l131 673h-149q-48 0 -84.5 -7t-71.5 -30q-45 -29 -66 -78q-16 -38 -16 -81q0 -37 14 -65q11 -22 30 -39q27 -24 64 -31t84 -7h59l-302 -335h-96l258 276q-36 0 -67 13.5t-57 37.5t-42 57q-19 40 -19 88q0 69 29 125t81 92q46 31 107 43q42 8 108 8
h223z" />
    <glyph glyph-name="germandbls" unicode="&#x42f;" horiz-adv-x="600" 
d="M616 740l-144 -740h-74l131 673h-149q-48 0 -84.5 -7t-71.5 -30q-45 -29 -66 -78q-16 -38 -16 -81q0 -37 14 -65q11 -22 30 -39q27 -24 64 -31t84 -7h59l-302 -335h-96l258 276q-36 0 -67 13.5t-57 37.5t-42 57q-19 40 -19 88q0 69 29 125t81 92q46 31 107 43q42 8 108 8
h223z" />
    <glyph glyph-name="agrave" unicode="&#xe0;" horiz-adv-x="683" 
d="M676 547l-105 -547h-70l13 66q-32 -35 -74 -54q-54 -25 -131 -25q-54 0 -95 12t-80.5 44.5t-61.5 77.5q-27 54 -27 125q0 83 34 149q27 53 75 93q41 34 96.5 53t123.5 19q55 0 102 -19q75 -30 107 -104l23 110h70zM552 299q0 91 -52.5 142.5t-139.5 51.5
q-104 0 -172.5 -68.5t-68.5 -176.5q0 -84 51.5 -139t143.5 -55q106 0 172 69t66 176z" />
    <glyph glyph-name="agrave" unicode="&#x430;" horiz-adv-x="683" 
d="M676 547l-105 -547h-70l13 66q-32 -35 -74 -54q-54 -25 -131 -25q-54 0 -95 12t-80.5 44.5t-61.5 77.5q-27 54 -27 125q0 83 34 149q27 53 75 93q41 34 96.5 53t123.5 19q55 0 102 -19q75 -30 107 -104l23 110h70zM552 299q0 91 -52.5 142.5t-139.5 51.5
q-104 0 -172.5 -68.5t-68.5 -176.5q0 -84 51.5 -139t143.5 -55q106 0 172 69t66 176z" />
    <glyph glyph-name="aacute" unicode="&#xe1;" horiz-adv-x="660" 
d="M693 740l-13 -67l-237 -16q-56 0 -106 -17q-62 -21 -107 -64q-28 -26 -51.5 -66.5t-36.5 -83.5q83 115 242 115q51 0 93.5 -15t76.5 -50q28 -29 45.5 -73t17.5 -102q0 -81 -32 -147q-25 -52 -68 -90q-86 -77 -216 -77q-54 0 -95 13t-77 47q-44 41 -63 102q-15 47 -15 102
q0 107 43.5 217t110.5 169q56 49 127 70q57 17 124 17zM543 298q0 35 -8 63q-11 38 -39 66q-20 20 -47 32q-34 15 -75 15q-60 0 -109 -23q-34 -16 -59 -40q-75 -70 -75 -182q0 -46 17 -82q13 -28 36 -49q17 -16 45 -28q38 -16 82 -16q104 0 171 73q26 29 41 64q20 47 20 107
z" />
    <glyph glyph-name="aacute" unicode="&#x431;" horiz-adv-x="660" 
d="M693 740l-13 -67l-237 -16q-56 0 -106 -17q-62 -21 -107 -64q-28 -26 -51.5 -66.5t-36.5 -83.5q83 115 242 115q51 0 93.5 -15t76.5 -50q28 -29 45.5 -73t17.5 -102q0 -81 -32 -147q-25 -52 -68 -90q-86 -77 -216 -77q-54 0 -95 13t-77 47q-44 41 -63 102q-15 47 -15 102
q0 107 43.5 217t110.5 169q56 49 127 70q57 17 124 17zM543 298q0 35 -8 63q-11 38 -39 66q-20 20 -47 32q-34 15 -75 15q-60 0 -109 -23q-34 -16 -59 -40q-75 -70 -75 -182q0 -46 17 -82q13 -28 36 -49q17 -16 45 -28q38 -16 82 -16q104 0 171 73q26 29 41 64q20 47 20 107
z" />
    <glyph glyph-name="acircumflex" unicode="&#xe2;" horiz-adv-x="480" 
d="M454 419q0 -27 -9 -50.5t-22 -39t-28.5 -27t-38.5 -18.5q36 -14 53.5 -43t17.5 -69q0 -47 -18 -79t-49 -55t-71 -32q-27 -6 -70 -6h-206l106 547h178q37 0 62.5 -5.5t48 -23.5t34.5 -41t12 -58zM375 409q0 14 -4 27t-15 23t-26.5 15.5t-38.5 5.5h-111l-32 -166h117
q31 0 48 5.5t32 18.5t22.5 32t7.5 39zM353 167q0 17 -5 32.5t-21 28.5t-35.5 16t-45.5 3h-111l-35 -180h131q25 0 43.5 4t38 17.5t30 32.5t10.5 46z" />
    <glyph glyph-name="acircumflex" unicode="&#x432;" horiz-adv-x="480" 
d="M454 419q0 -27 -9 -50.5t-22 -39t-28.5 -27t-38.5 -18.5q36 -14 53.5 -43t17.5 -69q0 -47 -18 -79t-49 -55t-71 -32q-27 -6 -70 -6h-206l106 547h178q37 0 62.5 -5.5t48 -23.5t34.5 -41t12 -58zM375 409q0 14 -4 27t-15 23t-26.5 15.5t-38.5 5.5h-111l-32 -166h117
q31 0 48 5.5t32 18.5t22.5 32t7.5 39zM353 167q0 17 -5 32.5t-21 28.5t-35.5 16t-45.5 3h-111l-35 -180h131q25 0 43.5 4t38 17.5t30 32.5t10.5 46z" />
    <glyph glyph-name="atilde" unicode="&#xe3;" horiz-adv-x="360" 
d="M406 547l-13 -67h-213l-93 -480h-74l106 547h287z" />
    <glyph glyph-name="atilde" unicode="&#x433;" horiz-adv-x="360" 
d="M406 547l-13 -67h-213l-93 -480h-74l106 547h287z" />
    <glyph glyph-name="adieresis" unicode="&#xe4;" horiz-adv-x="640" 
d="M593 67l-40 -207h-74l27 140h-472l-27 -140h-74l40 207h57l303 480h86l117 -480h57zM456 67l-93 402l-247 -402h340z" />
    <glyph glyph-name="adieresis" unicode="&#x434;" horiz-adv-x="640" 
d="M593 67l-40 -207h-74l27 140h-472l-27 -140h-74l40 207h57l303 480h86l117 -480h57zM456 67l-93 402l-247 -402h340z" />
    <glyph glyph-name="aring" unicode="&#xe5;" horiz-adv-x="650" 
d="M601 301v-33q-3 -15 -4 -21h-483q0 -93 55 -146q27 -26 66 -38q30 -9 65 -9q43 0 78.5 12.5t61 32t42.5 41.5q13 17 22 38h80q-31 -80 -94 -129q-44 -35 -101 -50q-45 -12 -94 -12q-51 0 -88 12q-54 17 -96 63q-66 72 -66 177q0 71 25.5 136t74.5 109q36 32 85 52
q60 24 134 24q50 0 89 -13q50 -17 85 -56q30 -33 46.5 -80.5t16.5 -109.5zM522 314q0 33 -10.5 64t-29.5 55q-26 33 -58.5 46.5t-74.5 13.5q-51 0 -89 -15t-68 -43q-19 -18 -34 -41q-24 -37 -33 -80h397z" />
    <glyph glyph-name="aring" unicode="&#x435;" horiz-adv-x="650" 
d="M601 301v-33q-3 -15 -4 -21h-483q0 -93 55 -146q27 -26 66 -38q30 -9 65 -9q43 0 78.5 12.5t61 32t42.5 41.5q13 17 22 38h80q-31 -80 -94 -129q-44 -35 -101 -50q-45 -12 -94 -12q-51 0 -88 12q-54 17 -96 63q-66 72 -66 177q0 71 25.5 136t74.5 109q36 32 85 52
q60 24 134 24q50 0 89 -13q50 -17 85 -56q30 -33 46.5 -80.5t16.5 -109.5zM522 314q0 33 -10.5 64t-29.5 55q-26 33 -58.5 46.5t-74.5 13.5q-51 0 -89 -15t-68 -43q-19 -18 -34 -41q-24 -37 -33 -80h397z" />
    <glyph glyph-name="ae" unicode="&#xe6;" horiz-adv-x="760" 
d="M792 547l-260 -261l174 -286h-88l-170 284l254 263h90zM473 547l-106 -547h-74l106 547h74zM322 284l-273 -284h-95l284 294l-162 253h86z" />
    <glyph glyph-name="ae" unicode="&#x436;" horiz-adv-x="760" 
d="M792 547l-260 -261l174 -286h-88l-170 284l254 263h90zM473 547l-106 -547h-74l106 547h74zM322 284l-273 -284h-95l284 294l-162 253h86z" />
    <glyph glyph-name="ccedilla" unicode="&#xe7;" horiz-adv-x="460" 
d="M434 421q0 -46 -27 -83q-30 -41 -85 -58q39 -9 61.5 -38.5t22.5 -72.5q0 -47 -21 -85q-17 -31 -44 -52t-63 -33t-84 -12q-37 0 -69.5 7.5t-58.5 26.5q-31 23 -43.5 52t-12.5 58l1 26h74l-1 -22q0 -38 30.5 -59.5t83.5 -21.5q29 0 51.5 6t44.5 24q17 14 27.5 33.5
t10.5 49.5q0 27 -10.5 43t-26.5 25t-31 10.5t-41 1.5h-49l13 67h43q26 0 50 5.5t42 18t28 32.5t10 42q0 37 -26 60q-11 10 -29.5 15.5t-49.5 5.5q-24 0 -43.5 -5.5t-36.5 -19.5q-13 -10 -21 -22.5t-12 -32.5h-74q6 32 21.5 59.5t37.5 46.5q29 24 63.5 32.5t68.5 8.5
q52 0 82 -11t52 -32q41 -39 41 -96z" />
    <glyph glyph-name="ccedilla" unicode="&#x437;" horiz-adv-x="460" 
d="M434 421q0 -46 -27 -83q-30 -41 -85 -58q39 -9 61.5 -38.5t22.5 -72.5q0 -47 -21 -85q-17 -31 -44 -52t-63 -33t-84 -12q-37 0 -69.5 7.5t-58.5 26.5q-31 23 -43.5 52t-12.5 58l1 26h74l-1 -22q0 -38 30.5 -59.5t83.5 -21.5q29 0 51.5 6t44.5 24q17 14 27.5 33.5
t10.5 49.5q0 27 -10.5 43t-26.5 25t-31 10.5t-41 1.5h-49l13 67h43q26 0 50 5.5t42 18t28 32.5t10 42q0 37 -26 60q-11 10 -29.5 15.5t-49.5 5.5q-24 0 -43.5 -5.5t-36.5 -19.5q-13 -10 -21 -22.5t-12 -32.5h-74q6 32 21.5 59.5t37.5 46.5q29 24 63.5 32.5t68.5 8.5
q52 0 82 -11t52 -32q41 -39 41 -96z" />
    <glyph glyph-name="egrave" unicode="&#xe8;" horiz-adv-x="600" 
d="M593 547l-106 -547h-74l87 445l-403 -445h-84l106 547h74l-87 -445l403 445h84z" />
    <glyph glyph-name="egrave" unicode="&#x438;" horiz-adv-x="600" 
d="M593 547l-106 -547h-74l87 445l-403 -445h-84l106 547h74l-87 -445l403 445h84z" />
    <glyph glyph-name="eacute" unicode="&#xe9;" horiz-adv-x="600" 
d="M541 740q-15 -57 -58.5 -91.5t-104.5 -34.5q-60 0 -100.5 33t-40.5 93h63q0 -34 22 -51.5t57 -17.5q75 0 99 69h63zM593 547l-106 -547h-74l87 445l-403 -445h-84l106 547h74l-87 -445l403 445h84z" />
    <glyph glyph-name="eacute" unicode="&#x439;" horiz-adv-x="600" 
d="M541 740q-15 -57 -58.5 -91.5t-104.5 -34.5q-60 0 -100.5 33t-40.5 93h63q0 -34 22 -51.5t57 -17.5q75 0 99 69h63zM593 547l-106 -547h-74l87 445l-403 -445h-84l106 547h74l-87 -445l403 445h84z" />
    <glyph glyph-name="ecircumflex" unicode="&#xea;" horiz-adv-x="500" 
d="M534 547l-268 -270l179 -277h-91l-176 277l261 270h95zM193 547l-106 -547h-74l106 547h74z" />
    <glyph glyph-name="ecircumflex" unicode="&#x43a;" horiz-adv-x="500" 
d="M534 547l-268 -270l179 -277h-91l-176 277l261 270h95zM193 547l-106 -547h-74l106 547h74z" />
    <glyph glyph-name="edieresis" unicode="&#xeb;" horiz-adv-x="560" 
d="M502 0h-82l-102 457l-276 -457h-84l336 547h77z" />
    <glyph glyph-name="edieresis" unicode="&#x43b;" horiz-adv-x="560" 
d="M502 0h-82l-102 457l-276 -457h-84l336 547h77z" />
    <glyph glyph-name="igrave" unicode="&#xec;" horiz-adv-x="720" 
d="M713 547l-106 -547h-74l91 465l-282 -465h-64l-100 465l-91 -465h-74l106 547h114l98 -447l270 447h112z" />
    <glyph glyph-name="igrave" unicode="&#x43c;" horiz-adv-x="720" 
d="M713 547l-106 -547h-74l91 465l-282 -465h-64l-100 465l-91 -465h-74l106 547h114l98 -447l270 447h112z" />
    <glyph glyph-name="iacute" unicode="&#xed;" horiz-adv-x="580" 
d="M573 547l-106 -547h-74l48 247h-306l-48 -247h-74l106 547h74l-45 -233h306l45 233h74z" />
    <glyph glyph-name="iacute" unicode="&#x43d;" horiz-adv-x="580" 
d="M573 547l-106 -547h-74l48 247h-306l-48 -247h-74l106 547h74l-45 -233h306l45 233h74z" />
    <glyph glyph-name="icircumflex" unicode="&#xee;" horiz-adv-x="655" 
d="M606 308q0 -79 -28 -143q-23 -53 -66 -95q-86 -83 -223 -83q-46 0 -83 11q-53 16 -91 53q-31 30 -49 73q-21 50 -21 115q0 77 30 143q26 58 72 100.5t99 60t115 17.5q44 0 82 -11q56 -16 96 -54.5t56 -95.5q11 -38 11 -91zM532 298q0 51 -13.5 87t-34.5 59
q-26 28 -61 38.5t-66 10.5q-52 0 -93.5 -17t-72.5 -48q-72 -72 -72 -179q0 -96 46 -145q27 -29 67 -41q29 -9 61 -9q56 0 98.5 17.5t72 47t49 76t19.5 103.5z" />
    <glyph glyph-name="icircumflex" unicode="&#x43e;" horiz-adv-x="655" 
d="M606 308q0 -79 -28 -143q-23 -53 -66 -95q-86 -83 -223 -83q-46 0 -83 11q-53 16 -91 53q-31 30 -49 73q-21 50 -21 115q0 77 30 143q26 58 72 100.5t99 60t115 17.5q44 0 82 -11q56 -16 96 -54.5t56 -95.5q11 -38 11 -91zM532 298q0 51 -13.5 87t-34.5 59
q-26 28 -61 38.5t-66 10.5q-52 0 -93.5 -17t-72.5 -48q-72 -72 -72 -179q0 -96 46 -145q27 -29 67 -41q29 -9 61 -9q56 0 98.5 17.5t72 47t49 76t19.5 103.5z" />
    <glyph glyph-name="idieresis" unicode="&#xef;" horiz-adv-x="580" 
d="M573 547l-106 -547h-74l93 480h-306l-93 -480h-74l106 547h454z" />
    <glyph glyph-name="idieresis" unicode="&#x43f;" horiz-adv-x="580" 
d="M573 547l-106 -547h-74l93 480h-306l-93 -480h-74l106 547h454z" />
    <glyph glyph-name="eth" unicode="&#xf0;" horiz-adv-x="682" 
d="M633 297q0 -63 -17 -113q-24 -70 -82 -122q-47 -42 -106 -60q-48 -15 -107 -15q-89 0 -148 41q-41 28 -65 73l-58 -293h-74l143 739h70l-13 -66q31 36 70 54q53 25 130 25q53 0 92 -12t77 -43q47 -39 69 -95q19 -49 19 -113zM559 295q0 88 -52 143t-140 55
q-99 0 -164 -68t-65 -175q0 -93 51.5 -144.5t137.5 -51.5q104 0 168 68t64 173z" />
    <glyph glyph-name="eth" unicode="&#x440;" horiz-adv-x="682" 
d="M633 297q0 -63 -17 -113q-24 -70 -82 -122q-47 -42 -106 -60q-48 -15 -107 -15q-89 0 -148 41q-41 28 -65 73l-58 -293h-74l143 739h70l-13 -66q31 36 70 54q53 25 130 25q53 0 92 -12t77 -43q47 -39 69 -95q19 -49 19 -113zM559 295q0 88 -52 143t-140 55
q-99 0 -164 -68t-65 -175q0 -93 51.5 -144.5t137.5 -51.5q104 0 168 68t64 173z" />
    <glyph glyph-name="ntilde" unicode="&#xf1;" horiz-adv-x="647" 
d="M615 381h-80q-14 52 -61 82t-114 30q-50 0 -93.5 -16.5t-78.5 -52.5q-31 -32 -50 -79t-19 -100q0 -52 19 -91q14 -29 41 -53q23 -20 57.5 -33.5t83.5 -13.5q63 0 115.5 28t77.5 78h82q-29 -68 -85 -111q-81 -62 -206 -62q-52 0 -92 12q-52 16 -91 52q-33 30 -52 71
q-24 51 -24 117q0 78 29 143q25 57 71 98q50 46 115 65q51 15 111 15q117 0 182 -63q47 -45 62 -116z" />
    <glyph glyph-name="ntilde" unicode="&#x441;" horiz-adv-x="647" 
d="M615 381h-80q-14 52 -61 82t-114 30q-50 0 -93.5 -16.5t-78.5 -52.5q-31 -32 -50 -79t-19 -100q0 -52 19 -91q14 -29 41 -53q23 -20 57.5 -33.5t83.5 -13.5q63 0 115.5 28t77.5 78h82q-29 -68 -85 -111q-81 -62 -206 -62q-52 0 -92 12q-52 16 -91 52q-33 30 -52 71
q-24 51 -24 117q0 78 29 143q25 57 71 98q50 46 115 65q51 15 111 15q117 0 182 -63q47 -45 62 -116z" />
    <glyph glyph-name="ograve" unicode="&#xf2;" horiz-adv-x="380" 
d="M424 547l-13 -67h-139l-93 -480h-74l93 480h-143l13 67h356z" />
    <glyph glyph-name="ograve" unicode="&#x442;" horiz-adv-x="380" 
d="M424 547l-13 -67h-139l-93 -480h-74l93 480h-143l13 67h356z" />
    <glyph glyph-name="oacute" unicode="&#xf3;" horiz-adv-x="536" 
d="M585 547l-445 -739h-87l136 221l-127 518h91l96 -425l249 425h87z" />
    <glyph glyph-name="oacute" unicode="&#x443;" horiz-adv-x="536" 
d="M585 547l-445 -739h-87l136 221l-127 518h91l96 -425l249 425h87z" />
    <glyph glyph-name="ocircumflex" unicode="&#xf4;" horiz-adv-x="740" 
d="M691 307q0 -87 -39 -157q-34 -60 -92 -98q-42 -27 -95 -39.5t-113 -12.5l-37 -192h-74l37 192q-52 0 -95 18.5t-75 51.5q-38 39 -53 93q-10 35 -10 77q0 87 39 157q34 60 92 98q42 27 95 39.5t113 12.5l38 193h74l-38 -193q52 0 95 -18.5t75 -51.5q38 -39 53 -93
q10 -35 10 -77zM617 305q0 42 -14 74.5t-33 51.5q-22 22 -55 35.5t-70 13.5l-80 -413q102 0 165 47q40 30 63.5 80t23.5 111zM371 480q-102 0 -165 -47q-40 -30 -63.5 -80t-23.5 -111q0 -42 14 -74.5t34.5 -53t53.5 -34t70 -13.5z" />
    <glyph glyph-name="ocircumflex" unicode="&#x444;" horiz-adv-x="740" 
d="M691 307q0 -87 -39 -157q-34 -60 -92 -98q-42 -27 -95 -39.5t-113 -12.5l-37 -192h-74l37 192q-52 0 -95 18.5t-75 51.5q-38 39 -53 93q-10 35 -10 77q0 87 39 157q34 60 92 98q42 27 95 39.5t113 12.5l38 193h74l-38 -193q52 0 95 -18.5t75 -51.5q38 -39 53 -93
q10 -35 10 -77zM617 305q0 42 -14 74.5t-33 51.5q-22 22 -55 35.5t-70 13.5l-80 -413q102 0 165 47q40 30 63.5 80t23.5 111zM371 480q-102 0 -165 -47q-40 -30 -63.5 -80t-23.5 -111q0 -42 14 -74.5t34.5 -53t53.5 -34t70 -13.5z" />
    <glyph glyph-name="otilde" unicode="&#xf5;" horiz-adv-x="480" 
d="M528 547l-240 -275l138 -272h-87l-108 221l-182 -221h-91l241 284l-135 263h87l106 -213l180 213h91z" />
    <glyph glyph-name="otilde" unicode="&#x445;" horiz-adv-x="480" 
d="M528 547l-240 -275l138 -272h-87l-108 221l-182 -221h-91l241 284l-135 263h87l106 -213l180 213h91z" />
    <glyph glyph-name="odieresis" unicode="&#xf6;" horiz-adv-x="620" 
d="M576 67l-40 -207h-74l27 140h-476l106 547h74l-93 -480h308l93 480h74l-93 -480h94z" />
    <glyph glyph-name="odieresis" unicode="&#x446;" horiz-adv-x="620" 
d="M576 67l-40 -207h-74l27 140h-476l106 547h74l-93 -480h308l93 480h74l-93 -480h94z" />
    <glyph glyph-name="divide" unicode="&#xf7;" horiz-adv-x="520" 
d="M513 547l-106 -547h-74l40 206h-120q-54 0 -86.5 5.5t-52.5 17.5q-30 17 -41 41.5t-11 54.5q0 32 8 70l30 152h74l-30 -154q-3 -18 -4 -26t-1 -25q0 -15 4 -28.5t17 -23.5t34.5 -13.5t58.5 -3.5h133l53 274h74z" />
    <glyph glyph-name="divide" unicode="&#x447;" horiz-adv-x="520" 
d="M513 547l-106 -547h-74l40 206h-120q-54 0 -86.5 5.5t-52.5 17.5q-30 17 -41 41.5t-11 54.5q0 32 8 70l30 152h74l-30 -154q-3 -18 -4 -26t-1 -25q0 -15 4 -28.5t17 -23.5t34.5 -13.5t58.5 -3.5h133l53 274h74z" />
    <glyph glyph-name="oslash" unicode="&#xf8;" horiz-adv-x="820" 
d="M813 547l-106 -547h-694l106 547h74l-93 -480h234l93 480h74l-93 -480h234l97 480h74z" />
    <glyph glyph-name="oslash" unicode="&#x448;" horiz-adv-x="820" 
d="M813 547l-106 -547h-694l106 547h74l-93 -480h234l93 480h74l-93 -480h234l97 480h74z" />
    <glyph glyph-name="ugrave" unicode="&#xf9;" horiz-adv-x="860" 
d="M814 67l-40 -207h-74l27 140h-714l106 547h74l-93 -480h236l93 480h74l-93 -480h236l93 480h74l-93 -480h94z" />
    <glyph glyph-name="ugrave" unicode="&#x449;" horiz-adv-x="860" 
d="M814 67l-40 -207h-74l27 140h-714l106 547h74l-93 -480h236l93 480h74l-93 -480h236l93 480h74l-93 -480h94z" />
    <glyph glyph-name="uacute" unicode="&#xfa;" horiz-adv-x="580" 
d="M536 190q0 -48 -16 -84t-54 -64q-26 -19 -60 -30.5t-81 -11.5h-232l93 480h-131l13 67h205l-40 -209h140q40 0 64 -7q38 -11 65 -42q15 -18 24.5 -41.5t9.5 -57.5zM462 180q0 23 -6.5 38t-17.5 26q-16 17 -35 22t-46 5h-137l-40 -204h157q20 0 42.5 5t43.5 22
q39 31 39 86z" />
    <glyph glyph-name="uacute" unicode="&#x44a;" horiz-adv-x="580" 
d="M536 190q0 -48 -16 -84t-54 -64q-26 -19 -60 -30.5t-81 -11.5h-232l93 480h-131l13 67h205l-40 -209h140q40 0 64 -7q38 -11 65 -42q15 -18 24.5 -41.5t9.5 -57.5zM462 180q0 23 -6.5 38t-17.5 26q-16 17 -35 22t-46 5h-137l-40 -204h157q20 0 42.5 5t43.5 22
q39 31 39 86z" />
    <glyph glyph-name="ucircumflex" unicode="&#xfb;" horiz-adv-x="680" 
d="M673 547l-106 -547h-74l106 547h74zM456 186q0 -48 -17.5 -83t-52.5 -61q-26 -19 -60 -30.5t-81 -11.5h-232l106 547h74l-40 -209h140q40 0 64 -7q38 -11 65 -42q16 -19 25 -44t9 -59zM382 180q0 23 -6.5 38t-17.5 26q-16 17 -35 22t-46 5h-137l-40 -204h157q20 0 42.5 5
t43.5 22q39 31 39 86z" />
    <glyph glyph-name="ucircumflex" unicode="&#x44b;" horiz-adv-x="680" 
d="M673 547l-106 -547h-74l106 547h74zM456 186q0 -48 -17.5 -83t-52.5 -61q-26 -19 -60 -30.5t-81 -11.5h-232l106 547h74l-40 -209h140q40 0 64 -7q38 -11 65 -42q16 -19 25 -44t9 -59zM382 180q0 23 -6.5 38t-17.5 26q-16 17 -35 22t-46 5h-137l-40 -204h157q20 0 42.5 5
t43.5 22q39 31 39 86z" />
    <glyph glyph-name="udieresis" unicode="&#xfc;" horiz-adv-x="500" 
d="M456 186q0 -48 -17.5 -83t-52.5 -61q-26 -19 -60 -30.5t-81 -11.5h-232l106 547h74l-40 -209h140q40 0 64 -7q38 -11 65 -42q16 -19 25 -44t9 -59zM382 180q0 23 -6.5 38t-17.5 26q-16 17 -35 22t-46 5h-137l-40 -204h157q20 0 42.5 5t43.5 22q39 31 39 86z" />
    <glyph glyph-name="udieresis" unicode="&#x44c;" horiz-adv-x="500" 
d="M456 186q0 -48 -17.5 -83t-52.5 -61q-26 -19 -60 -30.5t-81 -11.5h-232l106 547h74l-40 -209h140q40 0 64 -7q38 -11 65 -42q16 -19 25 -44t9 -59zM382 180q0 23 -6.5 38t-17.5 26q-16 17 -35 22t-46 5h-137l-40 -204h157q20 0 42.5 5t43.5 22q39 31 39 86z" />
    <glyph glyph-name="yacute" unicode="&#xfd;" horiz-adv-x="647" 
d="M598 304q0 -83 -33 -149q-25 -51 -67 -88q-49 -44 -104.5 -62t-123.5 -18q-47 0 -78 7q-45 10 -82 37q-28 20 -49 51q-24 36 -33 78h80q9 -29 24 -48q12 -14 34 -28t50 -22t67 -8q52 0 94.5 16t78.5 53q22 22 37 49q19 34 26 75h-335l13 67h327q0 43 -20 80
q-16 30 -39.5 51t-53.5 33q-39 15 -88 15q-78 0 -132 -36q-20 -13 -34 -29t-27 -41h-82q17 38 42 69q22 27 51 48q43 30 90 43t104 13q56 0 102 -13.5t85 -50.5q33 -30 52 -72q24 -52 24 -120z" />
    <glyph glyph-name="yacute" unicode="&#x44d;" horiz-adv-x="647" 
d="M598 304q0 -83 -33 -149q-25 -51 -67 -88q-49 -44 -104.5 -62t-123.5 -18q-47 0 -78 7q-45 10 -82 37q-28 20 -49 51q-24 36 -33 78h80q9 -29 24 -48q12 -14 34 -28t50 -22t67 -8q52 0 94.5 16t78.5 53q22 22 37 49q19 34 26 75h-335l13 67h327q0 43 -20 80
q-16 30 -39.5 51t-53.5 33q-39 15 -88 15q-78 0 -132 -36q-20 -13 -34 -29t-27 -41h-82q17 38 42 69q22 27 51 48q43 30 90 43t104 13q56 0 102 -13.5t85 -50.5q33 -30 52 -72q24 -52 24 -120z" />
    <glyph glyph-name="thorn" unicode="&#xfe;" horiz-adv-x="860" 
d="M811 311q0 -151 -95 -241q-86 -83 -222 -83q-64 0 -105.5 16.5t-74 48.5t-51 82t-18.5 113h-110l-48 -247h-74l106 547h74l-45 -233h105q12 59 45 109q21 32 50 59q48 43 100 60.5t112 17.5q49 0 88 -11q54 -15 95 -54.5t57 -95.5q11 -38 11 -88zM737 302q0 50 -14 85
t-35 57q-27 28 -61.5 38.5t-66.5 10.5q-53 0 -95 -17t-74.5 -49t-52 -80t-19.5 -106q0 -47 13 -81t34 -56q27 -29 68 -41q30 -9 62 -9q57 0 99.5 17.5t72.5 47.5t49.5 75.5t19.5 107.5z" />
    <glyph glyph-name="thorn" unicode="&#x44e;" horiz-adv-x="860" 
d="M811 311q0 -151 -95 -241q-86 -83 -222 -83q-64 0 -105.5 16.5t-74 48.5t-51 82t-18.5 113h-110l-48 -247h-74l106 547h74l-45 -233h105q12 59 45 109q21 32 50 59q48 43 100 60.5t112 17.5q49 0 88 -11q54 -15 95 -54.5t57 -95.5q11 -38 11 -88zM737 302q0 50 -14 85
t-35 57q-27 28 -61.5 38.5t-66.5 10.5q-53 0 -95 -17t-74.5 -49t-52 -80t-19.5 -106q0 -47 13 -81t34 -56q27 -29 68 -41q30 -9 62 -9q57 0 99.5 17.5t72.5 47.5t49.5 75.5t19.5 107.5z" />
    <glyph glyph-name="ydieresis" unicode="&#xff;" horiz-adv-x="520" 
d="M513 547l-106 -547h-74l93 480h-157q-25 0 -48.5 -6t-45.5 -22.5t-34 -37.5q-17 -29 -17 -66q0 -20 7 -40t27 -35q12 -9 30 -14.5t47 -5.5h80l-226 -253h-90l182 199q-60 6 -95.5 46.5t-35.5 100.5q0 55 26 99q21 35 55.5 59.5t71.5 33.5t79 9h231z" />
    <glyph glyph-name="ydieresis" unicode="&#x44f;" horiz-adv-x="520" 
d="M513 547l-106 -547h-74l93 480h-157q-25 0 -48.5 -6t-45.5 -22.5t-34 -37.5q-17 -29 -17 -66q0 -20 7 -40t27 -35q12 -9 30 -14.5t47 -5.5h80l-226 -253h-90l182 199q-60 6 -95.5 46.5t-35.5 100.5q0 55 26 99q21 35 55.5 59.5t71.5 33.5t79 9h231z" />
    <glyph glyph-name="OE" unicode="&#x152;" horiz-adv-x="1040" 
d="M1008 238q0 -67 -29 -117q-22 -39 -61 -67q-31 -23 -69 -36q-51 -18 -113 -18h-252l71 367h-386l-71 -367h-74l144 740h74l-60 -306h386l60 306h74l-60 -306h140q70 0 108 -14t66 -41q22 -22 35 -52q17 -39 17 -89zM934 234q0 64 -39 97q-42 36 -119 36h-147l-58 -300
h171q87 0 139.5 45.5t52.5 121.5z" />
    <glyph glyph-name="oe" unicode="&#x153;" horiz-adv-x="857" 
d="M813 186q0 -48 -17.5 -83t-52.5 -61q-26 -19 -60 -30.5t-81 -11.5h-232l53 271h-283l-53 -271h-74l106 547h74l-40 -209h283l40 209h74l-40 -209h140q40 0 64 -7q38 -11 65 -42q16 -19 25 -44t9 -59zM739 176q0 25 -6.5 41t-17.5 27q-16 17 -35 22t-46 5h-137l-40 -204
h157q20 0 42.5 5t43 21t30 37t9.5 46z" />
    <glyph glyph-name="Scaron" unicode="&#x160;" horiz-adv-x="1040" 
d="M1008 238q0 -67 -29 -117q-22 -39 -61 -67q-31 -23 -69 -36q-51 -18 -113 -18h-252l125 640l-559 -640h-96l654 740h94l-60 -306h140q70 0 108 -14t66 -41q22 -22 35 -52q17 -39 17 -89zM934 234q0 64 -39 97q-42 36 -119 36h-147l-58 -300h171q87 0 139.5 45.5
t52.5 121.5z" />
    <glyph glyph-name="scaron" unicode="&#x161;" horiz-adv-x="840" 
d="M796 186q0 -48 -17.5 -83t-52.5 -61q-26 -19 -60 -30.5t-81 -11.5h-232l88 463l-389 -463h-90l471 547h100l-40 -209h140q40 0 64 -7q38 -11 65 -42q16 -19 25 -44t9 -59zM722 176q0 25 -6.5 41t-17.5 27q-16 17 -35 22t-46 5h-137l-40 -204h157q20 0 42.5 5t43 21t30 37
t9.5 46z" />
    <glyph glyph-name="Ydieresis" unicode="&#x178;" horiz-adv-x="580" 
d="M573 547l-106 -547h-190l-31 -160h-74l31 160h-190l106 547h74l-93 -480h306l93 480h74z" />
    <glyph glyph-name="florin" unicode="&#x192;" horiz-adv-x="360" 
d="M435 727l-215 -114l-31 56l215 116zM406 547l-13 -67h-213l-93 -480h-74l106 547h287z" />
    <glyph glyph-name="circumflex" unicode="&#x2c6;" horiz-adv-x="502" 
d="M497 614h-90l-73 73l-101 -73h-90l170 126h64z" />
    <glyph glyph-name="tilde" unicode="&#x2dc;" horiz-adv-x="439" 
d="M442 652q-27 -19 -49 -29t-41 -10q-20 0 -32 4.5t-31 16.5q-13 8 -19 11q-16 8 -33 8q-15 0 -29 -5.5t-33 -23.5l-19 49q44 42 96 42q20 0 35 -6q8 -3 27 -14.5t28 -15.5t21 -4q13 0 28.5 7.5t29.5 17.5z" />
    <glyph glyph-name="endash" unicode="&#x2013;" horiz-adv-x="500" 
d="M515 334l-13 -67h-500l13 67h500z" />
    <glyph glyph-name="emdash" unicode="&#x2014;" horiz-adv-x="1000" 
d="M1015 334l-13 -67h-1000l13 67h1000z" />
    <glyph glyph-name="quoteleft" unicode="&#x2018;" horiz-adv-x="351" 
d="M314 547h-74l-50 193h74z" />
    <glyph glyph-name="quoteright" unicode="&#x2019;" horiz-adv-x="351" 
d="M350 740l-126 -193h-74l126 193h74z" />
    <glyph glyph-name="quotesinglbase" unicode="&#x201a;" horiz-adv-x="354" 
d="M217 126l-126 -193h-74l126 193h74z" />
    <glyph glyph-name="quotedblleft" unicode="&#x201c;" horiz-adv-x="502" 
d="M462 547h-74l-50 193h74zM314 547h-74l-50 193h74z" />
    <glyph glyph-name="quotedblright" unicode="&#x201d;" horiz-adv-x="484" 
d="M498 740l-126 -193h-74l126 193h74zM350 740l-126 -193h-74l126 193h74z" />
    <glyph glyph-name="quotedblbase" unicode="&#x201e;" horiz-adv-x="502" 
d="M382 126l-126 -193h-74l126 193h74zM234 126l-126 -193h-74l126 193h74z" />
    <glyph glyph-name="dagger" unicode="&#x2020;" horiz-adv-x="553" 
d="M548 539l-13 -67h-180l-117 -599h-74l117 599h-180l13 67h180l39 201h74l-39 -201h180z" />
    <glyph glyph-name="daggerdbl" unicode="&#x2021;" horiz-adv-x="553" 
d="M553 562l-13 -67h-180l-18 -95h180l-13 -67h-180l-90 -461h-74l90 461h-180l13 67h180l18 95h-180l13 67h180l35 178h74l-35 -178h180z" />
    <glyph glyph-name="bullet" unicode="&#x2022;" horiz-adv-x="606" 
d="M473 300q0 -67 -46.5 -113.5t-113.5 -46.5t-113.5 46.5t-46.5 113.5t46.5 113.5t113.5 46.5t113.5 -46.5t46.5 -113.5z" />
    <glyph glyph-name="ellipsis" unicode="&#x2026;" horiz-adv-x="1000" 
d="M844 126l-24 -126h-74l24 126h74zM511 126l-24 -126h-74l24 126h74zM178 126l-24 -126h-74l24 126h74z" />
    <glyph glyph-name="perthousand" unicode="&#x2030;" horiz-adv-x="1174" 
d="M1149 182q0 -46 -15 -80.5t-41 -60t-61 -40t-79 -14.5q-36 0 -64 11.5t-50 34.5t-31 51t-9 58q0 46 15 80.5t42.5 61t60 40t74.5 13.5q39 0 67.5 -12t50.5 -34.5t31 -50.5t9 -58zM422 598q0 -46 -15 -80.5t-41 -60t-61 -40t-79 -14.5q-36 0 -64 11.5t-50 34.5t-31 51
t-9 58q0 46 15 80.5t42.5 61t60 40t74.5 13.5q39 0 67.5 -12t50.5 -34.5t31 -50.5t9 -58zM665 740l-436 -740h-72l436 740h72zM750 182q0 -46 -15 -80.5t-41 -60t-61 -40t-79 -14.5q-36 0 -64 11.5t-50 34.5t-31 51t-9 58q0 46 15 80.5t42.5 61t60 40t74.5 13.5
q39 0 67.5 -12t50.5 -34.5t31 -50.5t9 -58zM1079 177q0 23 -7 39.5t-18 28t-27.5 19t-41.5 7.5q-23 0 -43.5 -7.5t-39.5 -27.5q-14 -14 -22 -34q-11 -25 -11 -55q0 -23 7 -39.5t18 -28t27.5 -19t41.5 -7.5q23 0 43.5 7.5t39.5 27.5q14 14 23.5 36.5t9.5 52.5zM352 593
q0 23 -7 39.5t-18 28t-27.5 19t-41.5 7.5q-23 0 -43.5 -7.5t-39.5 -27.5q-14 -14 -22 -34q-11 -25 -11 -55q0 -23 7 -39.5t18 -28t27.5 -19t41.5 -7.5q23 0 43.5 7.5t39.5 27.5q14 14 23.5 36.5t9.5 52.5zM680 177q0 23 -7 39.5t-18 28t-27.5 19t-41.5 7.5q-23 0 -43.5 -7.5
t-39.5 -27.5q-14 -14 -22 -34q-11 -25 -11 -55q0 -23 7 -39.5t18 -28t27.5 -19t41.5 -7.5q23 0 43.5 7.5t39.5 27.5q14 14 23.5 36.5t9.5 52.5z" />
    <glyph glyph-name="guilsinglleft" unicode="&#x2039;" horiz-adv-x="251" 
d="M248 469l-133 -172l64 -172l-60 -24l-74 200l151 199z" />
    <glyph glyph-name="guilsinglright" unicode="&#x203a;" horiz-adv-x="251" 
d="M222 300l-151 -199l-52 31l133 172l-64 172l60 24z" />
    <glyph glyph-name="trademark" unicode="&#x2122;" horiz-adv-x="1000" 
d="M1032 740l-82 -420h-66l70 360l-216 -360h-39l-72 360l-70 -360h-67l82 420h108l63 -303l183 303h106zM498 740l-12 -60h-133l-70 -360h-74l70 360h-134l12 60h341z" />
    </font>
</defs>
</svg>
