<?xml version="1.0" standalone="no"?>
<!DOCTYPE svg PUBLIC "-//W3C//DTD SVG 1.1//EN" "http://www.w3.org/Graphics/SVG/1.1/DTD/svg11.dtd" >
<svg xmlns="http://www.w3.org/2000/svg" xmlns:xlink="http://www.w3.org/1999/xlink" version="1.1">
<metadata>
Created by FontForge 20160405 at Thu Jul 12 05:01:30 2018
 By www-data
TrueType font: Copyright (c) 1991, 1994 ParaGraph. Technical realization by TeamAXis Corp. Hinted with AXisType ToolKit: Copyright (c) 1992, 1994 by Dmitry Komissarov. Avant Garde Gothic is a registered trade mark of International Typeface Corporation.
</metadata>
<defs>
<font id="AvantGardeCTT-BoldItalic" horiz-adv-x="560" >
  <font-face 
    font-family="AvantGardeCTT"
    font-weight="700"
    font-style="italic"
    font-stretch="normal"
    units-per-em="1000"
    panose-1="0 0 0 0 0 0 0 0 0 0"
    ascent="800"
    descent="-200"
    x-height="554"
    cap-height="740"
    bbox="-117 -215 1250 980"
    underline-thickness="50"
    underline-position="-175"
    slope="-11"
    unicode-range="U+0020-2122"
  />
<missing-glyph horiz-adv-x="980" 
d="M61 0v980h858v-980h-858zM858 61v858h-736v-858h736z" />
    <glyph glyph-name=".notdef" horiz-adv-x="980" 
d="M61 0v980h858v-980h-858zM858 61v858h-736v-858h736z" />
    <glyph glyph-name=".null" horiz-adv-x="0" 
 />
    <glyph glyph-name="nonmarkingreturn" horiz-adv-x="233" 
 />
    <glyph glyph-name="space" unicode=" " horiz-adv-x="233" 
 />
    <glyph glyph-name="exclam" unicode="!" horiz-adv-x="280" 
d="M300 740l-107 -552h-133l107 552h133zM181 127l-25 -127h-133l25 127h133z" />
    <glyph glyph-name="quotedbl" unicode="&#x22;" horiz-adv-x="360" 
d="M379 740l-44 -226h-75l44 226h75zM244 740l-44 -226h-75l44 226h75z" />
    <glyph glyph-name="numbersign" unicode="#" 
d="M566 521l-19 -98h-114l-19 -92h114l-20 -98h-114l-48 -233h-90l48 233h-86l-48 -233h-90l48 233h-114l20 98h114l19 92h-114l19 98h114l45 219h90l-45 -219h86l45 219h90l-45 -219h114zM343 423h-86l-19 -92h86z" />
    <glyph glyph-name="dollar" unicode="$" 
d="M532 578l-2 -32h-126q2 6 2 19t-4.5 22t-13.5 15.5t-21 9t-22 2.5q-14 0 -26 -3.5t-23 -12.5q-22 -19 -22 -51q0 -30 16.5 -49.5t66.5 -47.5q61 -34 88 -64q49 -54 49 -134q0 -54 -20 -95q-15 -31 -44 -57q-24 -22 -51 -35q-36 -17 -74 -17l-26 -133h-125l27 137
q-33 8 -56 23.5t-37 34.5q-34 44 -34 107l3 37h133l-3 -22q0 -18 5 -30t16 -23.5t26.5 -16t31.5 -4.5q26 0 41 5.5t28.5 17t19.5 29.5t6 35q0 36 -21 61t-77 56.5t-79 54.5q-43 45 -43 112q0 85 49 138q22 24 48 38q35 19 74 19l25 131h125l-26 -135q21 -5 37 -14.5
t29 -25.5q17 -21 23.5 -46.5t6.5 -55.5z" />
    <glyph glyph-name="percent" unicode="%" horiz-adv-x="860" 
d="M436 597q0 -47 -15 -85t-39 -62.5t-56 -38.5q-41 -18 -89 -18q-33 0 -62.5 10.5t-52.5 33.5t-34.5 51.5t-11.5 60.5q0 47 15 85t39 62.5t56 38.5q41 18 89 18q33 0 62.5 -10.5t52.5 -33.5t34.5 -51.5t11.5 -60.5zM729 740l-450 -740h-102l450 740h102zM830 186
q0 -47 -15 -85t-39 -62.5t-56 -38.5q-41 -18 -89 -18q-33 0 -62.5 10.5t-52.5 33.5t-34.5 51.5t-11.5 60.5q0 47 15 85t39 62.5t56 38.5q41 18 89 18q33 0 62.5 -10.5t52.5 -33.5t34.5 -51.5t11.5 -60.5zM326 580q0 18 -4.5 29t-12.5 19t-20 13.5t-28 5.5q-55 0 -71 -53
q-4 -12 -4 -28q0 -18 4.5 -29t12.5 -19t20 -13.5t28 -5.5q33 0 54 23q10 10 15.5 24.5t5.5 33.5zM720 169q0 18 -4.5 29t-12.5 19t-20 13.5t-28 5.5q-55 0 -71 -53q-4 -12 -4 -28q0 -18 4.5 -29t12.5 -19t20 -13.5t28 -5.5q33 0 54 23q10 10 15.5 24.5t5.5 33.5z" />
    <glyph glyph-name="ampersand" unicode="&#x26;" horiz-adv-x="680" 
d="M666 436l-148 -228l105 -146l-106 -80l-80 115l-17 -21q-33 -40 -68 -61q-55 -33 -126 -33q-95 0 -149.5 58.5t-54.5 144.5q0 98 65 166q47 50 120 77q-25 36 -37 65t-12 67q0 77 50 132q56 61 148 61q82 0 129.5 -44.5t47.5 -116.5q0 -75 -51 -133q-38 -44 -93 -68
l56 -80l83 125h138zM409 577q0 24 -10 39q-13 19 -42 19q-27 0 -46.5 -17.5t-19.5 -49.5q0 -19 6 -36.5t25 -40.5l8 -10q29 12 49 31q30 28 30 65zM368 196l-96 136l-29 -15q-33 -17 -54 -40q-34 -37 -34 -86q0 -41 23 -62t62 -21q30 0 56.5 15.5t56.5 53.5z" />
    <glyph glyph-name="quotesingle" unicode="'" horiz-adv-x="220" 
d="M244 740l-44 -226h-76l44 226h76z" />
    <glyph glyph-name="parenleft" unicode="(" horiz-adv-x="380" 
d="M442 740l-27 -145q-40 -24 -72 -55q-39 -38 -68.5 -89t-44.5 -99q-18 -59 -18 -123q0 -40 5.5 -70.5t19.5 -62t31 -52.5q13 -16 33 -33l-27 -139q-43 21 -74 48q-39 34 -70 85q-55 90 -55 215q0 76 21 147q16 53 45 107q48 89 125 158t176 108z" />
    <glyph glyph-name="parenright" unicode=")" horiz-adv-x="380" 
d="M323 392q0 -76 -21 -147q-16 -53 -45 -107q-48 -89 -125 -158t-176 -108l27 145q40 24 72 55q39 38 68.5 89t46 104.5t16.5 117.5q0 40 -5.5 70.5t-19.5 62t-31 52.5q-13 16 -33 33l27 139q43 -21 74 -48q39 -34 70 -85q55 -90 55 -215z" />
    <glyph glyph-name="asterisk" unicode="*" horiz-adv-x="440" 
d="M445 640l-13 -70l-101 6l40 -84l-63 -36l-29 92l-62 -92l-57 30l72 91l-101 -7l13 69l99 -6l-37 89l67 30l28 -90l63 91l51 -35l-71 -85z" />
    <glyph glyph-name="plus" unicode="+" horiz-adv-x="600" 
d="M562 263h-194v-198h-116v198h-194v116h194v191h116v-191h194v-116z" />
    <glyph glyph-name="comma" unicode="," horiz-adv-x="280" 
d="M182 133l-25 -128q-8 -39 -16 -58q-14 -33 -39 -52.5t-61 -28.5q-24 -6 -43 -6l13 67q25 0 44.5 15.5t23.5 40.5l3 17h-59l26 133h133z" />
    <glyph glyph-name="hyphen" unicode="-" horiz-adv-x="420" 
d="M372 377l-23 -118h-278l23 118h278z" />
    <glyph glyph-name="period" unicode="." horiz-adv-x="280" 
d="M182 133l-26 -133h-133l26 133h133z" />
    <glyph glyph-name="slash" unicode="/" horiz-adv-x="460" 
d="M526 740l-492 -868h-94l492 868h94z" />
    <glyph glyph-name="zero" unicode="0" 
d="M578 541q0 -31 -5 -54l-53 -269q-20 -101 -70 -155q-74 -81 -221 -81q-98 0 -151 55t-53 157q0 31 5 54l53 269q20 101 70 155q74 81 221 81q98 0 151 -55t53 -157zM445 532q0 44 -25.5 69.5t-73.5 25.5q-65 0 -98 -38q-23 -26 -32 -72l-53 -269q-5 -25 -5 -45
q0 -44 25.5 -69.5t75.5 -25.5q63 0 96 38q23 26 32 72l53 269q5 25 5 45z" />
    <glyph glyph-name="one" unicode="1" 
d="M540 740l-144 -740h-133l108 554l-195 -202l-88 83l299 305h153z" />
    <glyph glyph-name="two" unicode="2" 
d="M572 553q0 -77 -38 -137q-30 -47 -101 -106l-223 -184h284l-24 -126h-478l24 126l323 264q52 43 69 64q31 39 31 84q0 24 -7 39t-20 27t-31.5 17.5t-39.5 5.5q-31 0 -56 -11.5t-45 -40.5q-14 -20 -21.5 -43.5t-7.5 -47.5h-133q0 47 16 88t44 78q43 56 105 82
q51 21 110 21q49 0 81 -8q52 -13 87 -49q21 -23 34 -53q17 -40 17 -90z" />
    <glyph glyph-name="three" unicode="3" 
d="M528 585q0 -59 -32 -105.5t-90 -65.5q56 -12 85 -59q26 -43 26 -105q0 -52 -13 -92q-17 -53 -62.5 -98.5t-111.5 -64.5q-46 -13 -103 -13q-47 0 -81 10q-50 15 -86 53q-25 27 -38 56q-16 36 -16 79l1 39h133l-1 -21q0 -18 8.5 -35t22 -30.5t34 -19t41.5 -5.5
q39 0 62.5 11t42.5 32q15 17 24.5 38.5t9.5 50.5q0 31 -10.5 51t-24.5 31q-18 14 -39 18t-52 4h-23l24 126h29q23 0 39 4q28 7 45 25q23 25 23 61q0 18 -5.5 29.5t-16 21t-25 13t-27.5 3.5q-26 0 -39.5 -5.5t-26.5 -16.5q-22 -19 -25 -45h-133q5 45 25 81q16 29 42 53
q30 28 72 43.5t97 15.5q39 0 67 -7q43 -11 74 -38q23 -20 36 -45q18 -34 18 -78z" />
    <glyph glyph-name="four" unicode="4" 
d="M566 740l-98 -504h78l-25 -126h-78l-21 -110h-133l21 110h-320l27 139l397 491h152zM395 544l-245 -308h185z" />
    <glyph glyph-name="five" unicode="5" 
d="M561 740l-33 -126h-245l-56 -144q23 13 46 18.5t52 5.5q50 0 88 -17q32 -14 55.5 -40t40 -68.5t16.5 -103.5q0 -65 -20 -116q-15 -38 -43 -72q-37 -45 -92 -70t-127 -25q-52 0 -90 12q-49 15 -85 51q-29 29 -45 67t-16 76l1 31h133l-1 -14q0 -20 7 -36.5t22 -32t34.5 -22
t41.5 -6.5q30 0 49 5q29 8 51.5 27.5t34.5 44t12 57.5q0 29 -6.5 53.5t-20.5 41.5q-17 21 -40.5 30t-47.5 9q-78 0 -116 -58l-112 33l149 389h363z" />
    <glyph glyph-name="six" unicode="6" 
d="M538 266q0 -74 -24 -127.5t-66.5 -90t-96.5 -53.5q-43 -13 -91 -13q-53 0 -95 13t-78 45q-71 64 -71 172q0 57 20.5 110t67.5 110l257 308h157l-222 -254l37 3q39 0 75.5 -13.5t69.5 -47t48 -81.5q12 -38 12 -81zM405 253q0 27 -7.5 49t-25 39.5t-37.5 23.5t-48 6
q-64 0 -101 -42t-37 -107q0 -27 7.5 -47.5t26.5 -37.5q32 -29 86 -29q36 0 60 12.5t42 33t26 47t8 52.5z" />
    <glyph glyph-name="seven" unicode="7" 
d="M594 740l-25 -126l-378 -614h-156l390 614h-301l25 126h445z" />
    <glyph glyph-name="eight" unicode="8" 
d="M543 579q0 -75 -42 -121q-30 -33 -79 -49q47 -16 74 -60t27 -107q0 -53 -15 -95q-19 -54 -62 -94.5t-98 -57.5q-42 -13 -95 -13q-50 0 -85 10q-45 13 -81 46q-28 27 -45 60q-22 44 -22 97q0 84 47.5 146.5t125.5 75.5q-31 20 -48.5 54t-17.5 79q0 51 23 93q18 32 50.5 59
t73.5 39t82 12q44 0 80.5 -11.5t66.5 -45.5q22 -25 31 -55t9 -62zM419 556q0 18 -3.5 30.5t-14.5 25.5q-20 23 -57 23q-18 0 -32.5 -5t-28.5 -18t-21.5 -29t-7.5 -40q0 -17 3.5 -29.5t13.5 -25.5q19 -23 54 -23q20 0 34.5 5t30.5 19.5t22.5 31t6.5 35.5zM390 235
q0 49 -24 78q-17 20 -37.5 27t-43.5 7q-57 0 -92 -33q-40 -38 -40 -94q0 -23 6.5 -43t21 -37t33.5 -24.5t42 -7.5q27 0 49 7t43 26q16 14 27 34q15 27 15 60z" />
    <glyph glyph-name="nine" unicode="9" 
d="M584 529q0 -69 -28 -130q-21 -45 -60 -92l-257 -307h-157l222 253l-37 -3q-84 0 -142 58q-34 34 -48.5 74.5t-14.5 88.5q0 68 21.5 121.5t69.5 94.5q40 35 87.5 50.5t105.5 15.5q45 0 80 -9q53 -14 91 -48q31 -28 49 -69.5t18 -97.5zM451 507q0 35 -9 56.5t-24.5 35.5
t-37 21t-47.5 7q-32 0 -58.5 -11.5t-43.5 -30.5t-25 -39q-11 -27 -11 -62q0 -26 6 -47t25 -39t39 -24t46 -6q37 0 61 11.5t43.5 32t27.5 46t8 49.5z" />
    <glyph glyph-name="colon" unicode=":" horiz-adv-x="280" 
d="M254 502l-26 -133h-133l26 133h133zM182 133l-26 -133h-133l26 133h133z" />
    <glyph glyph-name="semicolon" unicode=";" horiz-adv-x="280" 
d="M254 502l-26 -133h-133l26 133h133zM182 133l-25 -128q-8 -39 -16 -58q-14 -33 -39 -52.5t-61 -28.5q-24 -6 -43 -6l13 67q25 0 44.5 15.5t23.5 40.5l3 17h-59l26 133h133z" />
    <glyph glyph-name="less" unicode="&#x3c;" horiz-adv-x="600" 
d="M545 42l-509 225v98l509 225v-111l-362 -163l362 -163v-111z" />
    <glyph glyph-name="equal" unicode="=" horiz-adv-x="600" 
d="M562 358h-504v115h504v-115zM562 163h-504v115h504v-115z" />
    <glyph glyph-name="greater" unicode="&#x3e;" horiz-adv-x="600" 
d="M565 267l-509 -225v111l362 163l-362 163v111l509 -225v-98z" />
    <glyph glyph-name="question" unicode="?" 
d="M548 562q0 -77 -44 -131q-16 -20 -97 -87q-38 -31 -58 -61q-29 -43 -35 -95h-133q6 71 39 127q27 46 75 87q42 34 85 69q35 34 35 81q0 14 -3.5 26.5t-14 24t-26.5 18t-37 6.5q-27 0 -46.5 -7t-36.5 -25q-9 -10 -11 -14q-18 -28 -18 -59h-133q0 40 12 73q16 44 54 83
q29 31 70 50q54 25 121 25q53 0 95 -18q33 -14 57 -38q21 -21 35.5 -54.5t14.5 -80.5zM302 127l-25 -127h-133l25 127h133z" />
    <glyph glyph-name="at" unicode="@" horiz-adv-x="740" 
d="M755 426q0 -51 -12.5 -96t-35.5 -80q-29 -42 -77.5 -71.5t-94.5 -29.5q-57 0 -80 48q-21 -21 -54.5 -34.5t-63.5 -13.5q-69 0 -116 47q-50 50 -50 133q0 51 15.5 93.5t43 73.5t66 49t83.5 18q52 0 88 -24q22 -14 36 -36l11 52h96l-54 -278l-3 -25q2 -5 3 -7q6 -8 17 -8
q20 0 40.5 15.5t36 41t22.5 56.5t7 65q0 133 -89 205q-78 63 -191 63q-136 0 -223 -89t-87 -227q0 -142 94 -230q90 -85 225 -85q45 0 87 12t79 32l36 -56q-51 -33 -113 -47q-47 -11 -97 -11q-170 0 -278.5 108.5t-108.5 276.5q0 169 108.5 277.5t280.5 108.5q165 0 262 -96
q91 -90 91 -231zM475 369q0 36 -21 61.5t-62 25.5q-19 0 -35.5 -6t-31 -21.5t-23.5 -37t-9 -46.5q0 -38 18 -63.5t56 -25.5q27 0 46.5 9.5t32.5 24t21 36.5t8 43z" />
    <glyph glyph-name="A" unicode="A" horiz-adv-x="740" 
d="M683 0h-147l-36 196h-280l-107 -196h-156l432 740h147zM481 324l-48 264l-146 -264h194z" />
    <glyph glyph-name="B" unicode="B" horiz-adv-x="580" 
d="M562 578q0 -65 -33 -113t-92 -69q46 -15 72.5 -51.5t26.5 -97.5q0 -66 -27 -118q-21 -41 -59 -72.5t-88 -45.5q-40 -11 -89 -11h-252l144 740h201q41 0 69 -6q46 -10 77 -37q24 -20 37 -48.5t13 -70.5zM425 542q0 17 -6 30.5t-14 21.5q-12 11 -28.5 14.5t-33.5 3.5h-66
l-31 -160h77q25 0 43 6.5t29 15.5q30 25 30 68zM399 241q0 17 -3.5 30.5t-16 27.5t-30.5 19.5t-38 5.5h-90l-38 -196h102q23 0 42 6.5t35 20.5q21 18 29 39t8 47z" />
    <glyph glyph-name="C" unicode="C" horiz-adv-x="780" 
d="M795 528h-156q-18 46 -63 71.5t-110 25.5q-69 0 -121 -24t-86 -65.5t-50 -94t-16 -109.5q0 -41 10 -76q14 -49 47 -84q26 -28 59 -43q41 -19 94 -19q57 0 106 21q56 24 91 70h159q-51 -104 -143.5 -161.5t-219.5 -57.5q-76 0 -131 20q-66 24 -119 81q-45 49 -67.5 110
t-22.5 134q0 92 31 171t92.5 141t142.5 90q69 24 156 24q118 0 202 -56.5t115 -168.5z" />
    <glyph glyph-name="D" unicode="D" horiz-adv-x="700" 
d="M686 427q0 -109 -37 -197q-33 -79 -93 -133q-63 -58 -147 -81q-58 -16 -131 -16h-257l144 740h214q69 0 114 -12q69 -18 115 -66.5t65 -121.5q13 -51 13 -113zM549 422q0 52 -14 87.5t-37 56.5q-28 26 -63 33.5t-80 7.5h-79l-92 -474h106q48 0 85 10q53 14 93 53
q35 32 58 93t23 133z" />
    <glyph glyph-name="E" unicode="E" horiz-adv-x="520" 
d="M557 740l-25 -128h-255l-34 -176h244l-25 -128h-244l-35 -180h255l-25 -128h-392l144 740h392z" />
    <glyph glyph-name="F" unicode="F" horiz-adv-x="480" 
d="M536 740l-25 -128h-234l-34 -176h223l-25 -128h-223l-60 -308h-137l144 740h371z" />
    <glyph glyph-name="G" unicode="G" horiz-adv-x="840" 
d="M826 377q-7 -86 -39.5 -156.5t-81.5 -121.5q-64 -66 -152 -95q-67 -22 -147 -22q-81 0 -137 20q-67 24 -121 81q-92 96 -92 253q0 102 42 188q31 64 82 114q64 63 146 91q70 24 159 24q122 0 207.5 -57.5t116.5 -173.5h-156q-19 49 -66 76t-115 27q-70 0 -122.5 -24
t-89.5 -67q-29 -34 -46 -77q-21 -55 -21 -123q0 -48 13 -87.5t47 -75t80 -50.5q34 -11 77 -11q48 0 89.5 12.5t73.5 38.5q19 14 34 35q20 27 30 57h-297l24 124h462z" />
    <glyph glyph-name="H" unicode="H" horiz-adv-x="680" 
d="M702 740l-144 -740h-137l61 315h-263l-61 -315h-137l144 740h137l-58 -297h263l58 297h137z" />
    <glyph glyph-name="I" unicode="I" horiz-adv-x="280" 
d="M302 740l-144 -740h-137l144 740h137z" />
    <glyph glyph-name="J" unicode="J" horiz-adv-x="480" 
d="M502 740l-109 -562q-15 -79 -54 -125q-60 -71 -177 -71q-86 0 -132 54q-42 49 -42 126l2 28h137l-2 -16q0 -28 14 -46t40 -18q39 0 59 25q13 17 19 46l108 559h137z" />
    <glyph glyph-name="K" unicode="K" horiz-adv-x="620" 
d="M691 740l-341 -370l202 -370h-160l-171 324l-63 -324h-137l144 740h137l-64 -325l289 325h164z" />
    <glyph glyph-name="L" unicode="L" horiz-adv-x="440" 
d="M407 128l-25 -128h-361l144 740h137l-119 -612h224z" />
    <glyph glyph-name="M" unicode="M" horiz-adv-x="900" 
d="M922 740l-144 -740h-137l108 554l-285 -554h-129l-69 554l-108 -554h-137l144 740h196l74 -566l291 566h196z" />
    <glyph glyph-name="N" unicode="N" horiz-adv-x="740" 
d="M762 740l-144 -740h-170l-183 550l-107 -550h-137l144 740h170l183 -550l107 550h137z" />
    <glyph glyph-name="O" unicode="O" horiz-adv-x="840" 
d="M826 407q0 -90 -32 -169.5t-93.5 -141.5t-140.5 -90q-68 -24 -160 -24q-77 0 -135 21q-67 24 -119 80q-42 44 -64 100q-26 65 -26 145q0 90 32 169.5t93.5 141.5t140.5 90q68 24 160 24q77 0 139.5 -22.5t114.5 -78.5q42 -44 64 -100q26 -65 26 -145zM689 403
q0 51 -16 92t-41 68q-33 36 -81 51q-35 11 -80 11q-71 0 -122 -23t-89 -68q-34 -39 -50.5 -92.5t-16.5 -109.5q0 -51 16 -92t41 -68q33 -36 81 -51q35 -11 80 -11q71 0 122 23t89 68q34 39 50.5 92.5t16.5 109.5z" />
    <glyph glyph-name="P" unicode="P" 
d="M593 539q0 -74 -30 -130q-22 -41 -60.5 -72.5t-91.5 -45.5q-41 -11 -88 -11h-111l-54 -280h-137l144 740h217q51 0 81 -8q47 -12 80 -47q21 -22 33 -51q17 -41 17 -95zM456 521q0 19 -4 35t-18 31t-31 20t-38 5h-88l-39 -204h102q25 0 44.5 7t34 19t23.5 29q14 26 14 58z
" />
    <glyph glyph-name="Q" unicode="Q" horiz-adv-x="840" 
d="M826 407q0 -80 -26 -155t-81 -136q24 -13 54 -13h11q7 0 19 2l-23 -123q-6 -1 -14.5 -1h-13.5q-38 0 -70 9q-43 12 -72 38q-41 -24 -96.5 -35t-113.5 -11q-78 0 -136 21q-65 24 -118 80q-42 44 -64 100q-26 65 -26 145q0 90 32 169.5t93.5 141.5t140.5 90q68 24 160 24
q77 0 139.5 -22.5t114.5 -78.5q42 -44 64 -100q26 -65 26 -145zM689 403q0 61 -23 109q-14 30 -34 51q-33 36 -81 51q-35 11 -80 11q-75 0 -133 -28q-43 -21 -76 -58q-29 -33 -49 -89t-20 -105l1 -11q55 13 105 13q80 0 138 -20q99 -34 182 -129q36 40 53 94.5t17 110.5z
M511 127q-45 52 -104 80.5t-123 28.5q-36 0 -68 -11q24 -56 74.5 -85.5t116.5 -29.5q23 0 49.5 3.5t54.5 13.5z" />
    <glyph glyph-name="R" unicode="R" horiz-adv-x="580" 
d="M610 530q0 -69 -29 -123q-24 -45 -66 -77q-27 -21 -62 -35q-45 -18 -91 -18l154 -277h-150l-152 285l-57 -285h-137l144 740h230q116 0 170 -62q46 -53 46 -148zM474 517q0 56 -32 79q-22 16 -60 16h-105l-43 -220h106q61 0 96 32q18 16 28 41.5t10 51.5z" />
    <glyph glyph-name="S" unicode="S" horiz-adv-x="520" 
d="M524 574l-3 -40h-137l3 20q0 13 -3.5 25.5t-12.5 24.5t-22 16.5t-27 4.5q-19 0 -30 -4t-23 -13.5t-18.5 -24.5t-6.5 -38q0 -40 38 -74q16 -14 69.5 -51.5t79.5 -71.5q43 -56 43 -133q0 -98 -63 -163q-31 -31 -71 -48q-52 -22 -120 -22q-45 0 -82 11t-69 42q-25 24 -39 52
q-20 40 -20 92l2 33h137q-2 -8 -2 -23q0 -31 20 -54q14 -15 29.5 -20t33.5 -5q26 0 43 5.5t34 23.5q24 26 24 60q0 32 -12.5 53t-38.5 45q-13 12 -28 23q-20 14 -29 21q-65 48 -89 85q-27 41 -27 100q0 62 25 111q18 35 47 61q37 32 78.5 43.5t84.5 11.5q42 0 73 -10
q42 -14 70 -47q18 -21 28.5 -52.5t10.5 -69.5z" />
    <glyph glyph-name="T" unicode="T" horiz-adv-x="420" 
d="M510 740l-25 -128h-137l-119 -612h-137l119 612h-137l25 128h411z" />
    <glyph glyph-name="U" unicode="U" horiz-adv-x="640" 
d="M662 740l-98 -502q-14 -70 -27 -103q-24 -60 -69 -96t-109 -49q-39 -8 -84 -8q-104 0 -161 63q-51 56 -51 144q0 35 8 77l93 474h137l-93 -477q-3 -17 -5 -30.5t-2 -28.5q0 -45 22.5 -69.5t68.5 -24.5q32 0 52.5 8.5t37.5 23.5q22 19 33 49q7 18 13 52l97 497h137z" />
    <glyph glyph-name="V" unicode="V" horiz-adv-x="700" 
d="M787 740l-394 -740h-170l-122 740h152l87 -575l291 575h156z" />
    <glyph glyph-name="W" unicode="W" horiz-adv-x="900" 
d="M990 740l-318 -740h-150l-20 509l-213 -509h-150l-41 740h136l24 -518l220 518h128l23 -518l221 518h140z" />
    <glyph glyph-name="X" unicode="X" horiz-adv-x="680" 
d="M770 740l-328 -370l184 -370h-156l-128 266l-223 -266h-164l327 370l-183 370h156l127 -267l224 267h164z" />
    <glyph glyph-name="Y" unicode="Y" horiz-adv-x="620" 
d="M716 740l-334 -467l-53 -273h-137l53 273l-152 467h150l96 -329l221 329h156z" />
    <glyph glyph-name="Z" unicode="Z" horiz-adv-x="500" 
d="M558 740l-26 -133l-378 -479h301l-25 -128h-462l26 133l382 479h-273l25 128h430z" />
    <glyph glyph-name="bracketleft" unicode="[" horiz-adv-x="320" 
d="M382 740l-29 -145q-44 -12 -70 -44.5t-41 -112.5l-51 -263q-3 -15 -4 -22q-4 -22 -4 -37q0 -13 2.5 -30.5t10.5 -33t21 -25.5q10 -7 24 -12l-28 -143q-38 9 -70 29q-25 16 -46 40q-26 30 -38.5 67.5t-12.5 81.5q0 39 8 84l51 264q15 79 31 117q26 64 79 110q32 28 75 48
t92 27z" />
    <glyph glyph-name="backslash" unicode="\" horiz-adv-x="640" 
d="M448 0h-97l-171 740h97z" />
    <glyph glyph-name="bracketright" unicode="]" horiz-adv-x="320" 
d="M290 522q0 -39 -8 -84l-51 -264q-15 -79 -31 -117q-26 -64 -79 -110q-32 -28 -75 -48t-92 -27l29 145q44 12 70 44.5t41 112.5l51 263q3 15 5.5 29.5t2.5 29.5q0 13 -2.5 30.5t-10.5 33t-19.5 24t-25.5 13.5l28 143q38 -9 70 -29q25 -16 46 -40q26 -30 38.5 -67.5
t12.5 -81.5z" />
    <glyph glyph-name="asciicircum" unicode="^" horiz-adv-x="600" 
d="M590 180h-134l-156 414l-156 -414h-134l230 560h120z" />
    <glyph glyph-name="underscore" unicode="_" horiz-adv-x="500" 
d="M500 -138h-500v90h500v-90z" />
    <glyph glyph-name="grave" unicode="`" horiz-adv-x="420" 
d="M443 705l-63 -92l-217 125l69 102z" />
    <glyph glyph-name="a" unicode="a" horiz-adv-x="660" 
d="M665 554l-108 -554h-122l6 33q-29 -28 -75 -41q-35 -10 -77 -10q-52 0 -96.5 17t-76.5 45q-36 32 -58 76q-28 57 -28 131q0 80 29 145q25 55 68 96q38 36 87 56q58 24 125 24q80 0 133 -32q34 -21 56 -54l15 68h122zM484 294q0 74 -39 117t-106 43q-83 0 -132 -62
q-44 -56 -44 -136q0 -71 38.5 -113.5t104.5 -42.5q78 0 128 53t50 141z" />
    <glyph glyph-name="b" unicode="b" horiz-adv-x="660" 
d="M638 303q0 -80 -29 -145q-25 -55 -68 -96q-38 -36 -87 -56q-58 -24 -129 -24q-78 0 -128 31q-33 20 -55 55l-16 -68h-122l144 740h133l-42 -217q32 26 70.5 37.5t77.5 11.5q49 0 90.5 -16.5t74.5 -45.5q45 -40 65.5 -91.5t20.5 -115.5zM505 296q0 72 -39 115t-104 43
q-76 0 -127 -54.5t-51 -143.5q0 -70 39 -113t108 -43q82 0 130 61q44 56 44 135z" />
    <glyph glyph-name="c" unicode="c" horiz-adv-x="640" 
d="M614 370h-146q-12 41 -45 62.5t-79 21.5q-47 0 -86 -20q-27 -14 -47 -36q-48 -54 -48 -140q0 -46 16 -81q10 -21 24 -37q22 -23 53 -33q22 -7 50 -7q50 0 86.5 20t54.5 60h144q-29 -88 -99 -140q-78 -58 -193 -58q-58 0 -106 15t-88.5 55t-57.5 89.5t-17 106.5
q0 79 29 144q24 54 65 95q50 49 112 69q50 16 117 16q124 0 194 -70q54 -53 67 -132z" />
    <glyph glyph-name="d" unicode="d" horiz-adv-x="660" 
d="M701 740l-144 -740h-122l6 33q-19 -15 -25 -19q-51 -32 -123 -32q-53 0 -98.5 16.5t-78.5 45.5q-38 34 -59 76q-27 55 -27 129q0 80 30 147q25 56 67 96q37 35 87 56q58 24 127 24q73 0 123 -27q32 -17 55 -48l49 243h133zM484 298q0 71 -38.5 113.5t-106.5 42.5
q-76 0 -126 -53.5t-50 -140.5q0 -74 39 -117t106 -43q83 0 132 62q44 56 44 136z" />
    <glyph glyph-name="e" unicode="e" horiz-adv-x="640" 
d="M618 302q0 -42 -9 -84h-439q0 -16 9.5 -38.5t29.5 -41.5t45.5 -28.5t59.5 -9.5q26 0 43 4.5t35 14t28.5 19.5t18.5 22h150q-16 -36 -40 -66t-59 -56t-85 -41t-112 -15q-55 0 -96 14q-52 18 -93 60q-29 31 -48 71q-26 55 -26 119q0 75 25.5 136.5t72 106.5t109.5 66
q52 17 116 17q57 0 99 -13q57 -18 97 -60q31 -33 50 -82t19 -115zM485 336q-3 27 -13.5 48.5t-26 35.5t-34.5 22q-28 12 -62 12q-68 0 -113 -36q-39 -31 -54 -82h303z" />
    <glyph glyph-name="f" unicode="f" horiz-adv-x="280" 
d="M370 751l-23 -118h-17q-32 0 -53.5 -20t-27.5 -53l-1 -6h84l-23 -118h-84l-85 -436h-133l85 436h-47l23 118h47l1 6q13 73 48 117q60 74 181 74h25z" />
    <glyph glyph-name="g" unicode="g" horiz-adv-x="660" 
d="M665 554l-100 -510q-10 -51 -26 -87q-25 -56 -65.5 -92.5t-99.5 -58t-132 -21.5q-113 0 -181 61q-64 57 -76 154h153q12 -55 62 -77q27 -12 61 -12q40 0 73 9.5t59 32.5q18 15 31 39t18 47q-29 -22 -67.5 -33.5t-81.5 -11.5q-52 0 -97.5 16t-79.5 45q-47 40 -69 100
q-17 47 -17 102q0 86 34 153q24 47 63 83q34 32 77 51q62 28 137 28q80 0 131 -31q32 -19 56 -55l15 68h122zM484 300q0 72 -39 113t-108 41q-75 0 -124.5 -51.5t-49.5 -137.5q0 -70 38.5 -111.5t104.5 -41.5q77 0 127.5 51.5t50.5 136.5z" />
    <glyph glyph-name="h" unicode="h" horiz-adv-x="600" 
d="M564 383q0 -35 -8 -77l-59 -306h-133l61 314q4 25 4.5 34.5t0.5 15.5q0 43 -21.5 66.5t-64.5 23.5q-60 0 -100 -42q-21 -22 -33 -52q-8 -20 -15 -56l-59 -304h-133l144 740h133l-43 -219q31 28 71.5 39.5t77.5 11.5q45 0 74.5 -11.5t52.5 -33.5q29 -29 41 -71
q9 -31 9 -73z" />
    <glyph glyph-name="i" unicode="i" horiz-adv-x="240" 
d="M281 740l-24 -122h-133l24 122h133zM245 554l-108 -554h-133l108 554h133z" />
    <glyph glyph-name="j" unicode="j" horiz-adv-x="260" 
d="M301 740l-24 -122h-133l24 122h133zM265 554l-111 -566q-11 -55 -43 -96q-27 -34 -62.5 -52t-86.5 -23q-21 -2 -79 -2l23 118q6 -1 19 -1q38 0 62 15q30 20 38 61l107 546h133z" />
    <glyph glyph-name="k" unicode="k" horiz-adv-x="580" 
d="M580 554l-253 -279l178 -275h-158l-160 259l-50 -259h-133l144 740h133l-87 -447l228 261h158z" />
    <glyph glyph-name="l" unicode="l" horiz-adv-x="240" 
d="M281 740l-144 -740h-133l144 740h133z" />
    <glyph glyph-name="m" unicode="m" horiz-adv-x="940" 
d="M904 372q0 -17 -1 -28.5t-8 -47.5l-58 -296h-133l61 314q5 25 5 45q0 44 -20 69.5t-60 25.5q-26 0 -50.5 -8.5t-47.5 -34.5q-19 -22 -31 -53q-8 -22 -15 -54l-59 -304h-133l61 314q3 18 4 26t1 25q0 55 -35 77q-19 12 -45 12t-50.5 -8.5t-47.5 -34.5q-19 -22 -31 -53
q-8 -22 -15 -54l-59 -304h-133l107 554h122l-9 -43q33 33 73.5 47t77.5 14q32 0 58 -7.5t47 -23.5q27 -21 43 -51q29 33 65 52q22 12 54.5 21t71.5 9q43 0 77 -11.5t62.5 -40t39.5 -64t11 -84.5z" />
    <glyph glyph-name="n" unicode="n" horiz-adv-x="600" 
d="M564 385q0 -36 -8 -79l-59 -306h-133l61 314q4 25 4.5 34.5t0.5 15.5q0 43 -21.5 66.5t-62.5 23.5q-32 0 -57.5 -11t-45.5 -32t-32 -51q-8 -20 -15 -56l-59 -304h-133l108 554h122l-9 -43q26 25 53 38q47 23 111 23q37 0 67.5 -9.5t58.5 -37t40 -68.5q9 -30 9 -72z" />
    <glyph glyph-name="o" unicode="o" horiz-adv-x="640" 
d="M618 308q0 -72 -24.5 -134t-71 -108.5t-110.5 -67.5q-50 -16 -109 -16t-105 15q-54 18 -94 57t-57 88t-17 106q0 70 25 133t69 106q49 49 112 69q49 16 111 16q61 0 109.5 -16t88.5 -56q36 -36 54.5 -83t18.5 -109zM485 298q0 36 -9 62.5t-26 47.5t-44 33.5t-66 12.5
q-42 0 -73.5 -15t-54.5 -40q-49 -54 -49 -143q0 -36 9 -62.5t26 -47.5t44 -33.5t66 -12.5q42 0 73.5 15t54.5 40q49 54 49 143z" />
    <glyph glyph-name="p" unicode="p" horiz-adv-x="660" 
d="M638 303q0 -80 -29 -145q-25 -55 -68 -96q-38 -36 -87 -56q-58 -24 -129 -24q-73 0 -120 26q-32 18 -55 49l-49 -242h-133l144 739h122l-6 -33q29 28 69.5 39.5t81.5 11.5q53 0 94.5 -14.5t78.5 -47.5q45 -40 65.5 -91.5t20.5 -115.5zM505 293q0 75 -39 118t-107 43
q-76 0 -125.5 -53.5t-49.5 -142.5q0 -73 38.5 -115.5t105.5 -42.5q77 0 127 53t50 140z" />
    <glyph glyph-name="q" unicode="q" horiz-adv-x="660" 
d="M665 554l-144 -739h-133l42 216q-19 -14 -30 -20q-53 -29 -119 -29q-52 0 -98 19q-37 15 -67 42q-40 36 -63 88.5t-23 119.5q0 80 29 145q25 55 68 96q38 36 86 56q58 24 128 24q80 0 131 -31q32 -19 56 -55l15 68h122zM484 298q0 71 -38.5 113.5t-106.5 42.5
q-76 0 -126 -54t-50 -142q0 -73 38.5 -115.5t105.5 -42.5q76 0 126.5 53.5t50.5 144.5z" />
    <glyph glyph-name="r" unicode="r" horiz-adv-x="320" 
d="M377 572l-25 -129q-35 0 -65.5 -13.5t-50.5 -36.5q-29 -34 -39 -84l-60 -309h-133l108 554h122l-10 -50q28 35 67 51.5t86 16.5z" />
    <glyph glyph-name="s" unicode="s" horiz-adv-x="440" 
d="M430 417l-1 -15h-133l1 13q0 17 -10 28t-29 11q-21 0 -33 -12t-12 -33q0 -27 19 -46q13 -12 48 -32q68 -37 93 -78q21 -35 21 -85q0 -49 -15.5 -81.5t-41 -55t-61 -36t-87.5 -13.5q-49 0 -82 12t-55 32q-26 24 -36 56.5t-10 64.5l1 27h133l-1 -12q0 -27 15 -44.5
t46 -17.5q28 0 44.5 17.5t16.5 42.5q0 20 -9.5 33t-25.5 24l-44 27q-62 36 -82 71t-20 82q0 73 47 122q22 23 53 36q40 17 91 17q34 0 63.5 -7.5t55.5 -33.5q40 -40 40 -114z" />
    <glyph glyph-name="t" unicode="t" horiz-adv-x="300" 
d="M345 554l-23 -118h-80l-85 -436h-133l85 436h-65l23 118h65l36 186h133l-36 -186h80z" />
    <glyph glyph-name="u" unicode="u" horiz-adv-x="600" 
d="M604 554l-108 -554h-122l9 43q-26 -25 -53 -38q-47 -23 -111 -23q-37 0 -63 8q-35 11 -62.5 37.5t-38.5 63.5t-11 74q0 38 8 83l59 306h133l-61 -313q-6 -27 -6 -54q0 -41 22 -64t62 -23q30 0 55.5 9.5t47 32t33.5 52.5q8 20 15 56l59 304h133z" />
    <glyph glyph-name="v" unicode="v" 
d="M611 554l-332 -554h-104l-116 554h143l67 -344l192 344h150z" />
    <glyph glyph-name="w" unicode="w" horiz-adv-x="800" 
d="M843 554l-266 -554h-115l-45 354l-165 -354h-115l-69 554h141l35 -314l154 314h110l44 -314l148 314h143z" />
    <glyph glyph-name="x" unicode="x" 
d="M597 554l-235 -275l144 -279h-155l-85 189l-153 -189h-159l255 295l-132 259h150l77 -169l136 169h157z" />
    <glyph glyph-name="y" unicode="y" horiz-adv-x="580" 
d="M626 554l-457 -739h-148l148 237l-105 502h143l69 -355l202 355h148z" />
    <glyph glyph-name="z" unicode="z" horiz-adv-x="460" 
d="M483 554l-23 -118l-303 -318h258l-23 -118h-422l23 118l303 318h-223l23 118h387z" />
    <glyph glyph-name="braceleft" unicode="{" horiz-adv-x="340" 
d="M398 740l-18 -90h-10q-15 0 -28.5 -3.5t-28 -15.5t-21 -29t-11.5 -41l-25 -127q-6 -31 -13 -49q-11 -27 -31 -46q-28 -26 -70 -32q33 -4 51.5 -26.5t18.5 -53.5q0 -21 -5 -49l-25 -127l-3.5 -21t-1.5 -16q0 -25 7 -35q12 -17 45 -17h18l-18 -90h-56q-26 0 -40 3
q-28 6 -46 23q-12 12 -17.5 26.5t-5.5 32.5q0 10 2 23.5t4 25.5l29 146q4 17 4 37q0 39 -27 59q-10 7 -18 10t-21 3l17 90q22 0 40.5 9.5t30.5 24t20.5 35t12.5 40.5l29 146q9 42 15 57q13 30 44 51q22 15 46.5 20.5t49.5 5.5h56z" />
    <glyph glyph-name="bar" unicode="|" horiz-adv-x="600" 
d="M360 0h-119v740h119v-740z" />
    <glyph glyph-name="braceright" unicode="}" horiz-adv-x="340" 
d="M322 351l-17 -90q-30 0 -54 -18q-38 -28 -50 -91l-29 -146q-12 -57 -32 -83q-39 -51 -123 -51h-56l18 90h10q47 0 69 32q13 19 20 57l25 127q10 49 29 77q29 43 85 50q-33 4 -51.5 26.5t-18.5 53.5q0 21 5 49l25 127l3.5 21t1.5 16q0 25 -7 35q-12 17 -45 17h-18l18 90
h56q44 0 70 -14q39 -21 39 -71q0 -10 -2 -23.5t-4 -25.5l-29 -146q-4 -17 -4 -37q0 -35 21 -55q18 -17 45 -17z" />
    <glyph glyph-name="asciitilde" unicode="~" horiz-adv-x="600" 
d="M562 348q-31 -58 -62 -85q-36 -32 -82 -32q-14 0 -35.5 4.5t-37.5 10.5l-46 20q-42 19 -58.5 25t-29.5 6q-23 0 -45 -18q-26 -22 -44 -64l-64 74q32 67 77 99q35 25 76 25q39 0 133 -44q21 -10 38.5 -16t30.5 -6q29 0 51 23q15 16 34 51z" />
    <glyph glyph-name="c128" horiz-adv-x="700" 
d="M665 247q0 -69 -28 -122q-22 -41 -57.5 -68.5t-85 -42t-100.5 -14.5h-78l25 128h69q26 0 45.5 7t35 19.5t26.5 36t11 50.5q0 19 -5.5 33.5t-14.5 25.5q-15 17 -34 22t-41 5h-137l-64 -327h-137l119 612h-137l25 128h491l-25 -128h-217l-31 -157h134q52 0 83 -9
q46 -13 78 -49q22 -24 36 -61t14 -89z" />
    <glyph glyph-name="c129" horiz-adv-x="440" 
d="M541 870l-261 -90l-39 99l263 101zM530 740l-25 -128h-228l-119 -612h-137l144 740h365z" />
    <glyph glyph-name="c141" horiz-adv-x="620" 
d="M611 870l-261 -90l-39 99l263 101zM691 740l-341 -370l202 -370h-160l-171 324l-63 -324h-137l144 740h137l-64 -325l289 325h164z" />
    <glyph glyph-name="c142" horiz-adv-x="720" 
d="M664 284q0 -13 -2 -29t-5 -34l-43 -221h-137l43 223q1 8 2.5 15.5t1.5 16.5q0 17 -4.5 31.5t-17.5 25.5t-33 15t-37 4h-136l-64 -331h-137l119 612h-137l25 128h491l-25 -128h-217l-30 -153h135q52 0 91.5 -8.5t69.5 -37.5q23 -22 35 -57.5t12 -71.5z" />
    <glyph glyph-name="c143" horiz-adv-x="680" 
d="M702 740l-144 -740h-200l-36 -185h-137l36 185h-200l144 740h137l-119 -612h263l119 612h137z" />
    <glyph glyph-name="c144" horiz-adv-x="600" 
d="M552 321q0 -35 -8 -77l-50 -256q-11 -55 -43 -96q-27 -34 -62.5 -52t-86.5 -23q-21 -2 -79 -2l23 118q20 0 40.5 3.5t36.5 12.5q21 12 31 28q7 11 11 31l48 244q5 23 5 54q0 30 -13 51q-22 35 -75 35q-58 0 -97 -42q-21 -22 -33 -52q-8 -21 -15 -56l-48 -242h-133
l117 605h-100l21 104h100l6 31h133l-6 -31h267l-21 -104h-267l-28 -146q31 28 71.5 39.5t77.5 11.5q45 0 74.5 -11.5t52.5 -33.5q29 -29 41 -71q9 -31 9 -73z" />
    <glyph glyph-name="c157" horiz-adv-x="580" 
d="M573 734l-252 -121l-48 92l251 133zM601 554l-276 -272l180 -282h-158l-158 266l-52 -266h-133l108 554h133l-50 -254l248 254h158z" />
    <glyph glyph-name="c158" horiz-adv-x="600" 
d="M552 321q0 -35 -8 -77l-48 -244h-133l50 252q2 11 3.5 20.5t1.5 25.5q0 47 -20.5 70.5t-63.5 23.5q-30 0 -54.5 -9.5t-46 -32t-33.5 -52.5q-8 -21 -15 -56l-48 -242h-133l117 605h-100l21 104h100l6 31h133l-6 -31h267l-21 -104h-267l-28 -146q31 28 71.5 39.5t77.5 11.5
q45 0 74.5 -11.5t52.5 -33.5q29 -29 41 -71q9 -31 9 -73z" />
    <glyph glyph-name="nonbreakingspace" unicode="&#xa0;" horiz-adv-x="500" 
 />
    <glyph glyph-name="exclamdown" unicode="&#xa1;" horiz-adv-x="700" 
d="M638 920q-15 -63 -71.5 -101.5t-131.5 -38.5q-80 0 -122 46q-35 38 -35 94h115q0 -20 12.5 -35t42.5 -15q62 0 75 50h115zM785 740l-469 -740h-160l126 192l-179 548h160l122 -404l240 404h160z" />
    <glyph glyph-name="cent" unicode="&#xa2;" horiz-adv-x="580" 
d="M531 756q-14 -63 -61 -99.5t-114 -36.5q-62 0 -106 30q-50 34 -50 94q1 8 1 12h100q2 -22 18 -34t42 -12q14 0 25 3q34 10 45 43h100zM626 554l-457 -739h-148l148 237l-105 502h143l69 -355l202 355h148z" />
    <glyph glyph-name="sterling" unicode="&#xa3;" horiz-adv-x="480" 
d="M502 740l-109 -562q-15 -79 -54 -125q-60 -71 -177 -71q-86 0 -132 54q-42 49 -42 126l2 28h137l-2 -16q0 -28 14 -46t40 -18q39 0 59 25q13 17 19 46l108 559h137z" />
    <glyph glyph-name="currency" unicode="&#xa4;" 
d="M544 227l-77 -79l-44 44q-30 -21 -63.5 -30t-65.5 -9q-46 0 -77 10t-57 29l-44 -44l-79 79l44 44q-21 35 -29 66.5t-8 61.5q0 35 8 67t29 64l-44 43l79 80l44 -44q36 23 67 30.5t62 7.5q45 0 76 -10t58 -28l44 44l77 -80l-44 -43q15 -22 24 -47q14 -39 14 -83
q0 -30 -6 -56q-9 -37 -32 -73zM414 400q0 50 -35.5 86.5t-87.5 36.5q-53 0 -88 -36t-35 -87q0 -50 35.5 -86.5t87.5 -36.5q53 0 88 36t35 87z" />
    <glyph glyph-name="yen" unicode="&#xa5;" horiz-adv-x="460" 
d="M576 870l-50 -258h-249l-119 -612h-137l144 740h249l25 130h137z" />
    <glyph glyph-name="brokenbar" unicode="&#xa6;" horiz-adv-x="600" 
d="M360 444h-119v296h119v-296zM360 0h-119v296h119v-296z" />
    <glyph glyph-name="section" unicode="&#xa7;" 
d="M564 614l-3 -34h-125l1 13q0 27 -18 42t-52 15q-45 0 -65 -21q-15 -16 -15 -38q0 -25 17 -43q12 -12 36 -26l90 -50q67 -37 91 -75q19 -30 19 -72q0 -59 -38 -105q-27 -32 -71 -55q16 -19 24 -40t8 -54q0 -41 -12.5 -72t-33.5 -56q-32 -37 -75 -58q-55 -26 -127 -26
q-84 0 -137 42q-60 48 -60 133l3 36h132l-3 -24q0 -35 22 -52t59 -17q53 0 79 25q20 19 20 48q0 38 -50 67l-118 68q-48 28 -73 58q-34 41 -34 93q0 67 45 118q31 35 73 54q-10 16 -14.5 33t-4.5 43q0 46 19 83q14 27 38 48q35 31 86 44q37 9 88 9q99 0 145 -55
q34 -41 34 -99zM407 297q0 20 -12 34.5t-37 29.5l-132 76q-18 -12 -27.5 -30t-9.5 -40q0 -24 14 -41q10 -12 26 -22l137 -78q18 13 29.5 32t11.5 39z" />
    <glyph glyph-name="dieresis" unicode="&#xa8;" horiz-adv-x="520" 
d="M569 920l-25 -126h-137l25 126h137zM363 920l-25 -126h-137l25 126h137zM557 740l-25 -128h-255l-34 -176h244l-25 -128h-244l-35 -180h255l-25 -128h-392l144 740h392z" />
    <glyph glyph-name="copyright" unicode="&#xa9;" horiz-adv-x="740" 
d="M768 368q0 -160 -113 -273t-272 -113q-160 0 -273 113t-113 273t112.5 272.5t273.5 112.5q159 0 272 -113t113 -272zM696 368q0 129 -92 221t-221 92q-130 0 -222 -92t-92 -221q0 -130 91 -222t223 -92q129 0 221 91t92 223zM589 463h-90q-37 54 -111 54
q-60 0 -99.5 -42.5t-39.5 -102.5q0 -61 40 -104t99 -43q29 0 55 10q32 13 52 40h92q-28 -58 -78.5 -92t-119.5 -34q-105 0 -166 73q-54 64 -54 150q0 93 63 157t155 64q69 0 122 -34.5t80 -95.5z" />
    <glyph glyph-name="ordfeminine" unicode="&#xaa;" horiz-adv-x="780" 
d="M795 528h-156q-18 46 -63 71.5t-111 25.5q-68 0 -121 -24q-42 -19 -75 -53q-22 -23 -35 -45q-18 -30 -25 -67h361l-25 -128h-350q0 -38 13.5 -72t41.5 -64q25 -27 63 -44.5t94 -17.5q78 0 137 39q33 22 56 52h159q-51 -104 -143.5 -161.5t-219.5 -57.5q-76 0 -131 20
q-66 24 -119 81q-45 48 -67.5 110t-22.5 135q0 91 31.5 171t90.5 139q63 63 144 91q69 24 156 24q118 0 202 -56.5t115 -168.5z" />
    <glyph glyph-name="guillemotleft" unicode="&#xab;" horiz-adv-x="460" 
d="M435 498l-24 -123l-78 -57l55 -59l-24 -123l-113 131l20 101zM222 498l-24 -123l-78 -57l55 -59l-24 -123l-113 131l20 101z" />
    <glyph glyph-name="logicalnot" unicode="&#xac;" horiz-adv-x="600" 
d="M562 182h-118v173h-386v118h504v-291z" />
    <glyph glyph-name="minus" unicode="&#xad;" horiz-adv-x="420" 
d="M372 377l-23 -118h-278l23 118h278z" />
    <glyph glyph-name="registered" unicode="&#xae;" horiz-adv-x="740" 
d="M768 368q0 -160 -113 -273t-272 -113q-160 0 -273 113t-113 273t112.5 272.5t273.5 112.5q159 0 272 -113t113 -272zM696 368q0 129 -92 221t-221 92q-130 0 -222 -92t-92 -221q0 -130 91 -222t223 -92q129 0 221 91t92 223zM540 152h-98l-107 158l-1 -158h-80v427h125
q94 0 134 -51q27 -34 27 -84q0 -53 -32.5 -93.5t-83.5 -40.5zM460 439q0 26 -14 42q-20 22 -65 22h-47v-127h47q45 0 64 21q15 17 15 42z" />
    <glyph glyph-name="macron" unicode="&#xaf;" horiz-adv-x="340" 
d="M461 920l-25 -126h-137l25 126h137zM275 920l-25 -126h-137l25 126h137zM333 740l-144 -740h-137l144 740h137z" />
    <glyph glyph-name="degree" unicode="&#xb0;" horiz-adv-x="400" 
d="M410 590q0 -62 -44 -106t-106 -44t-106 44t-44 106t44 106t106 44t106 -44t44 -106zM350 590q0 37 -26.5 63.5t-64.5 26.5q-37 0 -63 -26t-26 -64q0 -37 26.5 -63.5t63.5 -26.5t63.5 26.5t26.5 63.5z" />
    <glyph glyph-name="plusminus" unicode="&#xb1;" horiz-adv-x="600" 
d="M562 317h-194v-143h-116v143h-194v116h194v137h116v-137h194v-116zM562 0h-504v116h504v-116z" />
    <glyph glyph-name="twosuperior" unicode="&#xb2;" horiz-adv-x="280" 
d="M302 740l-144 -740h-137l144 740h137z" />
    <glyph glyph-name="threesuperior" unicode="&#xb3;" horiz-adv-x="240" 
d="M281 740l-24 -122h-133l24 122h133zM245 554l-108 -554h-133l108 554h133z" />
    <glyph glyph-name="acute" unicode="&#xb4;" horiz-adv-x="400" 
d="M468 670l-45 -234h-201l-85 -436h-133l108 554h201l22 116h133z" />
    <glyph glyph-name="mu" unicode="&#xb5;" horiz-adv-x="576" 
d="M581 554l-108 -554h-122l11 59q-21 -33 -48 -52q-35 -25 -78 -25q-24 0 -42 8q-34 15 -48 53l-45 -228h-133l144 739h133l-53 -272q-4 -19 -7.5 -41t-3.5 -39q0 -40 19 -64q12 -14 29 -20t31 -6q23 0 44.5 9t41 31.5t32.5 59.5q8 24 17 70l53 272h133z" />
    <glyph glyph-name="paragraph" unicode="&#xb6;" horiz-adv-x="600" 
d="M621 740l-169 -868h-103l148 761h-82l-148 -761h-100l89 458q-72 0 -121 47t-49 124q0 60 23 105t65 77.5t99 46.5q42 10 95 10h253z" />
    <glyph glyph-name="periodcentered" unicode="&#xb7;" horiz-adv-x="280" 
d="M230 384l-26 -133h-133l26 133h133z" />
    <glyph glyph-name="periodcentered" unicode="&#x2219;" horiz-adv-x="280" 
d="M230 384l-26 -133h-133l26 133h133z" />
    <glyph glyph-name="cedilla" unicode="&#xb8;" horiz-adv-x="640" 
d="M571 740l-23 -120h-133l23 120h133zM361 740l-23 -120h-133l23 120h133zM618 302q0 -42 -9 -84h-439q0 -16 9.5 -38.5t29.5 -41.5t45.5 -28.5t59.5 -9.5q26 0 43 4.5t35 14t28.5 19.5t18.5 22h150q-16 -36 -40 -66t-59 -56t-85 -41t-112 -15q-55 0 -96 14q-52 18 -93 60
q-29 31 -48 71q-26 55 -26 119q0 75 25.5 136.5t72 106.5t109.5 66q52 17 116 17q57 0 99 -13q57 -18 97 -60q31 -33 50 -82t19 -115zM485 336q-3 27 -13.5 48.5t-26 35.5t-34.5 22q-28 12 -62 12q-68 0 -113 -36q-39 -31 -54 -82h303z" />
    <glyph glyph-name="onesuperior" unicode="&#xb9;" horiz-adv-x="1100" 
d="M1137 580q0 -84 -52 -140q-56 -60 -147 -60q-80 0 -123 50q-38 44 -38 110q0 81 47 136q55 64 152 64q69 0 115 -44t46 -116zM1077 326l-23 -120h-330l23 120h330zM761 740l-144 -740h-170l-183 549l-107 -549h-137l144 740h170l183 -550l107 550h137zM1036 567
q0 32 -17 53q-20 24 -57 24q-42 0 -66 -32q-20 -27 -20 -59t19 -54.5t56 -22.5q36 0 60.5 23t24.5 68z" />
    <glyph glyph-name="ordmasculine" unicode="&#xba;" horiz-adv-x="640" 
d="M614 370h-146q-13 40 -47 62t-81 22q-80 0 -128 -54q-13 -15 -22 -32.5t-13 -31.5h239l-23 -118h-226q3 -26 15 -48q7 -13 20 -27q19 -20 45 -31.5t65 -11.5q55 0 92 25q30 20 47 55h144q-29 -89 -100 -141q-78 -57 -196 -57q-58 0 -106 15t-88.5 55t-57.5 89.5
t-17 106.5q0 79 29 144q24 54 65 95q50 49 112 69q50 16 117 16q124 0 194 -70q54 -53 67 -132z" />
    <glyph glyph-name="guillemotright" unicode="&#xbb;" horiz-adv-x="460" 
d="M446 368l-20 -101l-165 -131l24 123l80 59l-57 57l24 123zM233 368l-20 -101l-165 -131l24 123l80 59l-57 57l24 123z" />
    <glyph glyph-name="onequarter" unicode="&#xbc;" horiz-adv-x="260" 
d="M301 740l-24 -122h-133l24 122h133zM265 554l-111 -566q-11 -55 -43 -96q-27 -34 -62.5 -52t-86.5 -23q-21 -2 -79 -2l23 118q6 -1 19 -1q38 0 62 15q30 20 38 61l107 546h133z" />
    <glyph glyph-name="onehalf" unicode="&#xbd;" horiz-adv-x="520" 
d="M524 574l-3 -40h-137l3 20q0 13 -3.5 25.5t-12.5 24.5t-22 16.5t-27 4.5q-19 0 -30 -4t-23 -13.5t-18.5 -24.5t-6.5 -38q0 -40 38 -74q16 -14 69.5 -51.5t79.5 -71.5q43 -56 43 -133q0 -98 -63 -163q-31 -31 -71 -48q-52 -22 -120 -22q-45 0 -82 11t-69 42q-25 24 -39 52
q-20 40 -20 92l2 33h137q-2 -8 -2 -23q0 -31 20 -54q14 -15 29.5 -20t33.5 -5q26 0 43 5.5t34 23.5q24 26 24 60q0 32 -12.5 53t-38.5 45q-13 12 -28 23q-20 14 -29 21q-65 48 -89 85q-27 41 -27 100q0 62 25 111q18 35 47 61q37 32 78.5 43.5t84.5 11.5q42 0 73 -10
q42 -14 70 -47q18 -21 28.5 -52.5t10.5 -69.5z" />
    <glyph glyph-name="threequarters" unicode="&#xbe;" horiz-adv-x="440" 
d="M430 417l-1 -15h-133l1 13q0 17 -10 28t-29 11q-21 0 -33 -12t-12 -33q0 -27 19 -46q13 -12 48 -32q68 -37 93 -78q21 -35 21 -85q0 -49 -15.5 -81.5t-41 -55t-61 -36t-87.5 -13.5q-49 0 -82 12t-55 32q-26 24 -36 56.5t-10 64.5l1 27h133l-1 -12q0 -27 15 -44.5
t46 -17.5q28 0 44.5 17.5t16.5 42.5q0 20 -9.5 33t-25.5 24l-44 27q-62 36 -82 71t-20 82q0 73 47 122q22 23 53 36q40 17 91 17q34 0 63.5 -7.5t55.5 -33.5q40 -40 40 -114z" />
    <glyph glyph-name="questiondown" unicode="&#xbf;" horiz-adv-x="340" 
d="M416 740l-23 -120h-133l23 120h133zM246 740l-23 -120h-133l23 120h133zM295 554l-108 -554h-133l108 554h133z" />
    <glyph glyph-name="Agrave" unicode="&#xc0;" horiz-adv-x="740" 
d="M683 0h-147l-36 196h-280l-107 -196h-156l432 740h147zM481 324l-48 264l-146 -264h194z" />
    <glyph glyph-name="Agrave" unicode="&#x410;" horiz-adv-x="740" 
d="M683 0h-147l-36 196h-280l-107 -196h-156l432 740h147zM481 324l-48 264l-146 -264h194z" />
    <glyph glyph-name="Aacute" unicode="&#xc1;" horiz-adv-x="600" 
d="M596 740l-25 -128h-294l-31 -159h102q50 0 83 -9q50 -14 84 -50q29 -30 42 -74q10 -34 10 -71q0 -60 -21 -109t-71 -86q-43 -32 -99 -45q-39 -9 -80 -9h-275l144 740h431zM430 238q0 19 -4 32t-18.5 29t-33.5 21t-40 5h-113l-38 -197h129q20 0 40 5t39.5 20.5t29 37.5
t9.5 47z" />
    <glyph glyph-name="Aacute" unicode="&#x411;" horiz-adv-x="600" 
d="M596 740l-25 -128h-294l-31 -159h102q50 0 83 -9q50 -14 84 -50q29 -30 42 -74q10 -34 10 -71q0 -60 -21 -109t-71 -86q-43 -32 -99 -45q-39 -9 -80 -9h-275l144 740h431zM430 238q0 19 -4 32t-18.5 29t-33.5 21t-40 5h-113l-38 -197h129q20 0 40 5t39.5 20.5t29 37.5
t9.5 47z" />
    <glyph glyph-name="Acircumflex" unicode="&#xc2;" horiz-adv-x="580" 
d="M562 578q0 -65 -33 -113t-92 -69q46 -15 72.5 -51.5t26.5 -97.5q0 -66 -27 -118q-21 -41 -59 -72.5t-88 -45.5q-40 -11 -89 -11h-252l144 740h201q41 0 69 -6q46 -10 77 -37q24 -20 37 -48.5t13 -70.5zM425 542q0 17 -6 30.5t-14 21.5q-12 11 -28.5 14.5t-33.5 3.5h-66
l-31 -160h77q25 0 43 6.5t29 15.5q30 25 30 68zM399 241q0 17 -3.5 30.5t-16 27.5t-30.5 19.5t-38 5.5h-90l-38 -196h102q23 0 42 6.5t35 20.5q21 18 29 39t8 47z" />
    <glyph glyph-name="Acircumflex" unicode="&#x412;" horiz-adv-x="580" 
d="M562 578q0 -65 -33 -113t-92 -69q46 -15 72.5 -51.5t26.5 -97.5q0 -66 -27 -118q-21 -41 -59 -72.5t-88 -45.5q-40 -11 -89 -11h-252l144 740h201q41 0 69 -6q46 -10 77 -37q24 -20 37 -48.5t13 -70.5zM425 542q0 17 -6 30.5t-14 21.5q-12 11 -28.5 14.5t-33.5 3.5h-66
l-31 -160h77q25 0 43 6.5t29 15.5q30 25 30 68zM399 241q0 17 -3.5 30.5t-16 27.5t-30.5 19.5t-38 5.5h-90l-38 -196h102q23 0 42 6.5t35 20.5q21 18 29 39t8 47z" />
    <glyph glyph-name="Atilde" unicode="&#xc3;" horiz-adv-x="440" 
d="M530 740l-25 -128h-228l-119 -612h-137l144 740h365z" />
    <glyph glyph-name="Atilde" unicode="&#x413;" horiz-adv-x="440" 
d="M530 740l-25 -128h-228l-119 -612h-137l144 740h365z" />
    <glyph glyph-name="Adieresis" unicode="&#xc4;" horiz-adv-x="820" 
d="M789 128l-52 -268h-137l27 140h-534l-27 -140h-137l52 268h70l367 612h160l141 -612h70zM575 128l-99 460l-265 -460h364z" />
    <glyph glyph-name="Adieresis" unicode="&#x414;" horiz-adv-x="820" 
d="M789 128l-52 -268h-137l27 140h-534l-27 -140h-137l52 268h70l367 612h160l141 -612h70zM575 128l-99 460l-265 -460h364z" />
    <glyph glyph-name="Aring" unicode="&#xc5;" horiz-adv-x="520" 
d="M557 740l-25 -128h-255l-34 -176h244l-25 -128h-244l-35 -180h255l-25 -128h-392l144 740h392z" />
    <glyph glyph-name="Aring" unicode="&#x415;" horiz-adv-x="520" 
d="M557 740l-25 -128h-255l-34 -176h244l-25 -128h-244l-35 -180h255l-25 -128h-392l144 740h392z" />
    <glyph glyph-name="AE" unicode="&#xc6;" horiz-adv-x="940" 
d="M1002 740l-324 -368l190 -372h-160l-157 324l-63 -324h-137l63 324l-273 -324h-170l335 380l-191 360h156l161 -321l63 321h137l-63 -321l269 321h164z" />
    <glyph glyph-name="AE" unicode="&#x416;" horiz-adv-x="940" 
d="M1002 740l-324 -368l190 -372h-160l-157 324l-63 -324h-137l63 324l-273 -324h-170l335 380l-191 360h156l161 -321l63 321h137l-63 -321l269 321h164z" />
    <glyph glyph-name="Ccedilla" unicode="&#xc7;" 
d="M562 575q0 -37 -12.5 -69t-34.5 -58q-36 -39 -89 -57q43 -14 68 -48q15 -21 22.5 -49.5t7.5 -57.5q0 -58 -23 -105.5t-62 -80.5q-44 -37 -104 -51q-42 -10 -99 -10q-44 0 -79.5 10t-66.5 36q-38 32 -55 75q-13 33 -13 77v19t2 22h137l-2 -18q0 -34 18 -58
q12 -16 32 -25.5t48 -9.5q58 0 93 30q15 13 26 33.5t11 49.5q0 24 -5.5 39.5t-15.5 26.5q-15 15 -31.5 20t-39.5 5h-65l24 128h64q22 0 40.5 5t36 20t24 31.5t6.5 34.5q0 21 -4.5 35t-19.5 28q-10 9 -27.5 15.5t-41.5 6.5q-19 0 -36 -4.5t-34 -17.5q-10 -8 -20.5 -23
t-14.5 -33h-137q11 49 33.5 87t56 65t80.5 40.5t98 13.5q54 0 96 -17q35 -14 59 -38q21 -21 33 -46q16 -34 16 -77z" />
    <glyph glyph-name="Ccedilla" unicode="&#x417;" 
d="M562 575q0 -37 -12.5 -69t-34.5 -58q-36 -39 -89 -57q43 -14 68 -48q15 -21 22.5 -49.5t7.5 -57.5q0 -58 -23 -105.5t-62 -80.5q-44 -37 -104 -51q-42 -10 -99 -10q-44 0 -79.5 10t-66.5 36q-38 32 -55 75q-13 33 -13 77v19t2 22h137l-2 -18q0 -34 18 -58
q12 -16 32 -25.5t48 -9.5q58 0 93 30q15 13 26 33.5t11 49.5q0 24 -5.5 39.5t-15.5 26.5q-15 15 -31.5 20t-39.5 5h-65l24 128h64q22 0 40.5 5t36 20t24 31.5t6.5 34.5q0 21 -4.5 35t-19.5 28q-10 9 -27.5 15.5t-41.5 6.5q-19 0 -36 -4.5t-34 -17.5q-10 -8 -20.5 -23
t-14.5 -33h-137q11 49 33.5 87t56 65t80.5 40.5t98 13.5q54 0 96 -17q35 -14 59 -38q21 -21 33 -46q16 -34 16 -77z" />
    <glyph glyph-name="Egrave" unicode="&#xc8;" horiz-adv-x="740" 
d="M762 740l-144 -740h-137l99 510l-422 -510h-137l144 740h137l-99 -510l422 510h137z" />
    <glyph glyph-name="Egrave" unicode="&#x418;" horiz-adv-x="740" 
d="M762 740l-144 -740h-137l99 510l-422 -510h-137l144 740h137l-99 -510l422 510h137z" />
    <glyph glyph-name="Eacute" unicode="&#xc9;" horiz-adv-x="740" 
d="M678 920q-15 -63 -71.5 -101.5t-131.5 -38.5q-80 0 -122 46q-35 38 -35 94h115q0 -20 12.5 -35t42.5 -15q62 0 75 50h115zM762 740l-144 -740h-137l99 510l-422 -510h-137l144 740h137l-99 -510l422 510h137z" />
    <glyph glyph-name="Eacute" unicode="&#x419;" horiz-adv-x="740" 
d="M678 920q-15 -63 -71.5 -101.5t-131.5 -38.5q-80 0 -122 46q-35 38 -35 94h115q0 -20 12.5 -35t42.5 -15q62 0 75 50h115zM762 740l-144 -740h-137l99 510l-422 -510h-137l144 740h137l-99 -510l422 510h137z" />
    <glyph glyph-name="Ecircumflex" unicode="&#xca;" horiz-adv-x="620" 
d="M691 740l-341 -370l202 -370h-160l-171 324l-63 -324h-137l144 740h137l-64 -325l289 325h164z" />
    <glyph glyph-name="Ecircumflex" unicode="&#x41a;" horiz-adv-x="620" 
d="M691 740l-341 -370l202 -370h-160l-171 324l-63 -324h-137l144 740h137l-64 -325l289 325h164z" />
    <glyph glyph-name="Edieresis" unicode="&#xcb;" horiz-adv-x="720" 
d="M663 0h-144l-95 588l-307 -588h-160l409 740h160z" />
    <glyph glyph-name="Edieresis" unicode="&#x41b;" horiz-adv-x="720" 
d="M663 0h-144l-95 588l-307 -588h-160l409 740h160z" />
    <glyph glyph-name="Igrave" unicode="&#xcc;" horiz-adv-x="920" 
d="M942 740l-144 -740h-137l108 554l-295 -554h-129l-79 554l-108 -554h-137l144 740h196l84 -566l301 566h196z" />
    <glyph glyph-name="Igrave" unicode="&#x41c;" horiz-adv-x="920" 
d="M942 740l-144 -740h-137l108 554l-295 -554h-129l-79 554l-108 -554h-137l144 740h196l84 -566l301 566h196z" />
    <glyph glyph-name="Iacute" unicode="&#xcd;" horiz-adv-x="680" 
d="M702 740l-144 -740h-137l61 315h-263l-61 -315h-137l144 740h137l-58 -297h263l58 297h137z" />
    <glyph glyph-name="Iacute" unicode="&#x41d;" horiz-adv-x="680" 
d="M702 740l-144 -740h-137l61 315h-263l-61 -315h-137l144 740h137l-58 -297h263l58 297h137z" />
    <glyph glyph-name="Icircumflex" unicode="&#xce;" horiz-adv-x="840" 
d="M826 407q0 -90 -32 -169.5t-93.5 -141.5t-140.5 -90q-68 -24 -160 -24q-77 0 -135 21q-67 24 -119 80q-42 44 -64 100q-26 65 -26 145q0 90 32 169.5t93.5 141.5t140.5 90q68 24 160 24q77 0 139.5 -22.5t114.5 -78.5q42 -44 64 -100q26 -65 26 -145zM689 403
q0 51 -16 92t-41 68q-33 36 -81 51q-35 11 -80 11q-71 0 -122 -23t-89 -68q-34 -39 -50.5 -92.5t-16.5 -109.5q0 -51 16 -92t41 -68q33 -36 81 -51q35 -11 80 -11q71 0 122 23t89 68q34 39 50.5 92.5t16.5 109.5z" />
    <glyph glyph-name="Icircumflex" unicode="&#x41e;" horiz-adv-x="840" 
d="M826 407q0 -90 -32 -169.5t-93.5 -141.5t-140.5 -90q-68 -24 -160 -24q-77 0 -135 21q-67 24 -119 80q-42 44 -64 100q-26 65 -26 145q0 90 32 169.5t93.5 141.5t140.5 90q68 24 160 24q77 0 139.5 -22.5t114.5 -78.5q42 -44 64 -100q26 -65 26 -145zM689 403
q0 51 -16 92t-41 68q-33 36 -81 51q-35 11 -80 11q-71 0 -122 -23t-89 -68q-34 -39 -50.5 -92.5t-16.5 -109.5q0 -51 16 -92t41 -68q33 -36 81 -51q35 -11 80 -11q71 0 122 23t89 68q34 39 50.5 92.5t16.5 109.5z" />
    <glyph glyph-name="Idieresis" unicode="&#xcf;" horiz-adv-x="680" 
d="M702 740l-144 -740h-137l119 612h-263l-119 -612h-137l144 740h537z" />
    <glyph glyph-name="Idieresis" unicode="&#x41f;" horiz-adv-x="680" 
d="M702 740l-144 -740h-137l119 612h-263l-119 -612h-137l144 740h537z" />
    <glyph glyph-name="Eth" unicode="&#xd0;" 
d="M593 539q0 -74 -30 -130q-22 -41 -60.5 -72.5t-91.5 -45.5q-41 -11 -88 -11h-111l-54 -280h-137l144 740h217q51 0 81 -8q47 -12 80 -47q21 -22 33 -51q17 -41 17 -95zM456 521q0 19 -4 35t-18 31t-31 20t-38 5h-88l-39 -204h102q25 0 44.5 7t34 19t23.5 29q14 26 14 58z
" />
    <glyph glyph-name="Eth" unicode="&#x420;" 
d="M593 539q0 -74 -30 -130q-22 -41 -60.5 -72.5t-91.5 -45.5q-41 -11 -88 -11h-111l-54 -280h-137l144 740h217q51 0 81 -8q47 -12 80 -47q21 -22 33 -51q17 -41 17 -95zM456 521q0 19 -4 35t-18 31t-31 20t-38 5h-88l-39 -204h102q25 0 44.5 7t34 19t23.5 29q14 26 14 58z
" />
    <glyph glyph-name="Ntilde" unicode="&#xd1;" horiz-adv-x="780" 
d="M795 528h-156q-18 46 -63 71.5t-110 25.5q-69 0 -121 -24t-86 -65.5t-50 -94t-16 -109.5q0 -41 10 -76q14 -49 47 -84q26 -28 59 -43q41 -19 94 -19q57 0 106 21q56 24 91 70h159q-51 -104 -143.5 -161.5t-219.5 -57.5q-76 0 -131 20q-66 24 -119 81q-45 49 -67.5 110
t-22.5 134q0 92 31 171t92.5 141t142.5 90q69 24 156 24q118 0 202 -56.5t115 -168.5z" />
    <glyph glyph-name="Ntilde" unicode="&#x421;" horiz-adv-x="780" 
d="M795 528h-156q-18 46 -63 71.5t-110 25.5q-69 0 -121 -24t-86 -65.5t-50 -94t-16 -109.5q0 -41 10 -76q14 -49 47 -84q26 -28 59 -43q41 -19 94 -19q57 0 106 21q56 24 91 70h159q-51 -104 -143.5 -161.5t-219.5 -57.5q-76 0 -131 20q-66 24 -119 81q-45 49 -67.5 110
t-22.5 134q0 92 31 171t92.5 141t142.5 90q69 24 156 24q118 0 202 -56.5t115 -168.5z" />
    <glyph glyph-name="Ograve" unicode="&#xd2;" horiz-adv-x="420" 
d="M510 740l-25 -128h-137l-119 -612h-137l119 612h-137l25 128h411z" />
    <glyph glyph-name="Ograve" unicode="&#x422;" horiz-adv-x="420" 
d="M510 740l-25 -128h-137l-119 -612h-137l119 612h-137l25 128h411z" />
    <glyph glyph-name="Oacute" unicode="&#xd3;" horiz-adv-x="700" 
d="M785 740l-469 -740h-160l126 192l-179 548h160l122 -404l240 404h160z" />
    <glyph glyph-name="Oacute" unicode="&#x423;" horiz-adv-x="700" 
d="M785 740l-469 -740h-160l126 192l-179 548h160l122 -404l240 404h160z" />
    <glyph glyph-name="Ocircumflex" unicode="&#xd4;" horiz-adv-x="860" 
d="M847 413q0 -112 -52 -193q-42 -66 -113 -104q-48 -27 -108 -38t-116 -11l-20 -104h-137l20 104q-58 0 -112 26q-46 22 -79.5 57.5t-51.5 81.5q-22 56 -22 129q0 112 52 193q42 66 113 104q48 27 108 38t116 11l19 93h137l-19 -93q58 0 112 -26q46 -22 79.5 -57.5
t51.5 -81.5q22 -56 22 -129zM710 412q0 34 -8 61q-11 36 -35 62q-15 16 -40 28q-33 16 -70 16l-74 -384q51 0 84 9t59 26q32 22 54 60q30 53 30 122zM420 579q-51 0 -84 -9t-59 -26q-32 -22 -54 -60q-30 -53 -30 -122q0 -34 9.5 -65.5t33.5 -57.5q15 -16 40 -28
q33 -16 70 -16z" />
    <glyph glyph-name="Ocircumflex" unicode="&#x424;" horiz-adv-x="860" 
d="M847 413q0 -112 -52 -193q-42 -66 -113 -104q-48 -27 -108 -38t-116 -11l-20 -104h-137l20 104q-58 0 -112 26q-46 22 -79.5 57.5t-51.5 81.5q-22 56 -22 129q0 112 52 193q42 66 113 104q48 27 108 38t116 11l19 93h137l-19 -93q58 0 112 -26q46 -22 79.5 -57.5
t51.5 -81.5q22 -56 22 -129zM710 412q0 34 -8 61q-11 36 -35 62q-15 16 -40 28q-33 16 -70 16l-74 -384q51 0 84 9t59 26q32 22 54 60q30 53 30 122zM420 579q-51 0 -84 -9t-59 -26q-32 -22 -54 -60q-30 -53 -30 -122q0 -34 9.5 -65.5t33.5 -57.5q15 -16 40 -28
q33 -16 70 -16z" />
    <glyph glyph-name="Otilde" unicode="&#xd5;" horiz-adv-x="680" 
d="M770 740l-328 -370l184 -370h-156l-128 266l-223 -266h-164l327 370l-183 370h156l127 -267l224 267h164z" />
    <glyph glyph-name="Otilde" unicode="&#x425;" horiz-adv-x="680" 
d="M770 740l-328 -370l184 -370h-156l-128 266l-223 -266h-164l327 370l-183 370h156l127 -267l224 267h164z" />
    <glyph glyph-name="Odieresis" unicode="&#xd6;" horiz-adv-x="700" 
d="M702 740l-119 -612h84l-52 -268h-137l27 140h-484l144 740h137l-119 -612h263l119 612h137z" />
    <glyph glyph-name="Odieresis" unicode="&#x426;" horiz-adv-x="700" 
d="M702 740l-119 -612h84l-52 -268h-137l27 140h-484l144 740h137l-119 -612h263l119 612h137z" />
    <glyph glyph-name="multiply" unicode="&#xd7;" horiz-adv-x="620" 
d="M642 740l-144 -740h-137l55 285h-124q-100 0 -154 44.5t-54 121.5q0 32 8 72l42 217h137l-43 -222q-4 -19 -4.5 -24t-0.5 -20q0 -41 37 -56q20 -8 57 -8h124l64 330h137z" />
    <glyph glyph-name="multiply" unicode="&#x427;" horiz-adv-x="620" 
d="M642 740l-144 -740h-137l55 285h-124q-100 0 -154 44.5t-54 121.5q0 32 8 72l42 217h137l-43 -222q-4 -19 -4.5 -24t-0.5 -20q0 -41 37 -56q20 -8 57 -8h124l64 330h137z" />
    <glyph glyph-name="Oslash" unicode="&#xd8;" horiz-adv-x="1000" 
d="M1022 740l-144 -740h-857l144 740h137l-119 -612h223l119 612h137l-119 -612h223l119 612h137z" />
    <glyph glyph-name="Oslash" unicode="&#x428;" horiz-adv-x="1000" 
d="M1022 740l-144 -740h-857l144 740h137l-119 -612h223l119 612h137l-119 -612h223l119 612h137z" />
    <glyph glyph-name="Ugrave" unicode="&#xd9;" horiz-adv-x="1020" 
d="M1022 740l-119 -612h84l-52 -268h-137l27 140h-804l144 740h137l-119 -612h223l119 612h137l-119 -612h223l119 612h137z" />
    <glyph glyph-name="Ugrave" unicode="&#x429;" horiz-adv-x="1020" 
d="M1022 740l-119 -612h84l-52 -268h-137l27 140h-804l144 740h137l-119 -612h223l119 612h137l-119 -612h223l119 612h137z" />
    <glyph glyph-name="Uacute" unicode="&#xda;" horiz-adv-x="680" 
d="M660 247q0 -69 -28 -122q-22 -41 -57.5 -68.5t-85 -42t-100.5 -14.5h-268l119 612h-160l25 128h297l-56 -285h97q55 0 87 -9q47 -13 80 -49q22 -24 36 -61t14 -89zM523 243q0 15 -4 29t-17 28q-16 17 -35.5 22t-40.5 5h-104l-39 -199h122q26 0 45.5 7t33.5 18
q18 15 28.5 38t10.5 52z" />
    <glyph glyph-name="Uacute" unicode="&#x42a;" horiz-adv-x="680" 
d="M660 247q0 -69 -28 -122q-22 -41 -57.5 -68.5t-85 -42t-100.5 -14.5h-268l119 612h-160l25 128h297l-56 -285h97q55 0 87 -9q47 -13 80 -49q22 -24 36 -61t14 -89zM523 243q0 15 -4 29t-17 28q-16 17 -35.5 22t-40.5 5h-104l-39 -199h122q26 0 45.5 7t33.5 18
q18 15 28.5 38t10.5 52z" />
    <glyph glyph-name="Ucircumflex" unicode="&#xdb;" horiz-adv-x="840" 
d="M862 740l-144 -740h-137l144 740h137zM560 243q0 -68 -27 -118q-22 -41 -60 -70q-34 -26 -83.5 -40.5t-100.5 -14.5h-268l144 740h137l-56 -285h103q52 0 83 -9q46 -13 78 -49q21 -24 35.5 -62.5t14.5 -91.5zM423 235q0 22 -5 37.5t-15 27.5q-15 17 -34.5 22t-40.5 5
h-106l-39 -199h122q26 0 45.5 7t33.5 18q39 33 39 82z" />
    <glyph glyph-name="Ucircumflex" unicode="&#x42b;" horiz-adv-x="840" 
d="M862 740l-144 -740h-137l144 740h137zM560 243q0 -68 -27 -118q-22 -41 -60 -70q-34 -26 -83.5 -40.5t-100.5 -14.5h-268l144 740h137l-56 -285h103q52 0 83 -9q46 -13 78 -49q21 -24 35.5 -62.5t14.5 -91.5zM423 235q0 22 -5 37.5t-15 27.5q-15 17 -34.5 22t-40.5 5
h-106l-39 -199h122q26 0 45.5 7t33.5 18q39 33 39 82z" />
    <glyph glyph-name="Udieresis" unicode="&#xdc;" horiz-adv-x="580" 
d="M560 251q0 -70 -28 -124q-23 -44 -58 -71t-84.5 -41.5t-100.5 -14.5h-268l144 740h137l-56 -285h103q52 0 83 -9q46 -13 78 -49q21 -23 33 -52q17 -41 17 -94zM423 241q0 19 -5.5 33.5t-14.5 25.5q-15 17 -34 22t-41 5h-106l-39 -199h122q26 0 45.5 7t35 19.5t26.5 36
t11 50.5z" />
    <glyph glyph-name="Udieresis" unicode="&#x42c;" horiz-adv-x="580" 
d="M560 251q0 -70 -28 -124q-23 -44 -58 -71t-84.5 -41.5t-100.5 -14.5h-268l144 740h137l-56 -285h103q52 0 83 -9q46 -13 78 -49q21 -23 33 -52q17 -41 17 -94zM423 241q0 19 -5.5 33.5t-14.5 25.5q-15 17 -34 22t-41 5h-106l-39 -199h122q26 0 45.5 7t35 19.5t26.5 36
t11 50.5z" />
    <glyph glyph-name="Yacute" unicode="&#xdd;" horiz-adv-x="780" 
d="M766 407q0 -91 -31.5 -171t-90.5 -139q-62 -63 -144 -91q-70 -24 -160 -24q-116 0 -196 53q-86 57 -117 166h156q20 -44 63 -67.5t111 -23.5q65 0 115.5 21t91.5 70q16 19 30.5 46.5t21.5 60.5h-344l25 128h329q0 38 -14.5 69t-39.5 58q-33 36 -81 51q-35 11 -80 11
q-77 0 -133 -39q-32 -22 -56 -58h-159q45 97 122 153q60 44 136 61q48 11 101 11q81 0 141 -21.5t113 -79.5q45 -48 67.5 -110t22.5 -135z" />
    <glyph glyph-name="Yacute" unicode="&#x42d;" horiz-adv-x="780" 
d="M766 407q0 -91 -31.5 -171t-90.5 -139q-62 -63 -144 -91q-70 -24 -160 -24q-116 0 -196 53q-86 57 -117 166h156q20 -44 63 -67.5t111 -23.5q65 0 115.5 21t91.5 70q16 19 30.5 46.5t21.5 60.5h-344l25 128h329q0 38 -14.5 69t-39.5 58q-33 36 -81 51q-35 11 -80 11
q-77 0 -133 -39q-32 -22 -56 -58h-159q45 97 122 153q60 44 136 61q48 11 101 11q81 0 141 -21.5t113 -79.5q45 -48 67.5 -110t22.5 -135z" />
    <glyph glyph-name="Thorn" unicode="&#xde;" horiz-adv-x="1120" 
d="M1106 407q0 -90 -32 -169.5t-93 -141.5t-141 -90q-69 -24 -160 -24q-78 0 -136 21q-66 24 -118 80q-34 36 -55 79q-35 70 -35 153h-117l-61 -315h-137l144 740h137l-58 -297h106q31 114 110 195q63 63 142 91q69 24 160 24q77 0 139.5 -22.5t114.5 -78.5q42 -44 64 -100
q26 -65 26 -145zM969 403q0 51 -16 92t-41 68q-33 36 -81 51q-35 11 -80 11q-71 0 -122 -23t-89 -68q-34 -39 -50.5 -92.5t-16.5 -109.5q0 -51 16 -92t41 -68q33 -36 81 -51q35 -11 80 -11q71 0 122 23t89 68q34 39 50.5 92.5t16.5 109.5z" />
    <glyph glyph-name="Thorn" unicode="&#x42e;" horiz-adv-x="1120" 
d="M1106 407q0 -90 -32 -169.5t-93 -141.5t-141 -90q-69 -24 -160 -24q-78 0 -136 21q-66 24 -118 80q-34 36 -55 79q-35 70 -35 153h-117l-61 -315h-137l144 740h137l-58 -297h106q31 114 110 195q63 63 142 91q69 24 160 24q77 0 139.5 -22.5t114.5 -78.5q42 -44 64 -100
q26 -65 26 -145zM969 403q0 51 -16 92t-41 68q-33 36 -81 51q-35 11 -80 11q-71 0 -122 -23t-89 -68q-34 -39 -50.5 -92.5t-16.5 -109.5q0 -51 16 -92t41 -68q33 -36 81 -51q35 -11 80 -11q71 0 122 23t89 68q34 39 50.5 92.5t16.5 109.5z" />
    <glyph glyph-name="germandbls" unicode="&#xdf;" horiz-adv-x="600" 
d="M622 740l-144 -740h-137l57 295l-243 -295h-170l248 282q-31 5 -56.5 18.5t-45.5 34.5q-23 24 -36 57q-16 41 -16 91q0 56 23 108t67 88.5t101 50.5q42 10 108 10h244zM460 612h-109q-32 0 -52.5 -7t-39 -22t-30.5 -38.5t-12 -56.5q0 -25 6.5 -41t18.5 -29q17 -17 39 -23
q12 -3 38 -3h98z" />
    <glyph glyph-name="germandbls" unicode="&#x42f;" horiz-adv-x="600" 
d="M622 740l-144 -740h-137l57 295l-243 -295h-170l248 282q-31 5 -56.5 18.5t-45.5 34.5q-23 24 -36 57q-16 41 -16 91q0 56 23 108t67 88.5t101 50.5q42 10 108 10h244zM460 612h-109q-32 0 -52.5 -7t-39 -22t-30.5 -38.5t-12 -56.5q0 -25 6.5 -41t18.5 -29q17 -17 39 -23
q12 -3 38 -3h98z" />
    <glyph glyph-name="agrave" unicode="&#xe0;" horiz-adv-x="660" 
d="M665 554l-108 -554h-122l6 33q-29 -28 -75 -41q-35 -10 -77 -10q-52 0 -96.5 17t-76.5 45q-36 32 -58 76q-28 57 -28 131q0 80 29 145q25 55 68 96q38 36 87 56q58 24 125 24q80 0 133 -32q34 -21 56 -54l15 68h122zM484 294q0 74 -39 117t-106 43q-83 0 -132 -62
q-44 -56 -44 -136q0 -71 38.5 -113.5t104.5 -42.5q78 0 128 53t50 141z" />
    <glyph glyph-name="agrave" unicode="&#x430;" horiz-adv-x="660" 
d="M665 554l-108 -554h-122l6 33q-29 -28 -75 -41q-35 -10 -77 -10q-52 0 -96.5 17t-76.5 45q-36 32 -58 76q-28 57 -28 131q0 80 29 145q25 55 68 96q38 36 87 56q58 24 125 24q80 0 133 -32q34 -21 56 -54l15 68h122zM484 294q0 74 -39 117t-106 43q-83 0 -132 -62
q-44 -56 -44 -136q0 -71 38.5 -113.5t104.5 -42.5q78 0 128 53t50 141z" />
    <glyph glyph-name="aacute" unicode="&#xe1;" horiz-adv-x="640" 
d="M684 740l-31 -118l-252 -5q-60 0 -112 -22q-31 -13 -60 -36q-25 -19 -46 -48t-34 -67q49 58 115 83q49 19 102 19t99 -14.5t84 -53.5q31 -31 48 -71q21 -49 21 -112q0 -69 -24.5 -129t-68.5 -102q-35 -35 -83 -55q-63 -27 -141 -27q-55 0 -100 15q-55 18 -93 57t-58 93
t-20 129q0 114 37 211q44 116 130 179q53 39 118 56q50 13 112 13zM484 283q0 34 -9 59t-25 42q-19 21 -44.5 32.5t-63.5 11.5q-41 0 -73.5 -14t-54.5 -37q-48 -50 -48 -134q0 -32 9 -56t26.5 -44t43 -31.5t62.5 -11.5q43 0 75 14t54 37q48 51 48 132z" />
    <glyph glyph-name="aacute" unicode="&#x431;" horiz-adv-x="640" 
d="M684 740l-31 -118l-252 -5q-60 0 -112 -22q-31 -13 -60 -36q-25 -19 -46 -48t-34 -67q49 58 115 83q49 19 102 19t99 -14.5t84 -53.5q31 -31 48 -71q21 -49 21 -112q0 -69 -24.5 -129t-68.5 -102q-35 -35 -83 -55q-63 -27 -141 -27q-55 0 -100 15q-55 18 -93 57t-58 93
t-20 129q0 114 37 211q44 116 130 179q53 39 118 56q50 13 112 13zM484 283q0 34 -9 59t-25 42q-19 21 -44.5 32.5t-63.5 11.5q-41 0 -73.5 -14t-54.5 -37q-48 -50 -48 -134q0 -32 9 -56t26.5 -44t43 -31.5t62.5 -11.5q43 0 75 14t54 37q48 51 48 132z" />
    <glyph glyph-name="acircumflex" unicode="&#xe2;" horiz-adv-x="500" 
d="M489 425q0 -51 -36 -90q-30 -32 -74 -44q40 -10 61 -41.5t21 -75.5q0 -49 -22 -86q-17 -28 -49 -50.5t-75 -31.5q-29 -6 -68 -6h-243l108 554h217q40 0 71.5 -7.5t55.5 -31.5q15 -15 24 -37.5t9 -52.5zM355 401q0 7 -2 13.5t-9 13.5t-17.5 9.5t-19.5 2.5h-84l-18 -92h90
q16 0 24 1.5t18.5 10t14 18.5t3.5 23zM332 183q0 11 -2.5 19t-11.5 17t-17.5 12t-30.5 3h-88l-23 -120h96q14 0 24.5 2.5t23.5 10.5q29 19 29 56z" />
    <glyph glyph-name="acircumflex" unicode="&#x432;" horiz-adv-x="500" 
d="M489 425q0 -51 -36 -90q-30 -32 -74 -44q40 -10 61 -41.5t21 -75.5q0 -49 -22 -86q-17 -28 -49 -50.5t-75 -31.5q-29 -6 -68 -6h-243l108 554h217q40 0 71.5 -7.5t55.5 -31.5q15 -15 24 -37.5t9 -52.5zM355 401q0 7 -2 13.5t-9 13.5t-17.5 9.5t-19.5 2.5h-84l-18 -92h90
q16 0 24 1.5t18.5 10t14 18.5t3.5 23zM332 183q0 11 -2.5 19t-11.5 17t-17.5 12t-30.5 3h-88l-23 -120h96q14 0 24.5 2.5t23.5 10.5q29 19 29 56z" />
    <glyph glyph-name="atilde" unicode="&#xe3;" horiz-adv-x="380" 
d="M426 554l-23 -118h-181l-85 -436h-133l108 554h314z" />
    <glyph glyph-name="atilde" unicode="&#x433;" horiz-adv-x="380" 
d="M426 554l-23 -118h-181l-85 -436h-133l108 554h314z" />
    <glyph glyph-name="adieresis" unicode="&#xe4;" horiz-adv-x="680" 
d="M642 118l-50 -258h-130l27 140h-398l-27 -140h-130l50 258h66l259 436h150l117 -436h66zM436 118l-74 282l-162 -282h236z" />
    <glyph glyph-name="adieresis" unicode="&#x434;" horiz-adv-x="680" 
d="M642 118l-50 -258h-130l27 140h-398l-27 -140h-130l50 258h66l259 436h150l117 -436h66zM436 118l-74 282l-162 -282h236z" />
    <glyph glyph-name="aring" unicode="&#xe5;" horiz-adv-x="640" 
d="M618 302q0 -42 -9 -84h-439q0 -16 9.5 -38.5t29.5 -41.5t45.5 -28.5t59.5 -9.5q26 0 43 4.5t35 14t28.5 19.5t18.5 22h150q-16 -36 -40 -66t-59 -56t-85 -41t-112 -15q-55 0 -96 14q-52 18 -93 60q-29 31 -48 71q-26 55 -26 119q0 75 25.5 136.5t72 106.5t109.5 66
q52 17 116 17q57 0 99 -13q57 -18 97 -60q31 -33 50 -82t19 -115zM485 336q-3 27 -13.5 48.5t-26 35.5t-34.5 22q-28 12 -62 12q-68 0 -113 -36q-39 -31 -54 -82h303z" />
    <glyph glyph-name="aring" unicode="&#x435;" horiz-adv-x="640" 
d="M618 302q0 -42 -9 -84h-439q0 -16 9.5 -38.5t29.5 -41.5t45.5 -28.5t59.5 -9.5q26 0 43 4.5t35 14t28.5 19.5t18.5 22h150q-16 -36 -40 -66t-59 -56t-85 -41t-112 -15q-55 0 -96 14q-52 18 -93 60q-29 31 -48 71q-26 55 -26 119q0 75 25.5 136.5t72 106.5t109.5 66
q52 17 116 17q57 0 99 -13q57 -18 97 -60q31 -33 50 -82t19 -115zM485 336q-3 27 -13.5 48.5t-26 35.5t-34.5 22q-28 12 -62 12q-68 0 -113 -36q-39 -31 -54 -82h303z" />
    <glyph glyph-name="ae" unicode="&#xe6;" horiz-adv-x="840" 
d="M874 554l-248 -272l150 -282h-154l-129 266l-52 -266h-133l52 266l-234 -266h-162l273 294l-155 260h150l134 -254l50 254h133l-50 -254l217 254h158z" />
    <glyph glyph-name="ae" unicode="&#x436;" horiz-adv-x="840" 
d="M874 554l-248 -272l150 -282h-154l-129 266l-52 -266h-133l52 266l-234 -266h-162l273 294l-155 260h150l134 -254l50 254h133l-50 -254l217 254h158z" />
    <glyph glyph-name="ccedilla" unicode="&#xe7;" horiz-adv-x="460" 
d="M449 421q0 -56 -36 -95q-28 -30 -71 -43q37 -13 54.5 -43t17.5 -69q0 -91 -75 -146q-32 -23 -69.5 -33t-71.5 -10q-43 0 -72.5 9.5t-53.5 26.5q-27 20 -43 49q-21 38 -21 89l2 31h133l-1 -19q0 -32 19 -50t48 -18q15 0 28.5 4.5t23 14.5t15 23t5.5 30q0 11 -3 22t-12 19
t-18.5 10.5t-21.5 2.5h-34l22 110h36q11 0 24.5 2.5t24 10.5t16.5 20t6 26q0 15 -4 25.5t-12 18.5t-22 11.5t-25 3.5q-14 0 -25 -2.5t-24 -12.5q-23 -17 -26 -49h-133q4 42 23 77q16 31 43 54t69.5 37t87.5 14q50 0 87 -15q27 -11 46 -29t31 -44t12 -63z" />
    <glyph glyph-name="ccedilla" unicode="&#x437;" horiz-adv-x="460" 
d="M449 421q0 -56 -36 -95q-28 -30 -71 -43q37 -13 54.5 -43t17.5 -69q0 -91 -75 -146q-32 -23 -69.5 -33t-71.5 -10q-43 0 -72.5 9.5t-53.5 26.5q-27 20 -43 49q-21 38 -21 89l2 31h133l-1 -19q0 -32 19 -50t48 -18q15 0 28.5 4.5t23 14.5t15 23t5.5 30q0 11 -3 22t-12 19
t-18.5 10.5t-21.5 2.5h-34l22 110h36q11 0 24.5 2.5t24 10.5t16.5 20t6 26q0 15 -4 25.5t-12 18.5t-22 11.5t-25 3.5q-14 0 -25 -2.5t-24 -12.5q-23 -17 -26 -49h-133q4 42 23 77q16 31 43 54t69.5 37t87.5 14q50 0 87 -15q27 -11 46 -29t31 -44t12 -63z" />
    <glyph glyph-name="egrave" unicode="&#xe8;" horiz-adv-x="620" 
d="M625 554l-108 -554h-133l68 349l-315 -349h-133l108 554h133l-68 -349l315 349h133z" />
    <glyph glyph-name="egrave" unicode="&#x438;" horiz-adv-x="620" 
d="M625 554l-108 -554h-133l68 349l-315 -349h-133l108 554h133l-68 -349l315 349h133z" />
    <glyph glyph-name="eacute" unicode="&#xe9;" horiz-adv-x="620" 
d="M571 756q-14 -63 -61 -99.5t-114 -36.5q-62 0 -106 30q-50 34 -50 94q1 8 1 12h100q2 -22 18 -34t42 -12q14 0 25 3q34 10 45 43h100zM625 554l-108 -554h-133l68 349l-315 -349h-133l108 554h133l-68 -349l315 349h133z" />
    <glyph glyph-name="eacute" unicode="&#x439;" horiz-adv-x="620" 
d="M571 756q-14 -63 -61 -99.5t-114 -36.5q-62 0 -106 30q-50 34 -50 94q1 8 1 12h100q2 -22 18 -34t42 -12q14 0 25 3q34 10 45 43h100zM625 554l-108 -554h-133l68 349l-315 -349h-133l108 554h133l-68 -349l315 349h133z" />
    <glyph glyph-name="ecircumflex" unicode="&#xea;" horiz-adv-x="580" 
d="M601 554l-276 -272l180 -282h-158l-158 266l-52 -266h-133l108 554h133l-50 -254l248 254h158z" />
    <glyph glyph-name="ecircumflex" unicode="&#x43a;" horiz-adv-x="580" 
d="M601 554l-276 -272l180 -282h-158l-158 266l-52 -266h-133l108 554h133l-50 -254l248 254h158z" />
    <glyph glyph-name="edieresis" unicode="&#xeb;" horiz-adv-x="580" 
d="M526 0h-136l-77 400l-209 -400h-150l305 554h150z" />
    <glyph glyph-name="edieresis" unicode="&#x43b;" horiz-adv-x="580" 
d="M526 0h-136l-77 400l-209 -400h-150l305 554h150z" />
    <glyph glyph-name="igrave" unicode="&#xec;" horiz-adv-x="780" 
d="M785 554l-108 -554h-133l77 397l-225 -397h-111l-71 397l-77 -397h-133l108 554h193l70 -384l217 384h193z" />
    <glyph glyph-name="igrave" unicode="&#x43c;" horiz-adv-x="780" 
d="M785 554l-108 -554h-133l77 397l-225 -397h-111l-71 397l-77 -397h-133l108 554h193l70 -384l217 384h193z" />
    <glyph glyph-name="iacute" unicode="&#xed;" horiz-adv-x="580" 
d="M585 554l-108 -554h-133l45 232h-207l-45 -232h-133l108 554h133l-40 -204h207l40 204h133z" />
    <glyph glyph-name="iacute" unicode="&#x43d;" horiz-adv-x="580" 
d="M585 554l-108 -554h-133l45 232h-207l-45 -232h-133l108 554h133l-40 -204h207l40 204h133z" />
    <glyph glyph-name="icircumflex" unicode="&#xee;" horiz-adv-x="640" 
d="M618 308q0 -72 -24.5 -134t-71 -108.5t-110.5 -67.5q-50 -16 -109 -16t-105 15q-54 18 -94 57t-57 88t-17 106q0 70 25 133t69 106q49 49 112 69q49 16 111 16q61 0 109.5 -16t88.5 -56q36 -36 54.5 -83t18.5 -109zM485 298q0 36 -9 62.5t-26 47.5t-44 33.5t-66 12.5
q-42 0 -73.5 -15t-54.5 -40q-49 -54 -49 -143q0 -36 9 -62.5t26 -47.5t44 -33.5t66 -12.5q42 0 73.5 15t54.5 40q49 54 49 143z" />
    <glyph glyph-name="icircumflex" unicode="&#x43e;" horiz-adv-x="640" 
d="M618 308q0 -72 -24.5 -134t-71 -108.5t-110.5 -67.5q-50 -16 -109 -16t-105 15q-54 18 -94 57t-57 88t-17 106q0 70 25 133t69 106q49 49 112 69q49 16 111 16q61 0 109.5 -16t88.5 -56q36 -36 54.5 -83t18.5 -109zM485 298q0 36 -9 62.5t-26 47.5t-44 33.5t-66 12.5
q-42 0 -73.5 -15t-54.5 -40q-49 -54 -49 -143q0 -36 9 -62.5t26 -47.5t44 -33.5t66 -12.5q42 0 73.5 15t54.5 40q49 54 49 143z" />
    <glyph glyph-name="idieresis" unicode="&#xef;" horiz-adv-x="580" 
d="M585 554l-108 -554h-133l85 436h-207l-85 -436h-133l108 554h473z" />
    <glyph glyph-name="idieresis" unicode="&#x43f;" horiz-adv-x="580" 
d="M585 554l-108 -554h-133l85 436h-207l-85 -436h-133l108 554h473z" />
    <glyph glyph-name="eth" unicode="&#xf0;" horiz-adv-x="660" 
d="M638 303q0 -80 -29 -145q-25 -55 -68 -96q-38 -36 -87 -56q-58 -24 -129 -24q-73 0 -120 26q-32 18 -55 49l-49 -242h-133l144 739h122l-6 -33q29 28 69.5 39.5t81.5 11.5q53 0 94.5 -14.5t78.5 -47.5q45 -40 65.5 -91.5t20.5 -115.5zM505 293q0 75 -39 118t-107 43
q-76 0 -125.5 -53.5t-49.5 -142.5q0 -73 38.5 -115.5t105.5 -42.5q77 0 127 53t50 140z" />
    <glyph glyph-name="eth" unicode="&#x440;" horiz-adv-x="660" 
d="M638 303q0 -80 -29 -145q-25 -55 -68 -96q-38 -36 -87 -56q-58 -24 -129 -24q-73 0 -120 26q-32 18 -55 49l-49 -242h-133l144 739h122l-6 -33q29 28 69.5 39.5t81.5 11.5q53 0 94.5 -14.5t78.5 -47.5q45 -40 65.5 -91.5t20.5 -115.5zM505 293q0 75 -39 118t-107 43
q-76 0 -125.5 -53.5t-49.5 -142.5q0 -73 38.5 -115.5t105.5 -42.5q77 0 127 53t50 140z" />
    <glyph glyph-name="ntilde" unicode="&#xf1;" horiz-adv-x="640" 
d="M614 370h-146q-12 41 -45 62.5t-79 21.5q-47 0 -86 -20q-27 -14 -47 -36q-48 -54 -48 -140q0 -46 16 -81q10 -21 24 -37q22 -23 53 -33q22 -7 50 -7q50 0 86.5 20t54.5 60h144q-29 -88 -99 -140q-78 -58 -193 -58q-58 0 -106 15t-88.5 55t-57.5 89.5t-17 106.5
q0 79 29 144q24 54 65 95q50 49 112 69q50 16 117 16q124 0 194 -70q54 -53 67 -132z" />
    <glyph glyph-name="ntilde" unicode="&#x441;" horiz-adv-x="640" 
d="M614 370h-146q-12 41 -45 62.5t-79 21.5q-47 0 -86 -20q-27 -14 -47 -36q-48 -54 -48 -140q0 -46 16 -81q10 -21 24 -37q22 -23 53 -33q22 -7 50 -7q50 0 86.5 20t54.5 60h144q-29 -88 -99 -140q-78 -58 -193 -58q-58 0 -106 15t-88.5 55t-57.5 89.5t-17 106.5
q0 79 29 144q24 54 65 95q50 49 112 69q50 16 117 16q124 0 194 -70q54 -53 67 -132z" />
    <glyph glyph-name="ograve" unicode="&#xf2;" horiz-adv-x="420" 
d="M467 554l-23 -118h-133l-85 -436h-133l85 436h-133l23 118h399z" />
    <glyph glyph-name="ograve" unicode="&#x442;" horiz-adv-x="420" 
d="M467 554l-23 -118h-133l-85 -436h-133l85 436h-133l23 118h399z" />
    <glyph glyph-name="oacute" unicode="&#xf3;" horiz-adv-x="580" 
d="M626 554l-457 -739h-148l148 237l-105 502h143l69 -355l202 355h148z" />
    <glyph glyph-name="oacute" unicode="&#x443;" horiz-adv-x="580" 
d="M626 554l-457 -739h-148l148 237l-105 502h143l69 -355l202 355h148z" />
    <glyph glyph-name="ocircumflex" unicode="&#xf4;" horiz-adv-x="820" 
d="M799 296q0 -89 -47 -162q-42 -65 -109 -103q-43 -24 -103.5 -36.5t-115.5 -12.5l-33 -167h-133l33 167q-46 0 -91.5 17t-79.5 46q-90 74 -90 209q0 92 47 166q41 64 109 103q43 24 103.5 36.5t115.5 12.5l33 168h133l-33 -168q46 0 91.5 -17t79.5 -46q43 -35 66.5 -89.5
t23.5 -123.5zM666 299q0 30 -9 58.5t-34 53.5q-18 16 -33 24q-35 19 -74 19l-70 -354q40 0 73 7.5t63 27.5q35 23 56 57q28 46 28 107zM383 454q-40 0 -73 -7.5t-65 -29t-53 -55.5q-29 -47 -29 -109q0 -39 13 -68q10 -22 30 -42q18 -16 33 -24q35 -19 74 -19z" />
    <glyph glyph-name="ocircumflex" unicode="&#x444;" horiz-adv-x="820" 
d="M799 296q0 -89 -47 -162q-42 -65 -109 -103q-43 -24 -103.5 -36.5t-115.5 -12.5l-33 -167h-133l33 167q-46 0 -91.5 17t-79.5 46q-90 74 -90 209q0 92 47 166q41 64 109 103q43 24 103.5 36.5t115.5 12.5l33 168h133l-33 -168q46 0 91.5 -17t79.5 -46q43 -35 66.5 -89.5
t23.5 -123.5zM666 299q0 30 -9 58.5t-34 53.5q-18 16 -33 24q-35 19 -74 19l-70 -354q40 0 73 7.5t63 27.5q35 23 56 57q28 46 28 107zM383 454q-40 0 -73 -7.5t-65 -29t-53 -55.5q-29 -47 -29 -109q0 -39 13 -68q10 -22 30 -42q18 -16 33 -24q35 -19 74 -19z" />
    <glyph glyph-name="otilde" unicode="&#xf5;" 
d="M597 554l-235 -275l144 -279h-155l-85 189l-153 -189h-159l255 295l-132 259h150l77 -169l136 169h157z" />
    <glyph glyph-name="otilde" unicode="&#x445;" 
d="M597 554l-235 -275l144 -279h-155l-85 189l-153 -189h-159l255 295l-132 259h150l77 -169l136 169h157z" />
    <glyph glyph-name="odieresis" unicode="&#xf6;" horiz-adv-x="620" 
d="M586 554l-85 -436h84l-50 -258h-130l27 140h-428l108 554h133l-85 -436h208l85 436h133z" />
    <glyph glyph-name="odieresis" unicode="&#x446;" horiz-adv-x="620" 
d="M586 554l-85 -436h84l-50 -258h-130l27 140h-428l108 554h133l-85 -436h208l85 436h133z" />
    <glyph glyph-name="divide" unicode="&#xf7;" horiz-adv-x="520" 
d="M525 554l-108 -554h-133l37 190h-79q-43 0 -73.5 5t-53.5 19q-35 20 -48.5 48.5t-13.5 62.5q0 16 2 30t8 42l31 157h133l-31 -157q-2 -12 -3.5 -20.5t-1.5 -14.5q0 -31 17 -43q10 -8 22.5 -9.5t34.5 -1.5h79l48 246h133z" />
    <glyph glyph-name="divide" unicode="&#x447;" horiz-adv-x="520" 
d="M525 554l-108 -554h-133l37 190h-79q-43 0 -73.5 5t-53.5 19q-35 20 -48.5 48.5t-13.5 62.5q0 16 2 30t8 42l31 157h133l-31 -157q-2 -12 -3.5 -20.5t-1.5 -14.5q0 -31 17 -43q10 -8 22.5 -9.5t34.5 -1.5h79l48 246h133z" />
    <glyph glyph-name="oslash" unicode="&#xf8;" horiz-adv-x="840" 
d="M845 554l-108 -554h-733l108 554h133l-85 -436h167l85 436h133l-85 -436h167l85 436h133z" />
    <glyph glyph-name="oslash" unicode="&#x448;" horiz-adv-x="840" 
d="M845 554l-108 -554h-733l108 554h133l-85 -436h167l85 436h133l-85 -436h167l85 436h133z" />
    <glyph glyph-name="ugrave" unicode="&#xf9;" horiz-adv-x="880" 
d="M845 554l-85 -436h84l-50 -258h-130l27 140h-687l108 554h133l-85 -436h167l85 436h133l-85 -436h167l85 436h133z" />
    <glyph glyph-name="ugrave" unicode="&#x449;" horiz-adv-x="880" 
d="M845 554l-85 -436h84l-50 -258h-130l27 140h-687l108 554h133l-85 -436h167l85 436h133l-85 -436h167l85 436h133z" />
    <glyph glyph-name="uacute" unicode="&#xfa;" horiz-adv-x="600" 
d="M560 200q0 -38 -12 -70q-16 -43 -53 -76t-81 -45q-32 -9 -78 -9h-252l85 436h-129l23 118h262l-38 -194h99q45 0 78 -12t53 -32q43 -41 43 -116zM427 186q0 15 -3 24.5t-14 18t-23 11t-26 2.5h-97l-24 -124h101q14 0 29.5 3t26.5 10q30 18 30 55z" />
    <glyph glyph-name="uacute" unicode="&#x44a;" horiz-adv-x="600" 
d="M560 200q0 -38 -12 -70q-16 -43 -53 -76t-81 -45q-32 -9 -78 -9h-252l85 436h-129l23 118h262l-38 -194h99q45 0 78 -12t53 -32q43 -41 43 -116zM427 186q0 15 -3 24.5t-14 18t-23 11t-26 2.5h-97l-24 -124h101q14 0 29.5 3t26.5 10q30 18 30 55z" />
    <glyph glyph-name="ucircumflex" unicode="&#xfb;" horiz-adv-x="740" 
d="M745 554l-108 -554h-133l108 554h133zM480 200q0 -38 -12 -70q-16 -43 -53 -76t-81 -45q-32 -9 -78 -9h-252l108 554h133l-38 -194h99q45 0 78 -12t53 -32q43 -41 43 -116zM347 186q0 15 -3 24.5t-14 18t-23 11t-26 2.5h-97l-24 -124h101q14 0 29.5 3t26.5 10
q30 18 30 55z" />
    <glyph glyph-name="ucircumflex" unicode="&#x44b;" horiz-adv-x="740" 
d="M745 554l-108 -554h-133l108 554h133zM480 200q0 -38 -12 -70q-16 -43 -53 -76t-81 -45q-32 -9 -78 -9h-252l108 554h133l-38 -194h99q45 0 78 -12t53 -32q43 -41 43 -116zM347 186q0 15 -3 24.5t-14 18t-23 11t-26 2.5h-97l-24 -124h101q14 0 29.5 3t26.5 10
q30 18 30 55z" />
    <glyph glyph-name="udieresis" unicode="&#xfc;" horiz-adv-x="520" 
d="M480 200q0 -38 -12 -70q-16 -43 -53 -76t-81 -45q-32 -9 -78 -9h-252l108 554h133l-38 -194h99q45 0 78 -12t53 -32q43 -41 43 -116zM347 186q0 15 -3 24.5t-14 18t-23 11t-26 2.5h-97l-24 -124h101q14 0 29.5 3t26.5 10q30 18 30 55z" />
    <glyph glyph-name="udieresis" unicode="&#x44c;" horiz-adv-x="520" 
d="M480 200q0 -38 -12 -70q-16 -43 -53 -76t-81 -45q-32 -9 -78 -9h-252l108 554h133l-38 -194h99q45 0 78 -12t53 -32q43 -41 43 -116zM347 186q0 15 -3 24.5t-14 18t-23 11t-26 2.5h-97l-24 -124h101q14 0 29.5 3t26.5 10q30 18 30 55z" />
    <glyph glyph-name="yacute" unicode="&#xfd;" horiz-adv-x="640" 
d="M618 310q0 -75 -24.5 -137t-69.5 -106q-49 -49 -113 -69q-50 -16 -116 -16q-61 0 -101 12q-54 16 -95 58q-25 26 -41.5 57.5t-23.5 70.5h146q5 -18 14.5 -31t24.5 -24.5t39 -18t48 -6.5q38 0 66.5 10.5t55.5 37.5q14 14 25.5 32t17.5 38h-220l23 118h207q-3 20 -10.5 37
t-20.5 34q-20 24 -47 35.5t-63 11.5q-52 0 -90 -23q-15 -9 -26 -20q-18 -17 -30 -41h-144q15 46 43 85q24 32 54 55q36 28 87.5 45t115.5 17q57 0 105.5 -15.5t88.5 -55t57 -89t17 -102.5z" />
    <glyph glyph-name="yacute" unicode="&#x44d;" horiz-adv-x="640" 
d="M618 310q0 -75 -24.5 -137t-69.5 -106q-49 -49 -113 -69q-50 -16 -116 -16q-61 0 -101 12q-54 16 -95 58q-25 26 -41.5 57.5t-23.5 70.5h146q5 -18 14.5 -31t24.5 -24.5t39 -18t48 -6.5q38 0 66.5 10.5t55.5 37.5q14 14 25.5 32t17.5 38h-220l23 118h207q-3 20 -10.5 37
t-20.5 34q-20 24 -47 35.5t-63 11.5q-52 0 -90 -23q-15 -9 -26 -20q-18 -17 -30 -41h-144q15 46 43 85q24 32 54 55q36 28 87.5 45t115.5 17q57 0 105.5 -15.5t88.5 -55t57 -89t17 -102.5z" />
    <glyph glyph-name="thorn" unicode="&#xfe;" horiz-adv-x="880" 
d="M858 308q0 -72 -24.5 -134t-71 -108.5t-110.5 -67.5q-50 -16 -109 -16q-54 0 -96 12q-60 17 -103 60q-34 35 -53.5 80.5t-19.5 97.5h-89l-45 -232h-133l108 554h133l-40 -204h80q10 44 34 84q19 31 45 55q49 47 112 67q49 16 109 16q62 0 111 -16t89 -56q36 -36 54.5 -83
t18.5 -109zM725 298q0 36 -9 62.5t-25.5 46.5t-44 33.5t-62.5 13.5q-43 0 -80 -17q-31 -14 -52 -38q-49 -54 -49 -143q0 -36 9 -62.5t26.5 -47.5t44 -33.5t63.5 -12.5q44 0 76 15t54 40q49 54 49 143z" />
    <glyph glyph-name="thorn" unicode="&#x44e;" horiz-adv-x="880" 
d="M858 308q0 -72 -24.5 -134t-71 -108.5t-110.5 -67.5q-50 -16 -109 -16q-54 0 -96 12q-60 17 -103 60q-34 35 -53.5 80.5t-19.5 97.5h-89l-45 -232h-133l108 554h133l-40 -204h80q10 44 34 84q19 31 45 55q49 47 112 67q49 16 109 16q62 0 111 -16t89 -56q36 -36 54.5 -83
t18.5 -109zM725 298q0 36 -9 62.5t-25.5 46.5t-44 33.5t-62.5 13.5q-43 0 -80 -17q-31 -14 -52 -38q-49 -54 -49 -143q0 -36 9 -62.5t26.5 -47.5t44 -33.5t63.5 -12.5q44 0 76 15t54 40q49 54 49 143z" />
    <glyph glyph-name="ydieresis" unicode="&#xff;" horiz-adv-x="540" 
d="M545 554l-108 -554h-133l42 220l-201 -220h-172l206 204q-25 2 -45 11.5t-37 25.5t-29 43t-12 65q0 48 21 90.5t63 71.5q33 23 72.5 33t75.5 10h257zM389 436h-115q-16 0 -29 -3t-27 -14q-29 -23 -29 -62q0 -15 4 -24t14.5 -19t26.5 -13.5t33 -3.5h95z" />
    <glyph glyph-name="ydieresis" unicode="&#x44f;" horiz-adv-x="540" 
d="M545 554l-108 -554h-133l42 220l-201 -220h-172l206 204q-25 2 -45 11.5t-37 25.5t-29 43t-12 65q0 48 21 90.5t63 71.5q33 23 72.5 33t75.5 10h257zM389 436h-115q-16 0 -29 -3t-27 -14q-29 -23 -29 -62q0 -15 4 -24t14.5 -19t26.5 -13.5t33 -3.5h95z" />
    <glyph glyph-name="OE" unicode="&#x152;" horiz-adv-x="980" 
d="M960 251q0 -70 -28 -124q-23 -44 -58 -71t-84.5 -41.5t-100.5 -14.5h-268l64 327h-263l-64 -327h-137l144 740h137l-56 -285h263l56 285h137l-56 -285h103q52 0 83 -9q46 -13 78 -49q21 -23 33 -52q17 -41 17 -94zM823 243q0 18 -5.5 32.5t-14.5 24.5q-15 17 -34 22
t-41 5h-106l-39 -199h122q26 0 45.5 7t33.5 18q19 15 29 40.5t10 49.5z" />
    <glyph glyph-name="oe" unicode="&#x153;" horiz-adv-x="860" 
d="M820 200q0 -38 -12 -70q-16 -43 -53 -76t-81 -45q-32 -9 -78 -9h-252l47 242h-207l-47 -242h-133l108 554h133l-38 -194h207l38 194h133l-38 -194h99q45 0 78 -12t53 -32q43 -41 43 -116zM687 186q0 15 -3 24.5t-14 18t-23 11t-26 2.5h-97l-24 -124h101q14 0 29.5 3
t26.5 10q30 18 30 55z" />
    <glyph glyph-name="Scaron" unicode="&#x160;" horiz-adv-x="1000" 
d="M980 247q0 -69 -28 -122q-22 -41 -57.5 -68.5t-85 -42t-100.5 -14.5h-268l118 606l-418 -606h-174l536 740h219l-56 -285h103q52 0 83 -9q46 -13 78 -49q22 -24 36 -61t14 -89zM843 237q0 41 -20 63q-15 17 -34 22t-41 5h-106l-39 -199h122q26 0 45.5 7t33.5 18
q39 31 39 84z" />
    <glyph glyph-name="scaron" unicode="&#x161;" horiz-adv-x="840" 
d="M800 200q0 -38 -12 -70q-16 -43 -53 -76t-81 -45q-32 -9 -78 -9h-252l75 386l-273 -386h-164l403 554h200l-38 -194h99q45 0 78 -12t53 -32q43 -41 43 -116zM667 186q0 15 -3 24.5t-14 18t-23 11t-26 2.5h-97l-24 -124h101q14 0 29.5 3t26.5 10q30 18 30 55z" />
    <glyph glyph-name="Ydieresis" unicode="&#x178;" horiz-adv-x="579" 
d="M584 554l-108 -554h-171l-31 -160h-130l31 160h-171l108 554h133l-85 -436h206l85 436h133z" />
    <glyph glyph-name="florin" unicode="&#x192;" horiz-adv-x="380" 
d="M473 734l-252 -121l-48 92l251 133zM426 554l-23 -118h-181l-85 -436h-133l108 554h314z" />
    <glyph glyph-name="circumflex" unicode="&#x2c6;" horiz-adv-x="540" 
d="M544 620h-145l-42 64l-67 -64h-145l174 138h105z" />
    <glyph glyph-name="tilde" unicode="&#x2dc;" horiz-adv-x="480" 
d="M484 664q-21 -18 -50 -31t-58 -13q-14 0 -27 3.5t-28.5 9t-28.5 9.5t-27 4q-18 0 -37 -6.5t-34 -15.5l-32 88q24 19 50.5 28t53.5 9q23 0 41 -5q4 -1 27 -11q8 -4 19 -8t25 -4q17 0 36.5 8t36.5 20z" />
    <glyph glyph-name="endash" unicode="&#x2013;" horiz-adv-x="500" 
d="M523 377l-23 -118h-500l23 118h500z" />
    <glyph glyph-name="emdash" unicode="&#x2014;" horiz-adv-x="1000" 
d="M1023 377l-23 -118h-1000l23 118h1000z" />
    <glyph glyph-name="quoteleft" unicode="&#x2018;" horiz-adv-x="280" 
d="M300 753l-13 -67q-25 0 -44.5 -15.5t-23.5 -40.5l-3 -17h59l-26 -133h-133l25 128q8 39 16 58q14 33 39 52.5t55 27t49 7.5z" />
    <glyph glyph-name="quoteright" unicode="&#x2019;" horiz-adv-x="280" 
d="M300 740l-25 -128q-8 -39 -16 -58q-14 -33 -39 -52.5t-61 -28.5q-24 -6 -43 -6l13 67q25 0 44.5 15.5t23.5 40.5l3 17h-59l26 133h133z" />
    <glyph glyph-name="quotesinglbase" unicode="&#x201a;" horiz-adv-x="280" 
d="M182 133l-25 -128q-8 -39 -16 -58q-14 -33 -39 -52.5t-61 -28.5q-24 -6 -43 -6l13 67q25 0 44.5 15.5t23.5 40.5l3 17h-59l26 133h133z" />
    <glyph glyph-name="quotedblleft" unicode="&#x201c;" horiz-adv-x="480" 
d="M504 753l-13 -67q-25 0 -44.5 -15.5t-23.5 -40.5l-3 -17h59l-26 -133h-133l25 128q8 39 16 58q14 33 39 52.5t55 27t49 7.5zM297 753l-13 -67q-25 0 -44.5 -15.5t-23.5 -40.5l-3 -17h59l-26 -133h-133l25 128q8 39 16 58q14 33 39 52.5t55 27t49 7.5z" />
    <glyph glyph-name="quotedblright" unicode="&#x201d;" horiz-adv-x="480" 
d="M504 740l-25 -128q-8 -39 -16 -58q-14 -33 -39 -52.5t-61 -28.5q-24 -6 -43 -6l13 67q25 0 44.5 15.5t23.5 40.5l3 17h-59l26 133h133zM297 740l-25 -128q-8 -39 -16 -58q-14 -33 -39 -52.5t-61 -28.5q-24 -6 -43 -6l13 67q25 0 44.5 15.5t23.5 40.5l3 17h-59l26 133h133
z" />
    <glyph glyph-name="quotedblbase" unicode="&#x201e;" horiz-adv-x="480" 
d="M386 133l-25 -128q-8 -39 -16 -58q-14 -33 -39 -52.5t-61 -28.5q-24 -6 -43 -6l13 67q25 0 44.5 15.5t23.5 40.5l3 17h-59l26 133h133zM179 133l-25 -128q-8 -39 -16 -58q-14 -33 -39 -52.5t-61 -28.5q-24 -6 -43 -6l13 67q25 0 44.5 15.5t23.5 40.5l3 17h-59l26 133h133
z" />
    <glyph glyph-name="dagger" unicode="&#x2020;" 
d="M562 554l-22 -118h-162l-110 -564h-133l110 564h-162l22 118h162l37 186h133l-37 -186h162z" />
    <glyph glyph-name="daggerdbl" unicode="&#x2021;" 
d="M562 592l-23 -118h-162l-19 -97h162l-23 -118h-162l-75 -387h-133l75 387h-162l23 118h162l19 97h-162l23 118h162l29 148h133l-29 -148h162z" />
    <glyph glyph-name="bullet" unicode="&#x2022;" horiz-adv-x="600" 
d="M520 318q0 -83 -58.5 -141.5t-141.5 -58.5t-141.5 58.5t-58.5 141.5t58.5 141.5t141.5 58.5t141.5 -58.5t58.5 -141.5z" />
    <glyph glyph-name="ellipsis" unicode="&#x2026;" horiz-adv-x="1000" 
d="M875 133l-26 -133h-133l26 133h133zM542 133l-26 -133h-133l26 133h133zM209 133l-26 -133h-133l26 133h133z" />
    <glyph glyph-name="perthousand" unicode="&#x2030;" horiz-adv-x="1280" 
d="M1250 186q0 -47 -15 -85t-39 -62.5t-56 -38.5q-41 -18 -89 -18q-33 0 -62.5 10.5t-52.5 33.5t-34.5 51.5t-11.5 60.5q0 47 15 85t39 62.5t56 38.5q41 18 89 18q33 0 62.5 -10.5t52.5 -33.5t34.5 -51.5t11.5 -60.5zM436 597q0 -47 -15 -85t-39 -62.5t-56 -38.5
q-41 -18 -89 -18q-33 0 -62.5 10.5t-52.5 33.5t-34.5 51.5t-11.5 60.5q0 47 15 85t39 62.5t56 38.5q41 18 89 18q33 0 62.5 -10.5t52.5 -33.5t34.5 -51.5t11.5 -60.5zM729 740l-450 -740h-102l450 740h102zM830 186q0 -47 -15 -85t-39 -62.5t-56 -38.5q-41 -18 -89 -18
q-33 0 -62.5 10.5t-52.5 33.5t-34.5 51.5t-11.5 60.5q0 47 15 85t39 62.5t56 38.5q41 18 89 18q33 0 62.5 -10.5t52.5 -33.5t34.5 -51.5t11.5 -60.5zM1140 169q0 18 -4.5 29t-12.5 19t-20 13.5t-28 5.5q-55 0 -71 -53q-4 -12 -4 -28q0 -18 4.5 -29t12.5 -19t20 -13.5
t28 -5.5q33 0 54 23q10 10 15.5 24.5t5.5 33.5zM326 580q0 18 -4.5 29t-12.5 19t-20 13.5t-28 5.5q-55 0 -71 -53q-4 -12 -4 -28q0 -18 4.5 -29t12.5 -19t20 -13.5t28 -5.5q33 0 54 23q10 10 15.5 24.5t5.5 33.5zM720 169q0 18 -4.5 29t-12.5 19t-20 13.5t-28 5.5
q-55 0 -71 -53q-4 -12 -4 -28q0 -18 4.5 -29t12.5 -19t20 -13.5t28 -5.5q33 0 54 23q10 10 15.5 24.5t5.5 33.5z" />
    <glyph glyph-name="guilsinglleft" unicode="&#x2039;" horiz-adv-x="240" 
d="M222 498l-24 -123l-78 -57l55 -59l-24 -123l-113 131l20 101z" />
    <glyph glyph-name="guilsinglright" unicode="&#x203a;" horiz-adv-x="240" 
d="M234 368l-20 -101l-165 -131l24 123l80 59l-57 57l24 123z" />
    <glyph glyph-name="trademark" unicode="&#x2122;" horiz-adv-x="1000" 
d="M1023 740l-79 -404h-88l63 326l-182 -326h-52l-56 326l-63 -326h-88l79 404h142l44 -251l138 251h142zM508 740l-16 -78h-123l-63 -326h-97l63 326h-123l16 78h343z" />
    </font>
</defs>
</svg>
